<?xml version="1.0" standalone="no"?>
<!DOCTYPE svg PUBLIC "-//W3C//DTD SVG 1.1//EN" "http://www.w3.org/Graphics/SVG/1.1/DTD/svg11.dtd" >
<svg>
<metadata>
Created by FontForge 20110222 at Thu Aug  8 06:24:21 2013
 By Orthosie Webhosting
AzBuki press 1991
</metadata>
<defs>
<font id="PalatinoNormal" horiz-adv-x="1096" >
  <font-face 
    font-family="PalatinoNormal"
    font-weight="400"
    font-stretch="normal"
    units-per-em="2048"
    panose-1="2 2 5 0 0 0 0 0 0 0"
    ascent="1638"
    descent="-410"
    x-height="803"
    cap-height="1208"
    bbox="0 -479 1765 1520"
    underline-thickness="48"
    underline-position="-126"
    unicode-range="U+0020-2219"
  />
<missing-glyph horiz-adv-x="1536" 
d="M256 0v1280h1024v-1280h-1024zM1247 33v1214h-958v-1214h958z" />
    <glyph glyph-name=".notdef" horiz-adv-x="1536" 
d="M256 0v1280h1024v-1280h-1024zM1247 33v1214h-958v-1214h958z" />
    <glyph glyph-name=".null" horiz-adv-x="0" 
 />
    <glyph glyph-name="nonmarkingreturn" horiz-adv-x="0" 
 />
    <glyph glyph-name="space" unicode=" " horiz-adv-x="836" 
 />
    <glyph glyph-name="exclam" unicode="!" horiz-adv-x="453" 
d="M250 319q-4 63 -10 179.5t-11 173.5q-3 40 -8.5 91.5t-11.5 107t-11 125.5t-5 106v28l126 66h54q0 -19 2 -58t2 -57q0 -134 -29 -377t-33 -348q-6 -6 -20 -18t-21 -19h-24zM406 106q0 -40 -33 -73t-70 -33q-40 0 -73 33t-33 73q0 39 33 71t73 32q37 0 70 -32t33 -71z" />
    <glyph glyph-name="quotedbl" unicode="&#x22;" horiz-adv-x="588" 
d="M205 729h-29l-53 389q0 3 -2 13t-2 16q0 35 17 62.5t52 27.5q41 0 57.5 -27.5t16.5 -66.5q0 -3 -2 -12t-2 -13zM537 1118l-58 -389h-24l-58 389q0 4 -2 13t-2 12q0 44 22 69t52 25q28 0 51 -25.5t23 -68.5q0 -3 -2 -12t-2 -13z" />
    <glyph glyph-name="numbersign" unicode="#" horiz-adv-x="1341" 
d="M700 1233h111l-139 -402h241l140 402h110l-139 -402h262l-37 -98h-262l-82 -237h279l-37 -99h-279l-139 -397h-111l140 397h-242l-143 -397h-111l144 397h-275l37 99h270l86 237h-295l37 98h295zM881 733h-246l-86 -241h246z" />
    <glyph glyph-name="dollar" unicode="$" horiz-adv-x="887" 
d="M82 29q12 129 12 258h58q1 -18 3 -53.5t9 -62.5t20 -44q26 -30 65.5 -46t86 -21t86.5 -7v467q-89 0 -170.5 35.5t-133.5 101t-52 150.5q0 151 102 246.5t254 117.5l-4 107h69l-4 -107q159 0 295 -65q-18 -117 -24 -234h-58v37q0 95 -37 131q-54 54 -176 62v-447
q114 -16 187.5 -39t125.5 -80.5t52 -158.5t-50.5 -183.5t-134 -138t-180.5 -75.5l4 -181h-69l4 172h-16q-180 0 -324 58zM483 508v-451q102 13 162 80.5t60 165.5q0 93 -62 144t-160 61zM422 1098q-59 -6 -108.5 -39t-77 -82.5t-27.5 -104.5q0 -101 80 -149t133 -59v434z
" />
    <glyph glyph-name="percent" unicode="%" horiz-adv-x="1399" 
d="M1335 451q17 -38 17 -99q0 -84 -36 -168t-91 -139q-84 -70 -181 -70q-98 0 -151 70q-49 67 -49 156q0 91 47.5 184.5t116.5 142.5q74 54 151 54q60 0 108 -32.5t68 -98.5zM1204 532h-28q-68 0 -113 -62t-72 -146q-28 -86 -28 -164q0 -111 77 -131q20 -9 29 -9
q65 0 110.5 63.5t77.5 149.5q6 22 9 35t9 41t8.5 49t2.5 43q0 115 -82 131zM393 647q13 -4 33 -4q65 0 112.5 65t71.5 144q29 91 29 168q0 116 -78 131q-12 4 -29 4q-119 0 -184 -213q-33 -113 -33 -164q0 -108 78 -131zM389 -180h-82l672 1245q-77 -33 -160 -33
q-67 0 -127 25q4 -25 4 -82q0 -74 -24 -150.5t-72.5 -134.5t-116.5 -84q-40 -16 -77 -16q-81 0 -144 57q-61 61 -61 172q0 43 9.5 86t27.5 86q40 90 115 150t167 63q33 0 56.5 -8t40 -21t43.5 -34.5t40 -30.5q67 -29 115 -29q80 0 152 45q21 15 39 33t31 35t26 35.5t31 44.5
h77z" />
    <glyph glyph-name="ampersand" unicode="&#x26;" horiz-adv-x="1378" 
d="M815 115q-87 -63 -173 -99t-179 -36q-105 0 -190.5 52.5t-125.5 147.5q-24 55 -24 127q0 134 82 230q57 71 172 147q-53 111 -53 213q0 61 24 111q29 59 95 114.5t130 73.5q34 8 50 8q65 0 110 -39.5t45 -107.5q0 -172 -254 -348q140 -273 348 -447q91 104 91 213
q0 40 -13 74q-22 53 -135 53h-33q-2 0 -9 2t-11 2l57 86q26 0 82 -2t82 -2q54 0 163 4t165 4l-17 -118q-97 12 -204 12h-29v-41q0 -96 -31.5 -169t-103.5 -159q113 -85 229 -102q12 -4 37 -4q45 0 127 32l16 -45q-28 -21 -53 -37.5t-48 -34.5t-46 -42q-50 -8 -70 -8
q-137 0 -303 135zM602 1106q-24 8 -41 8q-28 0 -55 -18t-39 -43q-21 -58 -21 -99q0 -78 50 -192q121 84 151 180q8 32 8 57q0 34 -13 65t-40 42zM406 623q-77 -60 -103 -103q-33 -74 -33 -139q0 -84 40.5 -156t100 -107.5t130.5 -35.5q107 0 221 78q-67 63 -130.5 137.5
t-119 156.5t-106.5 169z" />
    <glyph glyph-name="quotesingle" unicode="'" horiz-adv-x="301" 
d="M205 729h-29l-53 389q0 3 -2 13t-2 16q0 35 17 62.5t52 27.5q41 0 57.5 -27.5t16.5 -66.5q0 -3 -2 -12t-2 -13z" />
    <glyph glyph-name="parenleft" unicode="(" horiz-adv-x="567" 
d="M516 -406q-179 150 -274 369t-95 455q0 114 24 229.5t70 220t116.5 198t162.5 167.5l45 -41q-100 -103 -161 -223.5t-85 -251.5t-24 -291q0 -166 24.5 -298.5t83.5 -252t162 -244.5z" />
    <glyph glyph-name="parenright" unicode=")" horiz-adv-x="547" 
d="M127 -406l-45 37q103 126 161 243.5t81.5 246.5t23.5 301q0 236 -60.5 425.5t-205.5 344.5l41 41q123 -98 208 -230t127 -283t42 -302q0 -154 -42 -304.5t-127 -286t-204 -233.5z" />
    <glyph glyph-name="asterisk" unicode="*" horiz-adv-x="793" 
d="M262 721l-33 8l-36 86l16 29l201 90l-213 102l-4 33l45 86h24l164 -176l61 242l29 4l78 -25l12 -24l-114 -213l225 41l20 -21l13 -98l-17 -21l-241 45l102 -196l-4 -37l-86 -49l-29 16l-41 238z" />
    <glyph glyph-name="plus" unicode="+" horiz-adv-x="1321" 
d="M713 1032h102v-467h455v-98h-455v-467h-102v467h-455v98h455v467z" />
    <glyph glyph-name="comma" unicode="," horiz-adv-x="473" 
d="M70 -250q68 116 105 218.5t46 215.5q36 8 90 24.5t82 24.5l25 -24q-62 -207 -262 -447l-66 -24z" />
    <glyph glyph-name="hyphen" unicode="-" horiz-adv-x="625" 
d="M78 336l45 131h446l-45 -131h-446z" />
    <glyph glyph-name="period" unicode="." horiz-adv-x="453" 
d="M406 106q0 -40 -33 -73t-70 -33q-40 0 -73 33t-33 73q0 39 33 71t73 32q37 0 70 -32t33 -71z" />
    <glyph glyph-name="slash" unicode="/" horiz-adv-x="662" 
d="M25 -160l557 1434h82l-558 -1434h-81z" />
    <glyph glyph-name="zero" unicode="0" horiz-adv-x="887" 
d="M94 586q0 268 81.5 443t311.5 175q113 0 184.5 -56t108 -143.5t48.5 -182t12 -191.5q0 -115 -15 -224t-56.5 -207t-118 -159t-191.5 -61q-155 0 -236 92.5t-105 222t-24 291.5zM246 582q5 -220 46.5 -384.5t182.5 -164.5q127 0 168 133t41 321v185q0 120 -14.5 224
t-65.5 179.5t-149 75.5q-213 0 -213 -451q0 -25 2 -66t2 -52z" />
    <glyph glyph-name="one" unicode="1" horiz-adv-x="698" 
d="M74 0v37q109 6 145.5 13.5t56 44t19.5 126.5v770q0 62 -33 62h-8q-21 0 -55 -15.5t-65.5 -33.5t-59.5 -33l-21 37q105 54 200 108t193 113v-1008q0 -65 8.5 -101t31 -54t60 -23.5t109.5 -5.5v-37h-581z" />
    <glyph glyph-name="two" unicode="2" horiz-adv-x="907" 
d="M0 0h70v49l200 221q88 90 152.5 155.5t117.5 140t78 155.5q13 48 13 106q0 54 -17.5 102t-52.5 79q-31 30 -79.5 45.5t-96.5 15.5q-35 0 -77.5 -12t-57.5 -25q-38 -27 -55.5 -68.5t-34.5 -111.5l-45 -4q4 39 14 117t14 116q48 60 125.5 89.5t165.5 29.5q92 0 173 -34.5
t122 -100.5q53 -82 53 -188q0 -95 -45 -185q-29 -51 -59.5 -90.5t-68 -80t-86 -89t-89.5 -88.5l-192 -192h303q197 0 221 35.5t32.5 79t12.5 110.5h53q-24 -180 -24 -279q0 -32 8 -98q-131 4 -389 4q-262 0 -459 -4z" />
    <glyph glyph-name="three" unicode="3" horiz-adv-x="887" 
d="M90 45q34 83 82 250l33 -16q0 -3 -2 -9t-2 -8q0 -81 36 -137t115 -72q42 -8 58 -8q83 0 151 45.5t94 122.5q21 46 21 127q0 85 -36 151.5t-112 86.5q-48 8 -77 8q-72 0 -140 -33l-16 8l20 90q14 0 34 -2t28 -2q112 0 176.5 71t64.5 163q0 98 -69 155q-64 45 -143 45
q-52 0 -107 -20q-58 -24 -83 -61.5t-48 -114.5h-49l41 200q113 119 278 119q207 0 279 -127q37 -57 37 -123q0 -55 -24 -109t-65.5 -102.5t-91.5 -83.5q94 -18 156.5 -52.5t89.5 -106.5q17 -62 17 -99q0 -67 -26.5 -132.5t-72.5 -121.5q-50 -58 -113 -96.5t-135 -59
t-145 -20.5q-13 0 -35 2t-35 2q-60 9 -102.5 23.5t-81.5 46.5z" />
    <glyph glyph-name="four" unicode="4" horiz-adv-x="907" 
d="M311 0v53q1 0 13 -2t16 -2q52 0 100 8.5t60 28.5q20 36 20 135q0 23 -2 61t-2 46h-188q-103 0 -258 -9l-13 46q17 37 35.5 72t45.5 80.5t51.5 84.5t48.5 78l303 475l110 49l21 -8v-766h73q74 0 111 4l-4 -119q-45 4 -135 4h-45q0 -4 -2 -39t-2 -59q0 -120 28 -143
q23 -17 69.5 -19.5t86.5 -5.5v-53q-90 8 -270 8q-181 0 -271 -8zM532 1024l-372 -594h364q0 200 8 594z" />
    <glyph glyph-name="five" unicode="5" horiz-adv-x="887" 
d="M160 287h33v-13q0 -81 40 -142.5t119 -74.5q12 0 29 -2t25 -2q75 0 139 41.5t101.5 111t37.5 146.5q0 136 -76 219.5t-186 83.5q-58 0 -112.5 -24t-108.5 -78l-29 8q12 289 12 578l49 45q172 -8 263 -8q98 0 286 8q-8 -54 -24 -152q-34 0 -98 2t-95 2h-311
q-16 -236 -16 -356q55 43 119.5 66.5t134.5 23.5q69 0 135 -25q100 -32 154.5 -118t54.5 -193q0 -36 -17 -115q-32 -103 -103.5 -179.5t-169 -118t-206.5 -46.5h-37q-143 0 -225 66q65 191 82 246z" />
    <glyph glyph-name="six" unicode="6" horiz-adv-x="887" 
d="M266 586q28 23 57 46t62.5 42.5t71.5 31t88 11.5q77 0 142 -28t104 -87q53 -76 53 -201v-41q-6 -111 -63.5 -203.5t-157.5 -140.5q-85 -41 -177 -41q-116 0 -196 62q-85 64 -118.5 167t-33.5 234q0 141 42 264.5t122.5 225.5t192 173.5t245.5 106.5l58 -28v-13
q-230 -81 -351.5 -217.5t-140.5 -363.5zM393 602q-61 -21 -90.5 -49t-41 -68t-11.5 -100q0 -128 55 -238t166 -110q68 0 121 44t80.5 112.5t27.5 138.5q0 78 -16 127q-16 46 -50 81.5t-80 54.5t-91 19q-32 0 -70 -12z" />
    <glyph glyph-name="seven" unicode="7" horiz-adv-x="928" 
d="M139 4l410 672q35 60 96.5 166t104.5 190h-373q-93 0 -129 -5.5t-52 -24.5t-19 -45t-17 -150l-41 8v369q262 -8 385 -8q131 0 385 8l-4 -58l-262 -483q-203 -369 -312 -659q-5 0 -20 2t-25 2q-19 0 -58 -2t-56 -2z" />
    <glyph glyph-name="eight" unicode="8" horiz-adv-x="887" 
d="M328 606q-67 40 -108 77t-65 85.5t-24 112.5q0 91 51.5 163.5t133 114t167.5 41.5q70 0 143 -30t121 -87t48 -129q0 -157 -217 -282q95 -53 142.5 -86t81.5 -89.5t34 -140.5q0 -95 -60.5 -182.5t-154.5 -140.5t-187 -53q-82 0 -163.5 40t-133 111.5t-51.5 159.5
q0 74 30 132.5t81.5 101.5t130.5 81zM459 33q65 0 120 36.5t88 95t33 114.5q0 109 -84 173.5t-223 129.5q-83 -54 -127.5 -134t-44.5 -161q0 -66 29 -124.5t84 -94t125 -35.5zM459 1147q-85 0 -139 -55t-54 -138q0 -68 36.5 -116t89.5 -79.5t128 -62.5q66 40 105 108.5
t39 141.5q0 86 -53.5 143.5t-151.5 57.5z" />
    <glyph glyph-name="nine" unicode="9" horiz-adv-x="887" 
d="M668 594l-60 -48t-60.5 -41.5t-71.5 -29.5t-91 -12q-104 0 -180 53q-61 41 -88 110.5t-27 151.5q0 13 2 39t2 39q14 101 71.5 183t145.5 124q80 41 172 41q82 0 154 -32t117 -95q82 -114 82 -323v-54q-9 -185 -85 -330t-209 -244t-309 -155l-69 29l4 12
q226 72 351.5 213.5t148.5 368.5zM651 651q33 37 33 144q0 87 -18.5 153t-51 109t-74 64.5t-85.5 21.5q-58 0 -107 -34.5t-79.5 -102t-30.5 -158.5q0 -49 4 -74q7 -59 38.5 -109t78.5 -77t104 -27q7 0 19.5 2t25.5 5.5t20 4.5q82 24 123 78z" />
    <glyph glyph-name="colon" unicode=":" horiz-adv-x="453" 
d="M303 0q-40 0 -73 33t-33 73q0 39 33 71t73 32q37 0 70 -32t33 -71q0 -40 -33 -73t-70 -33zM303 819q37 0 70 -32t33 -70q0 -40 -33.5 -73.5t-69.5 -33.5q-39 0 -72.5 33.5t-33.5 73.5q0 38 33 70t73 32z" />
    <glyph glyph-name="semicolon" unicode=";" horiz-adv-x="453" 
d="M197 721q0 40 33 71t73 31q37 0 70 -31t33 -71t-33.5 -71.5t-69.5 -31.5q-39 0 -72.5 31.5t-33.5 71.5zM205 184q21 5 78.5 22t93.5 27l24 -24q-63 -210 -262 -447l-65 -24l-25 12q71 118 109 218t47 216z" />
    <glyph glyph-name="less" unicode="&#x3c;" horiz-adv-x="1305" 
d="M1262 967v-107l-844 -344l844 -344v-106l-996 409v86z" />
    <glyph glyph-name="equal" unicode="=" horiz-adv-x="1321" 
d="M258 729h1012v-98h-1012v98zM258 406h1012v-99h-1012v99z" />
    <glyph glyph-name="greater" unicode="&#x3e;" horiz-adv-x="1305" 
d="M266 967l996 -406v-86l-996 -409v106l844 344l-844 344v107z" />
    <glyph glyph-name="question" unicode="?" horiz-adv-x="756" 
d="M283 106q0 41 31 72t71 31t71 -31t31 -72q0 -40 -31 -71t-71 -31t-71 31t-31 71zM176 1147q47 30 110 47.5t115 17.5q88 0 160.5 -37.5t114 -101.5t41.5 -135q0 -81 -45.5 -148.5t-139 -150t-122.5 -111.5t-29 -69q0 -30 20.5 -52t69.5 -63l-98 -49q-78 50 -78 123
q0 49 32.5 103t100 140t98.5 136t31 96q0 91 -62.5 148t-154.5 57q-77 0 -111.5 -38t-64.5 -122l-49 8z" />
    <glyph glyph-name="at" unicode="@" horiz-adv-x="1681" 
d="M950 815q-95 -11 -169.5 -149.5t-96.5 -264.5q-1 -9 -4 -26.5t-5.5 -35.5t-2.5 -28q0 -58 24 -102q38 -62 111 -62q31 0 57 13q50 22 93.5 72.5t77 118t52.5 143t19 137.5q0 82 -32.5 133t-98.5 51h-25zM1143 119q-46 19 -68.5 63.5t-25.5 104.5q-113 -181 -263 -181
q-24 0 -36 5q-64 7 -110 49.5t-68.5 103.5t-22.5 125q0 18 3 30t9 44q15 79 55.5 149t98.5 124t123 85t125 31q64 0 114.5 -41.5t73.5 -126.5l45 156h119l-144 -516q-12 -43 -12 -86q0 -95 70 -95q22 0 65 17q118 45 191 153.5t92 239.5q8 37 8 102q0 112 -40.5 210.5
t-119.5 171t-188 110.5q-105 41 -238 41q-144 0 -278 -52t-234 -149q-190 -184 -217 -463q-8 -56 -8 -98q0 -65 13 -132t36 -122q52 -119 152 -201t227 -123t260 -41q27 0 119 9q51 6 107 21.5t104 36t87 43t108 67.5l24 -33q-102 -74 -207.5 -118.5t-226.5 -61.5
q-45 -4 -135 -4q-72 0 -153 12t-150.5 35.5t-134 60.5t-119.5 88q-105 96 -157 221t-52 262q0 97 26 194.5t77 186.5t122 160q121 118 275 180t319 62q67 0 160 -17q106 -18 195 -65.5t153.5 -120t101 -168.5t37.5 -203q-7 -147 -59.5 -272t-157.5 -207q-100 -70 -192 -70
q-39 0 -78 13z" />
    <glyph glyph-name="A" unicode="A" horiz-adv-x="1284" 
d="M0 0h49v53q61 7 86 33q16 20 26.5 39.5t19 39t23.5 57l21 52.5l393 951q5 8 25 8q25 0 25 -8l417 -1028q1 -2 19 -47t30.5 -60t33.5 -22.5t65 -14.5v-53q-140 8 -213 8t-213 -8v53q80 4 105.5 11t25.5 38q0 29 -16 78l-111 303h-410l-114 -295q-21 -58 -21 -82
q0 -32 27 -41t100 -12v-53q-122 8 -188 8q-20 0 -79.5 -2.5t-125.5 -5.5zM430 561h348l-172 434z" />
    <glyph glyph-name="B" unicode="B" horiz-adv-x="1075" 
d="M393 709h78q149 0 238.5 47t89.5 186q0 110 -75 155.5t-192 45.5q-49 0 -131 -8q-8 -90 -8 -131v-295zM393 643v-561q67 -12 135 -12q148 0 236 70t88 229q0 120 -55.5 180.5t-140 77t-205.5 16.5h-58zM78 1212q148 -8 221 -8q99 0 287 8h41q103 0 180.5 -21.5
t122.5 -88.5q41 -63 41 -135q0 -80 -49 -152q-73 -88 -226 -127q121 -15 191 -44.5t117 -115.5q28 -50 28 -131q0 -49 -14.5 -98.5t-40.5 -92.5t-59 -75q-85 -76 -175 -103.5t-202 -27.5q-33 0 -100 4t-101 4h-29q-27 0 -80 -4t-79 -4v41q44 17 57 41q20 24 20 147v770
q0 78 -8 107.5t-38 38t-105 10.5v57z" />
    <glyph glyph-name="C" unicode="C" horiz-adv-x="1247" 
d="M1171 164l21 -8l-49 -90q-180 -91 -369 -91q-11 0 -34.5 2.5t-43.5 2.5q-174 13 -308 96.5t-205.5 222t-71.5 315.5q0 166 66.5 297t189 214t288.5 104q45 4 131 4q198 0 402 -70q-35 -126 -41 -262h-45q-4 49 -12 139q-77 59 -167 91t-182 32q-32 0 -90 -8
q-122 -17 -204 -89.5t-121 -179t-39 -231.5q0 -144 54.5 -270t158.5 -208t250 -103q13 0 42 -2t44 -2q186 0 335 94z" />
    <glyph glyph-name="D" unicode="D" horiz-adv-x="1378" 
d="M135 0v45q62 30 74 57q16 44 16 115v811q0 62 -10.5 87t-39 32.5t-97.5 7.5v53q39 0 119 -2t118 -2h82q180 8 279 8q121 0 209 -16q139 -28 240 -103t153.5 -185t52.5 -236q0 -95 -33 -205q-25 -82 -65.5 -150.5t-98.5 -127t-128.5 -100t-153.5 -64.5q-126 -25 -258 -25
q-23 0 -65 2t-62 2h-123q-139 0 -209 -4zM389 217q0 -82 4 -123q110 -20 201 -20q117 0 218.5 33t176 101t116.5 175t42 248q0 508 -541 508q-56 0 -213 -17q-4 -49 -4 -151v-754z" />
    <glyph glyph-name="E" unicode="E" horiz-adv-x="1059" 
d="M152 0v49q54 18 72 49t18 86v856q0 56 -12.5 80t-41 30.5t-94.5 8.5v53q230 -8 348 -8q151 0 455 8q74 0 74 -36q0 -37 -8 -95v-143h-50q-5 70 -9.5 102t-22.5 66q-49 17 -123 25t-164 8q-92 0 -180 -9q-8 -90 -8 -143v-291q0 -45 49 -45q9 0 35 4t38 4q11 0 36 -2t34 -2
q47 0 143 17q45 8 55.5 33t10.5 73v17q0 2 2 8t2 8h53q-4 -61 -4 -193q0 -131 4 -196h-53q-2 72 -5.5 97t-27 42t-82.5 21q-65 4 -192 4h-62q-20 0 -28 -6.5t-8 -30.5v-467h327q109 0 148.5 13t50.5 48.5t26 155.5h54q-2 -43 -9.5 -123.5t-7.5 -134.5q0 -6 2 -18t2 -15
q-146 -8 -217 -8q-36 0 -110 2t-111 2q-23 0 -72 2t-71 2q-94 0 -266 -8z" />
    <glyph glyph-name="F" unicode="F" horiz-adv-x="981" 
d="M242 1032q0 62 -12 86t-35.5 29.5t-100.5 11.5v53q119 -4 357 -4q229 0 344 4h94q45 0 45 -57v-25q-8 -61 -8 -192h-49q-4 56 -9.5 95t-23.5 73q-96 33 -258 33q-84 0 -172 -9q-8 -90 -8 -143v-303q0 -37 45 -37q10 0 35 2t34 2h70q74 0 139 13q39 8 52.5 35t13.5 71v37
h57q-4 -49 -4 -152q0 -87 8 -249h-53q-3 25 -6 66.5t-10.5 59t-31 28t-75.5 13.5q-78 9 -234 9q-40 0 -40 -37v-316q0 -67 5.5 -99.5t22 -48t49 -20.5t95.5 -8v-53q-164 8 -254 8q-82 0 -254 -8v53q82 2 117 13.5t45 43.5t10 115v807z" />
    <glyph glyph-name="G" unicode="G" horiz-adv-x="1341" 
d="M1229 66q-243 -91 -463 -91h-66q-247 14 -405.5 161.5t-179.5 391.5q0 13 -2 35t-2 35q0 112 34.5 216t100 187.5t158.5 140.5t206 79q132 16 193 16q108 0 217.5 -20.5t212.5 -57.5q-31 -127 -37 -262h-49q0 45 -8 143q-88 61 -184.5 92t-192.5 31q-129 0 -236 -60.5
t-169 -179.5t-62 -288q0 -158 64.5 -298t189.5 -218q117 -70 254 -70q122 0 258 53q8 116 8 172q0 70 -4 107q0 23 -10.5 30.5t-38.5 10.5q-45 8 -135 8v53q30 0 95 -4t97 -4q21 0 63 2t84.5 5.5t65.5 4.5v-49q-17 -9 -31.5 -16t-21.5 -17.5t-8 -31.5q-8 -82 -8 -123
q0 -42 4.5 -90t7.5 -94z" />
    <glyph glyph-name="H" unicode="H" horiz-adv-x="1473" 
d="M406 229q0 -53 6.5 -83.5t23 -50t50.5 -29.5t87 -13v-53q-172 8 -245 8q-90 0 -246 -8v53q82 5 112 16t39 43t9 113v783q0 70 -10.5 98t-40.5 36t-113 13v53q40 0 117 -2t116 -2q40 0 127 2t131 2v-53q-76 0 -109 -9t-43.5 -37.5t-10.5 -92.5v-328q118 -4 348 -4
q229 0 348 4v320q0 70 -10.5 98t-40.5 36t-113 13v53q37 0 115 -2t114 -2q42 0 129 2t134 2v-53q-78 -2 -112 -12t-43 -41.5t-9 -114.5v-758q0 -71 11.5 -106t44.5 -50t108 -20v-53q-164 8 -234 8t-258 -8v53q74 2 108.5 11.5t45 37.5t10.5 95v405q-119 4 -348 4
q-230 0 -348 -4v-373z" />
    <glyph glyph-name="I" unicode="I" horiz-adv-x="625" 
d="M410 229q0 -71 11.5 -106t45 -50t106.5 -20v-53q-154 8 -241 8q-78 0 -250 -8v53q86 5 117 16t39 41t8 115v783q0 70 -10.5 98t-40.5 36t-113 13v53q39 0 117 -2t116 -2q40 0 127 2t131 2v-53q-79 -2 -112 -12t-42 -41.5t-9 -114.5v-758z" />
    <glyph glyph-name="J" unicode="J" horiz-adv-x="567" 
d="M266 33v975q0 70 -10.5 98t-39.5 36t-114 13v53q37 0 115 -2t115 -2q42 0 129 2t133 2v-53q-78 -2 -112 -12t-43 -41.5t-9 -114.5v-733q0 -104 -7 -175t-29.5 -134t-72 -122t-128.5 -110q-7 -7 -52 -24t-75 -17q-33 0 -33 29v4q3 58 9 78t19 20q7 0 32 -6t46 -6h13
q114 0 114 172v70z" />
    <glyph glyph-name="K" unicode="K" horiz-adv-x="1321" 
d="M406 627q58 36 131 102l303 303q60 60 83 89t23 79v8q23 0 67 -2t64 -2q25 0 76 2t72 2l4 -53q-69 -4 -117 -23.5t-82 -46.5t-108 -94l-349 -323l562 -537q28 -28 45 -42.5t39.5 -24.5t54.5 -11v-53q-45 4 -123 4q-82 0 -123 -4l-598 582l-24 -9v-372q0 -52 6.5 -79
t22 -41t46 -19.5t92.5 -8.5v-53q-172 8 -245 8q-90 0 -246 -8v53q82 5 112 16t39 43t9 113v783q0 70 -10.5 98t-40.5 36t-113 13v53q40 0 117 -2t116 -2q40 0 127 2t131 2v-53q-76 0 -109 -9t-43.5 -37.5t-10.5 -92.5v-389z" />
    <glyph glyph-name="L" unicode="L" horiz-adv-x="1075" 
d="M406 82h327q75 0 118 8t63.5 29.5t32.5 61t28 130.5l53 -4q-24 -196 -29 -299q-91 -12 -192 -12q-45 0 -137 4t-138 4h-139q-164 0 -241 -4v49q54 18 72 49t18 86v828q0 68 -10.5 95t-40.5 35t-113 13v53q40 0 117 -2t116 -2q40 0 127 2t131 2v-53q-76 0 -109 -9
t-43.5 -37.5t-10.5 -92.5v-934z" />
    <glyph glyph-name="M" unicode="M" horiz-adv-x="1661" 
d="M0 0h70v61q1 0 10 -2t14 -2q78 0 107 33q13 19 18.5 100.5t5.5 153.5l13 655q0 71 -10.5 100.5t-45 39.5t-112.5 12v57q29 0 83 -2t80 -2q28 0 81 2t79 2q58 -131 84.5 -188t75.5 -156l295 -606l291 606q47 101 151 344q24 0 76 -2t76 -2q28 0 88 2t88 2v-53
q-70 -4 -93 -6.5t-39 -15t-22 -39.5t-6 -86v-762q0 -105 27 -141.5t133 -43.5v-61q-156 8 -234 8q-77 0 -233 -8v61q79 0 107.5 9.5t36.5 40.5t8 110v799l-361 -762q-82 -180 -115 -270h-36q-24 54 -36.5 81.5t-32.5 72t-38 83.5l-373 779l4 -705q0 -24 -2 -62t-2 -53
q0 -40 5.5 -62.5t23 -36t52.5 -19t87 -5.5v-61q-122 8 -196 8q-26 0 -107 -2.5t-176 -5.5z" />
    <glyph glyph-name="N" unicode="N" horiz-adv-x="1399" 
d="M311 328q0 -193 17 -238q5 -29 90 -29h45v-61q-124 8 -193 8q-66 0 -196 -8v66q9 0 24 -2.5t25 -2.5q57 0 82 29q15 22 21 75t8.5 138t3.5 94v697q-29 38 -54 45.5t-98 15.5v53q24 0 73 -2t74 -2q26 0 75 2t73 2q34 -49 96.5 -134t117.5 -154.5t114 -141.5l483 -585v765
q0 105 -16 160q-10 29 -95 29h-45v61q36 0 105 -4t100 -4q32 0 95 4t94 4v-61h-54q-63 0 -78 -25q-28 -43 -28 -250q0 -16 -2 -41t-2 -24v-655q0 -115 4 -172l-13 -5l-127 29q-53 68 -159 200t-160 197l-500 615v-688z" />
    <glyph glyph-name="O" unicode="O" horiz-adv-x="1456" 
d="M123 602q0 142 49 257.5t139 200.5t209.5 129t257.5 44h58q128 -7 232 -52.5t177.5 -122.5t113.5 -183t42 -236q0 -155 -57 -280t-156 -212.5t-219 -131.5t-244 -44q-160 0 -297.5 70.5t-221 214t-83.5 346.5zM627 1155q-117 -29 -190 -102.5t-105.5 -174t-32.5 -219.5
q0 -41 8 -131q46 -284 221 -401q118 -78 254 -78q65 0 131 21q161 49 234.5 189t73.5 323q0 84 -13 155q-21 129 -82 226t-156.5 150.5t-211.5 53.5q-63 0 -131 -12z" />
    <glyph glyph-name="P" unicode="P" 
d="M0 0h94v61q77 0 109.5 6.5t43.5 32t11 88.5v766q0 24 2 59t2 48q0 42 -11 60t-42 25.5t-107 12.5v49q35 0 107 -2t106 -2q30 0 87 2t85 2q21 0 76 2t84 2q304 0 377 -151q29 -67 29 -123q0 -83 -44 -161.5t-112 -125.5q-102 -73 -242 -73q-25 0 -55 4.5t-59 7.5l-21 61
q28 -6 57.5 -13t53.5 -7q124 0 185 87t61 179q0 12 -2.5 29.5t-2.5 27.5q-17 100 -91.5 144.5t-182.5 44.5q-96 0 -168 -25q-8 -66 -8 -98v-803q0 -85 7 -113.5t32.5 -37.5t95.5 -9q2 0 13 2t12 2v-61q-172 8 -267 8q-24 0 -112.5 -2.5t-202.5 -5.5z" />
    <glyph glyph-name="Q" unicode="Q" horiz-adv-x="1456" 
d="M1245 -299q-41 1 -91 12t-88.5 23.5t-98.5 34.5q-15 4 -84 26.5t-110.5 34t-80.5 16.5h-12q-25 0 -50.5 -11t-48.5 -26.5t-49 -31.5v57q66 58 112.5 92t100.5 47h-32q-142 0 -258.5 52.5t-195.5 154.5t-112 244q-24 91 -24 180q0 133 45.5 247t131 199.5t204 132.5
t262.5 48q181 0 326.5 -72.5t227 -205t81.5 -304.5q0 -11 -2 -38t-2 -40q-9 -103 -47.5 -200t-105.5 -174.5t-159 -128.5q-50 -31 -98.5 -48.5t-101.5 -28.5t-119 -18q77 -4 303 -98q139 -49 229 -49q58 0 86 4v-41q-49 -24 -139 -90zM307 528q46 -284 221 -401
q118 -78 254 -78q65 0 131 21q161 49 234.5 189t73.5 323q0 84 -13 155q-21 129 -82 226t-156.5 150.5t-211.5 53.5q-63 0 -131 -12q-117 -29 -190 -102.5t-105.5 -174t-32.5 -219.5q0 -41 8 -131z" />
    <glyph glyph-name="R" unicode="R" horiz-adv-x="1227" 
d="M0 0h90v57q81 7 109 15.5t35.5 36.5t7.5 116v832q0 48 -9 65t-31.5 22t-103.5 11v53q37 0 109 -2t108 -2h70q114 8 221 8q220 0 299 -69q38 -31 58 -82t20 -107q0 -69 -25 -123q-64 -144 -270 -213l303 -397q32 -47 56.5 -82t55.5 -60.5t73 -25.5v-53q-74 8 -111 8
t-111 -8q-86 122 -147 205l-193 258q-49 67 -75.5 101.5t-59.5 58.5v28q88 0 165.5 31.5t124 94t46.5 153.5q0 77 -36.5 125t-93.5 68t-128 20q-72 0 -151 -21q0 -42 -2.5 -93t-2.5 -83v-717q3 -91 11 -121.5t38 -40.5t115 -10v-57q-78 4 -237 4q-156 0 -328 -4z" />
    <glyph glyph-name="S" unicode="S" horiz-adv-x="928" 
d="M119 37q16 120 16 274l58 -4q0 -119 32 -160q49 -68 201 -77h37q168 0 237 102q45 70 45 160q0 80 -45 131q-30 36 -86 57t-115.5 31t-140 27t-120.5 40q-59 35 -95.5 102t-36.5 136q0 61 21 119q42 132 147.5 195t245.5 63q159 0 299 -70q-24 -156 -24 -241l-54 -4
q-3 40 -5 64t-7.5 50.5t-19.5 48.5q-28 44 -85.5 63t-119.5 19q-65 0 -120.5 -26t-88.5 -76q-45 -67 -45 -143q0 -83 49 -132q38 -38 87 -55.5t134 -32.5t143 -27.5t99 -35.5q123 -67 123 -234q0 -73 -25 -139q-33 -86 -102 -149.5t-160 -97t-184 -35.5h-29q-117 0 -266 57z
" />
    <glyph glyph-name="T" unicode="T" 
d="M315 0v61q5 0 13 -2t12 -2q68 0 96 7.5t37.5 33t9.5 86.5v942h-131q-53 0 -143 -8q-46 -6 -57 -45q-7 -24 -17 -147h-49v114q0 30 -2 86t-2 82q73 -12 160 -12q13 0 42 2t44 2h471q14 0 42 -2t40 -2q89 0 163 12q-4 -61 -4 -188v-94h-49q-8 104 -20 147q-11 39 -53 45
q-50 8 -148 8h-127v-901q0 -61 8 -94.5t31.5 -51.5t71.5 -18h57v-61q-172 8 -270 8q-152 0 -226 -8z" />
    <glyph glyph-name="U" unicode="U" horiz-adv-x="1284" 
d="M233 414v606q0 69 -10.5 95t-38.5 32t-102 8v53q38 0 111 -2t110 -2q40 0 125 2t129 2v-53q-66 -2 -95 -7t-43.5 -20t-19 -44.5t-6.5 -96.5v-569q0 -95 19.5 -161t83.5 -105q86 -66 241 -66q365 0 365 414v458q0 148 -29 172q-24 25 -110 25h-25v53q30 0 95 -2t97 -2
q35 0 107 2t106 2v-53h-36q-70 0 -95 -25q-32 -32 -32 -204v-434q0 -120 -14.5 -205.5t-67.5 -155.5q-44 -58 -110.5 -92.5t-144.5 -49t-155 -14.5q-82 0 -158 14t-142.5 50.5t-104.5 99.5q-21 37 -30.5 80t-13 95.5t-6.5 99.5z" />
    <glyph glyph-name="V" unicode="V" horiz-adv-x="1227" 
d="M618 -8q-16 56 -39.5 118t-46.5 119l-311 799q-30 81 -51.5 102.5t-99.5 24.5v53q138 -8 204 -8q39 0 121 4t121 4v-57h-53q-69 0 -78 -29q-4 -4 -4 -20q0 -36 45 -160l279 -717l270 684q53 128 53 176q0 29 -12 41q-13 10 -33.5 15t-48.5 6.5t-49 3.5v57q26 0 77 -2
t78 -2q35 0 107 2t106 2v-57h-24q-45 0 -62 -16q-13 -12 -28 -41.5t-29.5 -67t-24.5 -63.5l-290 -717q-22 -55 -30 -74.5t-20 -51t-23.5 -64t-21.5 -64.5h-82z" />
    <glyph glyph-name="W" unicode="W" horiz-adv-x="1702" 
d="M430 -8q-12 68 -19.5 106t-19 95.5t-22.5 109.5l-164 725q-13 58 -25 83t-38.5 34t-80.5 10v53q33 0 101 -4t100 -4q40 0 116 4t109 4v-53h-49q-69 0 -78 -25q-8 -16 -8 -28q0 -21 6.5 -53t14 -59t12.5 -44l147 -672q173 429 369 951h53q30 -88 45 -132.5t38 -112
t53 -157.5l200 -557l160 574q7 25 21 73t25 94.5t11 82.5q0 24 -8 40q-16 25 -94 25h-33v53q30 0 87 -4t85 -4q32 0 94 4t91 4v-53q-62 0 -82 -20q-19 -17 -42 -79.5t-32 -105.5l-180 -614q-22 -76 -36.5 -130.5t-26.5 -105.5t-23 -108h-90q-20 68 -41 131t-32 94t-30 82
l-233 635l-238 -586q-69 -183 -123 -356h-90z" />
    <glyph glyph-name="X" unicode="X" horiz-adv-x="1190" 
d="M0 0h70v53q45 4 70 15.5t40 29t53 70.5l316 438l-217 352q-81 140 -135 160q-21 8 -66 8h-37v54l176 28q7 0 23 2t22 2q35 0 58 -16q27 -21 59 -76.5t72 -132.5l143 -250l320 471q12 0 39 -2t38 -2q14 0 45 2t46 2v-45q-38 -4 -68.5 -19t-51.5 -36t-55 -68.5t-38 -52.5
l-234 -311l303 -500q29 -46 45.5 -68.5t42.5 -34.5t68 -16v-57q-37 4 -107 4q-98 0 -147 -4q-39 82 -115 205l-188 327l-164 -233q-52 -77 -83.5 -130.5t-96.5 -168.5q-29 4 -86 4q-62 0 -160 -4z" />
    <glyph glyph-name="Y" unicode="Y" horiz-adv-x="1169" 
d="M385 0v61q6 0 20 -2t17 -2q76 0 103.5 23.5t27.5 107.5v328q-213 397 -336 541q-34 44 -68 59.5t-92 18.5v53q14 1 79.5 17t105.5 16q38 0 73 -21q41 -30 107.5 -139t133.5 -239t108 -216q78 128 129 211t97 160t118 207q16 24 32 24q12 0 29 2t25 2q11 0 40 -2t42 -2
q-119 -139 -291 -391t-172 -338v-303q0 -74 12 -90q19 -29 115 -29q7 0 19 2t13 2v-61q-77 8 -233 8q-172 0 -254 -8z" />
    <glyph glyph-name="Z" unicode="Z" horiz-adv-x="1169" 
d="M74 4v49l827 1069h-426q-190 0 -205 -28q-13 -18 -20 -48.5t-9 -68t-3 -55.5h-54q4 49 4 143q0 98 -4 143q84 -2 125.5 -3.5t117 -3.5t140.5 -3.5t129 -1.5q56 1 113 2t110.5 2.5t97 3.5t113.5 4v-57l-827 -1065h504q207 0 229 37q24 35 30 72t11 116h53q-1 -25 -4 -76
t-5.5 -101.5t-2.5 -76.5v-57q-50 1 -126.5 2.5t-154 3t-154.5 2t-179 0.5q-287 0 -430 -4z" />
    <glyph glyph-name="bracketleft" unicode="[" horiz-adv-x="453" 
d="M193 -352q12 141 12 286v1024q0 168 -8 250h151q127 0 193 4v-61h-49q-118 0 -132 -41q-20 -71 -20 -336v-758q0 -233 16 -274q11 -37 107 -37q13 0 38 2t31 2v-61h-339z" />
    <glyph glyph-name="backslash" unicode="\" horiz-adv-x="698" 
d="M37 1274h78l561 -1434h-82z" />
    <glyph glyph-name="bracketright" unicode="]" horiz-adv-x="494" 
d="M455 1212q-2 -47 -7.5 -135t-5.5 -151v-1028q0 -102 9 -250h-156q-123 0 -184 -4v61h57q91 0 115 28.5t24 377.5v704q0 123 -2 199.5t-10 99.5q-14 33 -123 33h-57v65q57 -4 168 -4q114 0 172 4z" />
    <glyph glyph-name="asciicircum" unicode="^" horiz-adv-x="1473" 
d="M831 1237h152l438 -479h-78l-438 368l-438 -368h-78z" />
    <glyph glyph-name="underscore" unicode="_" horiz-adv-x="987" 
d="M41 -307h864v-99h-864v99z" />
    <glyph glyph-name="grave" unicode="`" horiz-adv-x="547" 
d="M442 877l-225 139q-53 30 -75.5 51t-22.5 43q0 23 16 38t41 15q19 0 33.5 -9t40.5 -36l250 -241h-58z" />
    <glyph glyph-name="a" unicode="a" horiz-adv-x="907" 
d="M737 197q0 -75 21.5 -108t93.5 -36v-53q-41 4 -127 4t-127 -4v143l-152 -114q-62 -45 -147 -45q-60 0 -110.5 30t-69.5 84q-17 43 -17 95q0 64 28.5 121.5t82.5 91.5q73 48 153.5 65.5t227.5 36.5q0 66 -22.5 118t-69.5 81.5t-117 29.5q-87 0 -117 -30t-51 -117l-49 8
l4 119q81 51 147.5 80.5t139.5 29.5q101 0 162.5 -33t88.5 -98.5t27 -163.5v-335zM594 455q-94 -13 -168 -33.5t-131 -67.5t-57 -125q0 -54 43.5 -98.5t95.5 -44.5q109 0 217 135v234z" />
    <glyph glyph-name="b" unicode="b" horiz-adv-x="965" 
d="M160 156v888q0 59 -8 80t-32 26t-91 5v49q122 11 266 66l20 -13q0 -38 -4 -116t-4 -117v-369q62 58 102 91.5t86 53t103 19.5q53 0 78 -4q82 -14 137.5 -64t82 -122.5t26.5 -153.5q0 -106 -41 -205q-36 -74 -126.5 -152t-168.5 -110q-52 -28 -127 -28q-57 0 -112.5 18
t-100.5 51l-66 -61l-28 8q8 53 8 160zM307 541v-369q110 -98 217 -98q70 0 127 43t90 119t33 170q0 76 -29.5 145.5t-86 113.5t-130.5 44q-92 0 -168 -74q-13 -13 -33 -44.5t-20 -49.5z" />
    <glyph glyph-name="c" unicode="c" horiz-adv-x="813" 
d="M762 106l-37 -65q-62 -30 -124 -45.5t-126 -15.5q-118 0 -213 53q-80 48 -124 145t-44 207q0 133 66 246q32 54 120.5 108.5t161.5 75.5q55 12 107 12q104 0 209 -49q-10 -59 -14.5 -112t-10.5 -109h-45q-7 89 -22 117.5t-88 50.5q-58 16 -99 16q-80 0 -141 -43t-80 -125
q-12 -48 -12 -118q0 -101 35.5 -191t103.5 -141q39 -28 80.5 -40.5t83.5 -12.5q93 0 196 49z" />
    <glyph glyph-name="d" unicode="d" 
d="M901 172q0 -38 7.5 -62t25.5 -36t37 -15.5t73 -9.5v-49q-98 8 -147 8t-147 -8v152l-136 -119q-60 -49 -155 -49q-32 0 -74 8q-90 16 -151 74t-90 139.5t-29 171.5q0 76 20 151q58 184 311 279q44 16 107 16q53 0 104.5 -13t92.5 -36v307q0 49 -19.5 61.5t-66.5 12.5h-17
q-3 0 -14 2t-19 2v49q163 23 271 58l16 -13v-1081zM750 348v275q-36 53 -106.5 90t-139.5 37q-25 0 -33 -5q-108 -14 -160.5 -107t-52.5 -212q0 -9 2 -34t2 -36q18 -119 96.5 -188.5t169.5 -69.5q89 0 155.5 66.5t66.5 183.5z" />
    <glyph glyph-name="e" unicode="e" horiz-adv-x="870" 
d="M778 70q-115 -79 -229 -90h-53q-116 0 -208.5 45t-135.5 139q-46 103 -46 233q0 81 20 152t62 123q54 66 143.5 110.5t172.5 44.5q90 0 167.5 -38.5t119.5 -112.5q36 -74 36 -148v-20q0 -22 -44 -48.5t-78 -37.5q-50 -8 -74 -8q-7 0 -21 2t-20 2h-324q3 -125 47.5 -210
t149.5 -122q66 -16 106 -16q127 0 222 69l16 -8q-25 -42 -29 -61zM266 483q42 0 129 -2t133 -2q22 0 72 2t72 2v25q0 119 -43 188.5t-158 69.5q-197 0 -205 -283z" />
    <glyph glyph-name="f" unicode="f" horiz-adv-x="662" 
d="M0 0h82v49q58 5 80.5 10t34.5 17t16 35.5t4 81.5v483h-131v29q59 21 131 61q2 107 9 158t35 100.5t95 122.5q45 51 90.5 83t98.5 32q39 0 73 -17v-135l-20 -8q-47 45 -115 45q-5 0 -14 -2t-10 -2q-94 -10 -94 -144v-245q59 3 120.5 5t116.5 7l-12 -90h-221v-496
q0 -50 7.5 -73.5t25 -34.5t49 -15t77.5 -8v-49q-154 8 -233 8q-25 0 -109.5 -2.5t-185.5 -5.5z" />
    <glyph glyph-name="g" unicode="g" horiz-adv-x="1059" 
d="M303 20q-9 5 -33.5 16t-41.5 24.5t-24 30t-7 40.5q0 2 2 6t2 6q0 34 20.5 59t68 57.5t50.5 35.5l-4 8q-86 22 -135 88t-49 150q0 87 57 164q52 63 138 99t177 36q65 0 125 -20t101 -58h69q61 0 185 8l-33 -86h-176q16 -39 16 -94q0 -105 -61 -172q-100 -127 -332 -127
h-21q-49 -63 -49 -103q0 -34 44 -48t128 -17h107q150 0 236.5 -41.5t86.5 -175.5q0 -118 -71 -203t-182 -129.5t-230 -44.5q-188 0 -283 94q-78 78 -78 180q0 23 17 74q11 23 32 45t48.5 40t53 32t46.5 26zM504 348q81 9 124.5 62t43.5 135q0 6 -2 19t-2 18q-6 62 -35 108
t-72 69t-90 23q-70 0 -123 -51t-53 -141q0 -16 8 -58q9 -80 54.5 -132t121.5 -52h25zM242 -233q11 -86 88 -131.5t174 -45.5q77 0 151 29q62 30 103 79.5t53 113.5v36q0 67 -29 107q-24 34 -82 45.5t-139 11.5q-37 0 -103 -2t-85 -2q-64 -43 -99.5 -91.5t-35.5 -113.5
q0 -6 2 -18t2 -18z" />
    <glyph glyph-name="h" unicode="h" 
d="M217 172v885q0 52 -16 71t-54 19h-65v49q116 15 266 66l17 -5v-593q21 19 65.5 57t72.5 56.5t63.5 30t80.5 11.5q37 0 53 -4q91 -11 140.5 -54.5t66.5 -108.5t19 -160v-312q0 -58 8.5 -83.5t32 -34t86.5 -13.5v-49q-49 4 -156 4q-90 0 -131 -4q8 98 8 147v349
q0 217 -196 217q-100 0 -177 -82q-19 -19 -23.5 -44.5t-4.5 -66.5v-348q0 -47 4 -71t17 -34.5t37 -13t73 -4.5v-49q-156 8 -234 8q-62 0 -184 -8v49q74 6 93.5 10.5t28.5 28t9 84.5z" />
    <glyph glyph-name="i" unicode="i" horiz-adv-x="530" 
d="M274 1020q-23 0 -47 15.5t-39.5 39.5t-15.5 47q0 25 15.5 50.5t39 41t47.5 15.5q26 0 51 -15.5t40.5 -40.5t15.5 -51q0 -24 -15.5 -47.5t-41 -39t-50.5 -15.5zM70 49q74 0 102.5 16t28.5 78v447q0 56 -9.5 78t-33 27.5t-88.5 9.5v49q149 20 258 69l28 -8v-631
q0 -79 26 -107t105 -28v-49q-138 8 -217 8q-70 0 -200 -8v49z" />
    <glyph glyph-name="j" unicode="j" horiz-adv-x="473" 
d="M246 -37v643q0 50 -10.5 72.5t-35 28.5t-85.5 6v45q140 26 254 65l28 -16v-725q0 -153 -24.5 -271t-102 -199t-221.5 -91l-16 49q65 4 108.5 22t67.5 68q37 83 37 279v24zM315 1020q-40 0 -73 32t-33 70q0 41 33 74t73 33q25 0 48.5 -15.5t39 -41t15.5 -50.5
q0 -23 -15.5 -47t-39.5 -39.5t-48 -15.5z" />
    <glyph glyph-name="k" unicode="k" horiz-adv-x="1075" 
d="M360 172q0 -66 8 -88t33.5 -27.5t90.5 -7.5v-49q-148 8 -230 8q-66 0 -188 -8v49q65 4 82 7t29 12.5t16 33t4 70.5v885q0 57 -15.5 73.5t-54.5 16.5h-65v49q116 15 266 66l24 -5v-786q43 18 73 42.5t91 80.5l226 221q58 -8 172 -16v-45q-68 -5 -119.5 -34t-134.5 -93
l-168 -131l192 -193q127 -134 226 -209q33 -17 102 -24l4 -45q-111 -14 -213 -41l-451 450v-262z" />
    <glyph glyph-name="l" unicode="l" horiz-adv-x="530" 
d="M0 0h70v49q58 0 84 6t38.5 28.5t12.5 72.5v884q0 54 -8.5 74.5t-35 26.5t-91.5 6v49q149 26 266 66l29 -13q-5 -78 -5 -233v-832q0 -66 8 -91.5t34 -33.5t90 -10v-49q-148 8 -222 8q-23 0 -100 -2.5t-170 -5.5z" />
    <glyph glyph-name="m" unicode="m" horiz-adv-x="1567" 
d="M0 0h86v49q23 2 53 5t44.5 11t22 25t7.5 53v488q0 48 -23.5 63t-70.5 15h-33v45q124 11 250 65l29 -4v-143l64 60t59.5 48.5t62.5 28.5t80 10q150 0 237 -155q63 63 95 90.5t77 46t107 18.5q68 0 135.5 -37.5t93.5 -97.5q25 -53 25 -168v-356q0 -50 10 -72t29.5 -27.5
t83.5 -11.5v-49q-90 8 -140 8q-45 0 -135 -8v487q0 62 -19 113t-58.5 82t-102.5 31q-90 0 -139 -53.5t-49 -143.5v-323q0 -49 3.5 -77t17 -41t36 -16.5t82.5 -9.5v-49q-140 8 -213 8t-213 -8v49q71 5 96 12.5t34 31.5t9 83v344q0 94 -52.5 145.5t-123.5 51.5
q-76 0 -136.5 -51.5t-60.5 -133.5v-376q0 -52 12.5 -74.5t38.5 -27.5t85 -5v-49q-70 8 -205 8q-139 0 -291 -8z" />
    <glyph glyph-name="n" unicode="n" 
d="M217 172v434q0 99 -70 99h-65v49q146 26 266 65l21 -4l-4 -151q74 68 105.5 93t76 43.5t100.5 18.5q135 0 205.5 -94t73.5 -233v-312q0 -58 8.5 -83.5t32 -34t86.5 -13.5v-49q-49 4 -156 4q-90 0 -131 -4q8 98 8 147v349q0 217 -196 217q-100 0 -177 -82
q-19 -19 -23.5 -44.5t-4.5 -66.5v-348q0 -47 4 -71t17 -34.5t37 -13t73 -4.5v-49q-156 8 -234 8q-62 0 -184 -8v49q74 6 93.5 10.5t28.5 28t9 84.5z" />
    <glyph glyph-name="o" unicode="o" horiz-adv-x="965" 
d="M106 397q0 127 52.5 224.5t149.5 151.5t224 54q91 0 164 -29t124.5 -83t78.5 -127.5t27 -165.5q0 -93 -31.5 -176t-89 -143.5t-138 -94t-175.5 -33.5q-120 0 -208 54.5t-133 151t-45 216.5zM262 434q0 -150 68 -273.5t215 -123.5q113 0 169 97t56 231q0 156 -61 278.5
t-205 122.5q-97 0 -150.5 -45.5t-72.5 -118t-19 -168.5z" />
    <glyph glyph-name="p" unicode="p" horiz-adv-x="1059" 
d="M217 -319v909q0 74 -20.5 94.5t-85.5 20.5h-29v49q129 11 262 65h25l-4 -168q44 41 76.5 71.5t64 52t70 33t92.5 11.5q79 0 144.5 -26t110.5 -72t69 -107t24 -135q0 -20 -8 -78q-23 -132 -110 -222t-226 -154q-64 -33 -131 -33q-77 0 -172 45v-361l-4 -4
q0 -47 15.5 -66.5t36.5 -22.5t91 -5v-49q-148 8 -238 8q-66 0 -188 -8v49h29q57 0 81.5 19.5t24.5 83.5zM369 262q0 -71 22.5 -101t95.5 -55q61 -24 111 -24q74 0 132.5 39t92 108.5t37.5 155.5v33q0 99 -37 164t-96 96t-129 31q-59 0 -111.5 -24.5t-85 -71t-32.5 -105.5
v-246z" />
    <glyph glyph-name="q" unicode="q" horiz-adv-x="944" 
d="M860 -274q2 -73 10 -101t32 -35t106 -12v-49q-156 8 -246 8q-65 0 -197 -8v49q74 2 104 10t39 31.5t9 85.5v422l-189 -119q-30 -20 -90 -20q-57 0 -123 24q-97 36 -153 131.5t-56 192.5q0 73 14.5 151t43.5 127q36 67 135 119q78 43 138 64.5t124 21.5q73 0 160 -28
q53 -21 70 -21q18 0 73 49l33 -16q-16 -69 -24 -138.5t-10.5 -131t-2.5 -156.5v-651zM721 209v459q-50 41 -106 63.5t-107 22.5q-70 0 -129.5 -46.5t-94 -126.5t-34.5 -171q0 -102 59 -199.5t162 -112.5q4 0 17 -2t16 -2q62 0 121.5 31.5t95.5 83.5z" />
    <glyph glyph-name="r" unicode="r" horiz-adv-x="735" 
d="M221 172v401q0 61 -8 86.5t-36.5 35.5t-98.5 10l-4 45q140 12 262 65l29 -4v-180q32 36 60.5 72t54 60.5t53.5 38t65 13.5q20 0 86 -16q-12 -105 -12 -213h-41q-45 82 -115 82q-6 0 -18 -2t-19 -2q-32 -9 -60 -41t-38 -66q-12 -43 -12 -86v-287q0 -62 10.5 -88.5
t44 -35.5t104.5 -11v-49q-73 8 -225 8q-151 0 -229 -8v49q67 0 98 10t40 34.5t9 78.5z" />
    <glyph glyph-name="s" unicode="s" horiz-adv-x="735" 
d="M111 12q20 82 20 201v41h49q0 -107 48.5 -162t156.5 -55q105 0 156 74q24 36 24 86q0 55 -37 86q-35 33 -157.5 67t-187 74t-64.5 137q0 63 46.5 123.5t116 97.5t132.5 37q116 0 213 -33q-9 -101 -9 -139v-61h-40q-2 23 -3.5 45t-5 36.5t-12.5 28.5q-28 32 -75.5 51
t-92.5 19q-69 0 -114.5 -42.5t-45.5 -92.5q0 -59 54 -94q37 -24 105 -40.5t128 -32t102 -46.5q70 -46 70 -144q0 -85 -45 -155q-79 -139 -295 -139q-91 0 -237 32z" />
    <glyph glyph-name="t" unicode="t" horiz-adv-x="641" 
d="M209 209v467h-123v33q55 15 131 57q0 43 -2 128t-2 126q75 33 135 70l25 -17q-13 -106 -13 -319q39 2 115 6t115 6l-8 -90h-226v-389q0 -112 25.5 -158.5t97.5 -46.5q7 0 28.5 2.5t40 5.5t34.5 4l8 -20q-51 -45 -95.5 -67.5t-97.5 -22.5h-45q-82 8 -112.5 69t-30.5 156z
" />
    <glyph glyph-name="u" unicode="u" 
d="M205 217v373q0 60 -9 82t-28 26.5t-90 10.5v45q158 20 266 69l25 -12q-13 -107 -13 -225v-303q0 -97 37 -147t119 -50t129.5 31t87.5 88q21 28 21 98v320q0 52 -20 69t-62 17h-62v45q86 11 151 25t132 44l20 -8q-8 -156 -8 -237v-398q2 -64 12 -89t31.5 -30.5t95.5 -11.5
v-49q-90 8 -135 8q-49 0 -147 -8v143q-76 -64 -112 -93t-85 -49.5t-115 -20.5q-241 0 -241 237z" />
    <glyph glyph-name="v" unicode="v" horiz-adv-x="1022" 
d="M463 -8q-66 164 -98 241l-172 390q-24 52 -31.5 69t-18 29.5t-30 20.5t-56.5 12v49q124 -8 189 -8q73 0 205 8v-49q-66 -3 -92.5 -12.5t-26.5 -32.5q0 -16 28 -95l189 -454l176 409q4 10 15.5 42t18.5 57.5t7 40.5v12q-7 15 -28.5 21.5t-48 8.5t-38.5 3v49q108 -8 156 -8
q52 0 160 8v-49q-18 -2 -31 -4t-26 -6t-25 -15q-32 -32 -103 -201l-135 -307q-22 -49 -98 -229h-86z" />
    <glyph glyph-name="w" unicode="w" horiz-adv-x="1493" 
d="M393 -16l-160 544q-3 12 -19.5 74.5t-30 88t-42 42.5t-80.5 21v49q132 -8 193 -8q73 0 213 8v-49q-70 0 -96.5 -11.5t-26.5 -42.5q0 -25 21 -98l122 -414l275 623h37q28 -70 55.5 -137t30.5 -76l164 -422l135 356q5 12 15.5 45t18 65t7.5 54q0 25 -8 33q-13 9 -26 12
t-49.5 7.5t-39.5 5.5v49q114 -8 168 -8q60 0 168 8v-49q-52 -7 -78 -33q-24 -27 -40.5 -57t-31 -65t-31.5 -75l-147 -372q-41 -110 -57 -168h-86l-230 594l-180 -394q-54 -121 -78 -200h-86z" />
    <glyph glyph-name="x" unicode="x" horiz-adv-x="928" 
d="M0 0h61v49q43 4 70.5 22.5t61 64t45.5 61.5l159 188q-34 50 -71 103t-74 103.5t-68 88.5q-26 36 -49.5 48.5t-68.5 12.5l-5 45l189 33q42 -26 86.5 -82.5t81 -117t74.5 -123.5l221 311q20 -4 61 -4q45 0 66 4v-45q-35 -8 -63 -30t-58 -58t-47 -56l-144 -176l181 -258
q23 -32 46.5 -64t51.5 -53.5t65 -21.5v-45q-36 4 -114 4q-66 0 -99 -4q-22 20 -42.5 48t-39.5 59t-45 73l-94 148q-114 -144 -233 -328q-25 4 -78 4q-45 0 -127 -4z" />
    <glyph glyph-name="y" unicode="y" horiz-adv-x="1022" 
d="M475 -33l-266 651q-27 67 -35.5 84.5t-32.5 32t-71 19.5v49q114 -8 184 -8q69 0 209 8v-49q-115 0 -115 -54q0 -31 33 -102l180 -442l189 467q24 54 24 82q0 26 -24 36t-86 13v49q98 -8 155 -8q62 0 160 8v-49q-40 -9 -62.5 -20.5t-36.5 -29.5t-30.5 -57t-26.5 -61
l-286 -656q-26 -57 -63 -137t-75.5 -138t-92 -94t-122.5 -36q-48 0 -110 24q22 68 37 144q78 -37 122 -37q16 0 50 8q70 25 111.5 106t80.5 197z" />
    <glyph glyph-name="z" unicode="z" horiz-adv-x="887" 
d="M0 0h74v45q58 66 93.5 110t96 121t109.5 138q169 208 245 327h-196q-139 0 -172 -12q-25 -10 -35 -35t-14 -58t-8 -63h-46q13 140 13 160q0 11 -2 34t-2 36q110 -4 327 -4q222 0 336 4v-45q-100 -123 -172.5 -216t-158 -205.5t-201.5 -266.5q16 0 87 -2t113 -2
q162 0 230 20q30 9 43.5 36t20 70.5t10.5 61.5l49 -4q-13 -84 -21 -250q-114 4 -348 4q-262 0 -471 -4z" />
    <glyph glyph-name="braceleft" unicode="{" horiz-adv-x="641" 
d="M758 1282v-45q-96 -1 -141 -28.5t-56.5 -76.5t-11.5 -145v-106q0 -82 -6 -132.5t-28.5 -91.5t-71.5 -70t-136 -50q111 -26 162.5 -69t65.5 -103.5t14 -171.5v-107q0 -94 11.5 -143t55.5 -76t142 -31v-41q-95 2 -156 14t-99.5 43t-57.5 86.5t-19 147.5v180q0 95 -21.5 144
t-68.5 69.5t-143 32.5v49q93 13 142 35.5t70 70.5t21 140v180q0 92 18.5 148t59 88t100 44t154.5 15z" />
    <glyph glyph-name="bar" unicode="|" horiz-adv-x="567" 
d="M422 1323h106v-1729h-106v1729z" />
    <glyph glyph-name="braceright" unicode="}" horiz-adv-x="813" 
d="M193 1282q127 -5 194.5 -27.5t100 -84t32.5 -183.5v-180q0 -70 12 -112t40.5 -69t70.5 -40t115 -25v-49q-96 -12 -144.5 -32.5t-71 -70.5t-22.5 -143v-180q0 -90 -18 -147.5t-55.5 -87.5t-98 -42t-155.5 -14v41q99 4 142.5 31t54.5 76t11 143v33q0 12 -2 38t-2 36
q0 107 15 169t67.5 105.5t163.5 69.5q-111 26 -163.5 69.5t-67.5 106t-15 168.5q0 12 2 37t2 36v33q0 95 -11 144.5t-55.5 77t-141.5 28.5v45z" />
    <glyph glyph-name="asciitilde" unicode="~" horiz-adv-x="1378" 
d="M1339 1143v-111q-96 -62 -171.5 -90.5t-147.5 -28.5q-55 0 -113.5 14t-140.5 44q-157 57 -246 57q-74 0 -142 -30t-181 -105v115q187 118 323 118q110 0 250 -53q168 -61 246 -61q72 0 143 30.5t180 100.5z" />
    <glyph glyph-name="bullet" horiz-adv-x="395" 
d="M246 504q41 0 69.5 -27.5t28.5 -70.5q0 -41 -29 -70t-69 -29t-69.5 29.5t-29.5 69.5q0 42 29 70t70 28z" />
    <glyph glyph-name="nonbreakingspace" unicode="&#xa0;" horiz-adv-x="836" 
 />
    <glyph glyph-name="exclamdown" unicode="&#xa1;" horiz-adv-x="1210" 
d="M717 438q73 135 117 229t78 180.5t63.5 177.5t52.5 159q16 24 33 24q7 0 25 2t28 2q13 0 41 -2t41 -2q-31 -36 -80.5 -127t-148.5 -292.5t-165.5 -336.5t-150.5 -292q-70 -121 -151 -152q-83 -37 -140 -37q-49 0 -49 41l4 4q3 65 15 86t39 21q5 0 34 -2t48 -2
q71 12 101 37t71 106l-304 701q-19 53 -51.5 97t-70.5 58q-17 8 -62 8h-37v54l172 28q9 0 25 2t24 2q35 0 58 -16q31 -26 60.5 -76t62.5 -137zM713 1249q-110 0 -208.5 76.5t-98.5 194.5h77q0 -73 74.5 -108.5t155.5 -35.5q77 0 147 35.5t70 108.5h82q0 -119 -95 -195
t-204 -76z" />
    <glyph glyph-name="cent" unicode="&#xa2;" horiz-adv-x="1022" 
d="M475 -33l-266 651q-27 67 -35.5 84.5t-32.5 32t-71 19.5v49q114 -8 184 -8q69 0 209 8v-49q-115 0 -115 -54q0 -31 33 -102l180 -442l189 467q24 54 24 82q0 26 -24 36t-86 13v49q98 -8 155 -8q62 0 160 8v-49q-40 -9 -62.5 -20.5t-36.5 -29.5t-30.5 -57t-26.5 -61
l-286 -656q-26 -57 -63 -137t-75.5 -138t-92 -94t-122.5 -36q-48 0 -110 24q22 68 37 144q78 -37 122 -37q16 0 50 8q70 25 111.5 106t80.5 197zM553 909q-110 0 -208.5 76.5t-98.5 194.5h82q0 -73 72.5 -108.5t152.5 -35.5q77 0 149 35.5t72 108.5h78q0 -119 -95 -195
t-204 -76z" />
    <glyph glyph-name="sterling" unicode="&#xa3;" horiz-adv-x="1038" 
d="M106 586l29 102q42 -7 82.5 -9t88.5 -2.5t100 -0.5h290q111 0 164 -4h8q33 0 107 12l20 -16q-20 -41 -37 -115q-48 6 -103 9t-159 3h-368q-127 0 -193 -4zM549 451q21 0 40 -8t32.5 -20.5t21.5 -31.5t8 -39q0 -26 -13.5 -48.5t-36.5 -36t-52 -13.5q-26 0 -48.5 13.5
t-36 36t-13.5 48.5q0 27 13.5 49.5t36 36t48.5 13.5zM549 991q44 0 73 -27.5t29 -70.5q0 -26 -13.5 -48.5t-36.5 -36t-52 -13.5q-26 0 -48.5 13.5t-36 36t-13.5 48.5q0 43 28.5 70.5t69.5 27.5z" />
    <glyph glyph-name="currency" unicode="&#xa4;" horiz-adv-x="1059" 
d="M111 254l98 98q-50 67 -70 126.5t-20 135.5q0 55 9 100.5t29.5 86t55.5 84.5l-102 102l73 78l103 -102q117 94 274 94q137 0 262 -90l99 98l77 -78l-98 -98q54 -70 76 -130.5t22 -140.5t-20 -138.5t-74 -127.5l99 -98l-74 -78l-103 98q-69 -51 -129 -74.5t-137 -23.5
q-37 0 -74 5.5t-70 17.5t-61 28.5t-69 46.5l-103 -98zM557 942q-85 0 -159 -43t-117 -118t-43 -163q0 -86 43 -160.5t116.5 -118.5t159.5 -44t159.5 43.5t117 118t43.5 161.5q0 89 -43.5 163.5t-117.5 117.5t-159 43z" />
    <glyph glyph-name="yen" unicode="&#xa5;" horiz-adv-x="395" 
d="M246 504q41 0 69.5 -27.5t28.5 -70.5q0 -41 -29 -70t-69 -29t-69.5 29.5t-29.5 69.5q0 42 29 70t70 28z" />
    <glyph glyph-name="brokenbar" unicode="&#xa6;" horiz-adv-x="567" 
d="M422 1323h106v-1729h-106v1729z" />
    <glyph glyph-name="section" unicode="&#xa7;" horiz-adv-x="813" 
d="M643 274q47 -30 66.5 -67.5t19.5 -95.5q0 -99 -53 -185t-141.5 -137t-190.5 -51q-120 0 -258 69q4 35 10 105t10 104l-4 17l4 45h82q-4 -29 -4 -86v-74q96 -94 209 -94q98 0 164 55t66 137q0 66 -36.5 104.5t-131.5 72.5l-226 81q-82 35 -125 83.5t-43 125.5
q0 115 127 217q-86 56 -86 160q0 93 49 174.5t130 129.5t174 48q88 0 229 -36q-12 -129 -12 -275h-82q4 49 4 143q-68 70 -188 70q-58 0 -104.5 -22.5t-73.5 -62.5t-27 -87q0 -90 66.5 -126.5t207 -73.5t214 -86.5t73.5 -159.5q0 -69 -27.5 -121t-91.5 -101zM242 672
q-33 -36 -45.5 -64.5t-12.5 -66.5q0 -41 18 -68.5t63.5 -50t144.5 -53.5q59 -18 184 -70q49 73 49 135q0 63 -50.5 101t-186.5 79q-60 20 -88 30t-76 28z" />
    <glyph glyph-name="dieresis" unicode="&#xa8;" horiz-adv-x="1059" 
d="M152 0v49q54 18 72 49t18 86v856q0 56 -12.5 80t-41 30.5t-94.5 8.5v53q230 -8 348 -8q151 0 455 8q74 0 74 -36q0 -37 -8 -95v-143h-50q-5 70 -9.5 102t-22.5 66q-49 17 -123 25t-164 8q-92 0 -180 -9q-8 -90 -8 -143v-291q0 -45 49 -45q9 0 35 4t38 4q11 0 36 -2t34 -2
q47 0 143 17q45 8 55.5 33t10.5 73v17q0 2 2 8t2 8h53q-4 -61 -4 -193q0 -131 4 -196h-53q-2 72 -5.5 97t-27 42t-82.5 21q-65 4 -192 4h-62q-20 0 -28 -6.5t-8 -30.5v-467h327q109 0 148.5 13t50.5 48.5t26 155.5h54q-2 -43 -9.5 -123.5t-7.5 -134.5q0 -6 2 -18t2 -15
q-146 -8 -217 -8q-36 0 -110 2t-111 2q-23 0 -72 2t-71 2q-94 0 -266 -8zM713 1454q41 0 69.5 -27.5t28.5 -70.5q0 -40 -29.5 -69.5t-68.5 -29.5q-40 0 -69.5 29.5t-29.5 69.5q0 43 28.5 70.5t70.5 27.5zM451 1454q41 0 69.5 -27.5t28.5 -70.5q0 -40 -29.5 -69.5
t-68.5 -29.5q-43 0 -73 29t-30 70q0 43 29 70.5t74 27.5z" />
    <glyph glyph-name="copyright" unicode="&#xa9;" horiz-adv-x="1321" 
d="M651 1212q169 0 311.5 -82.5t225 -223t82.5 -308.5q0 -169 -82.5 -312.5t-225.5 -227t-311 -83.5q-164 0 -306 83.5t-225 228t-83 311.5q0 123 47.5 236t132.5 198t198 132.5t236 47.5zM651 1135q-144 0 -266.5 -72.5t-194 -196t-71.5 -268.5q0 -147 71.5 -271.5
t194 -197t266.5 -72.5q111 0 207.5 41.5t171.5 116.5t116.5 174t41.5 209q0 145 -72 268.5t-195.5 196t-269.5 72.5zM918 905v-184h-37q-6 104 -50.5 146t-150.5 42q-117 0 -191.5 -84.5t-74.5 -218.5q0 -138 77 -228.5t193 -90.5q75 0 128.5 33t92.5 106l29 -12
q-30 -75 -107.5 -123.5t-167.5 -48.5q-95 0 -174 44.5t-122.5 124.5t-43.5 179q0 107 44.5 189t126 126.5t186.5 44.5q127 0 242 -45z" />
    <glyph glyph-name="ordfeminine" unicode="&#xaa;" horiz-adv-x="1247" 
d="M315 467q42 -160 155 -265t280 -128q13 0 42 -2t44 -2q186 0 335 94l21 -8l-49 -90q-180 -91 -369 -91q-11 0 -34.5 2.5t-43.5 2.5q-174 13 -306 95t-203.5 221t-71.5 314l-4 4q0 166 66.5 297t189 214t288.5 104q45 4 131 4q198 0 402 -70q-35 -126 -41 -262h-45
q-4 49 -12 139q-77 59 -167 91t-182 32q-32 0 -90 -8q-108 -16 -183 -72.5t-118 -143t-55 -189.5q-8 -66 -8 -95l4 -20q28 -4 82 -4q94 0 233 49q48 22 163.5 59t164.5 43q39 -10 72 -30.5t80 -60.5t57 -48v-61q-8 4 -41.5 25.5t-58.5 32.5t-48 11h-12q-43 -4 -87 -16.5
t-90 -28.5t-101 -33q-25 -8 -63 -20t-79.5 -24t-66.5 -16.5t-54 -4.5h-4q-37 32 -73.5 56.5t-69.5 29.5q0 -59 20 -127z" />
    <glyph glyph-name="guillemotleft" unicode="&#xab;" horiz-adv-x="813" 
d="M373 713l41 -29q-137 -186 -201 -278q60 -91 103.5 -150t97.5 -125l-41 -33q-201 201 -303 299v21q64 59 133 127.5t170 167.5zM721 713l41 -29q-137 -186 -201 -278q133 -192 201 -275l-41 -33q-87 92 -303 299v21q64 59 133 127.5t170 167.5z" />
    <glyph glyph-name="logicalnot" unicode="&#xac;" horiz-adv-x="907" 
d="M762 164v364h-651v103h753v-467h-102z" />
    <glyph glyph-name="minus" unicode="&#xad;" horiz-adv-x="625" 
d="M78 336l45 131h446l-45 -131h-446z" />
    <glyph glyph-name="registered" unicode="&#xae;" horiz-adv-x="1341" 
d="M676 1212q168 0 309 -82t223 -223t82 -309q0 -127 -47.5 -241.5t-130.5 -198.5t-198 -133.5t-238 -49.5t-233.5 48.5t-196.5 136t-133 200.5t-47 238q0 168 82.5 309t222.5 223t305 82zM676 1135q-141 0 -263.5 -72.5t-194 -196t-71.5 -268.5q0 -147 71.5 -271.5
t194 -197t263.5 -72.5q144 0 266.5 72.5t194 197t71.5 271.5q0 145 -71.5 268.5t-194 196t-266.5 72.5zM717 610q52 -13 81.5 -57t59.5 -114t58.5 -105t78.5 -35v-20h-82q-44 0 -68.5 28t-62.5 123q-30 71 -43.5 98t-31 41.5t-51.5 19.5t-99 5v-229q0 -40 12 -51t58 -11h12
v-24h-246v24q51 0 68.5 11t17.5 51v503q0 41 -13 53.5t-56 12.5h-17v24h283q114 0 175.5 -42.5t61.5 -120.5q0 -53 -19.5 -90t-63.5 -60t-113 -35zM557 623h49q119 0 176.5 38.5t57.5 120.5q0 47 -21 80.5t-60 50.5t-91 17h-58q-31 0 -42 -11t-11 -42v-254z" />
    <glyph glyph-name="macron" unicode="&#xaf;" horiz-adv-x="625" 
d="M410 229v-24q0 -54 6 -81t22.5 -42t45.5 -20.5t89 -8.5v-53q-154 8 -241 8q-78 0 -250 -8v53q86 5 117 16t39 41t8 115v783q0 70 -10.5 98t-40.5 36t-113 13v53q39 0 117 -2t116 -2q40 0 127 2t131 2v-53q-79 -2 -112 -12t-42 -41.5t-9 -114.5v-758zM463 1454
q41 0 69.5 -27.5t28.5 -70.5q0 -40 -29.5 -69.5t-68.5 -29.5t-68.5 29.5t-29.5 69.5q0 43 28.5 70.5t69.5 27.5zM201 1454q41 0 69.5 -27.5t28.5 -70.5q0 -40 -29.5 -69.5t-68.5 -29.5q-43 0 -71 29t-28 70q0 44 27 71t72 27z" />
    <glyph glyph-name="degree" unicode="&#xb0;" horiz-adv-x="698" 
d="M659 942q0 -74 -36 -136t-99 -98t-139 -36q-110 0 -190 79t-80 191q0 73 37 136t100 98.5t137 35.5t136.5 -35.5t98 -98t35.5 -136.5zM557 942q0 72 -48.5 122t-119.5 50q-72 0 -122 -51t-50 -121t51 -121t121 -51t119 50t49 122z" />
    <glyph glyph-name="plusminus" unicode="&#xb1;" horiz-adv-x="928" 
d="M446 676v328h103v-328h328v-103h-328v-331h-103v331h-327v103h327zM868 102v-102h-757v102h757z" />
    <glyph glyph-name="twosuperior" unicode="&#xb2;" horiz-adv-x="625" 
d="M410 229v-24q0 -54 6 -81t22.5 -42t45.5 -20.5t89 -8.5v-53q-154 8 -241 8q-78 0 -250 -8v53q86 5 117 16t39 41t8 115v783q0 70 -10.5 98t-40.5 36t-113 13v53q39 0 117 -2t116 -2q40 0 127 2t131 2v-53q-79 -2 -112 -12t-42 -41.5t-9 -114.5v-758zM324 1454
q41 0 69.5 -27.5t28.5 -70.5q0 -40 -29.5 -69.5t-68.5 -29.5q-40 0 -69.5 29.5t-29.5 69.5q0 43 28.5 70.5t70.5 27.5z" />
    <glyph glyph-name="threesuperior" unicode="&#xb3;" horiz-adv-x="530" 
d="M274 1020q-23 0 -47 15.5t-39.5 39.5t-15.5 47q0 25 15.5 50.5t39 41t47.5 15.5q26 0 51 -15.5t40.5 -40.5t15.5 -51q0 -24 -15.5 -47.5t-41 -39t-50.5 -15.5zM70 49q74 0 102.5 16t28.5 78v447q0 56 -9.5 78t-33 27.5t-88.5 9.5v49q149 20 258 69l28 -8v-631
q0 -5 -2 -14t-2 -10q0 -52 11.5 -75t38.5 -29.5t85 -6.5v-49q-138 8 -217 8q-70 0 -200 -8v49z" />
    <glyph glyph-name="acute" unicode="&#xb4;" horiz-adv-x="547" 
d="M184 877h-57l250 241q33 30 44.5 37.5t29.5 7.5q24 0 40.5 -15t16.5 -38q0 -22 -21.5 -42.5t-76.5 -51.5z" />
    <glyph glyph-name="mu" unicode="&#xb5;" horiz-adv-x="1075" 
d="M905 848v-647q0 -55 12.5 -89t53.5 -34q25 0 57 16v-28l-164 -82q-3 -3 -6.5 -3.5t-5.5 -0.5q-47 0 -66 46t-24 105q-46 -46 -88 -81t-88.5 -57t-98.5 -22q-80 0 -129.5 41.5t-74.5 118.5q0 -50 5.5 -109t15 -132t15.5 -136q0 -45 -17 -77.5t-60 -32.5q-38 0 -58 30.5
t-20 71.5q0 10 2 30.5t5.5 40.5t4.5 31q14 70 24.5 153t17.5 175t9 169.5t2 158.5v344h156v-533q0 -254 156 -254q112 0 209 144v643h155z" />
    <glyph glyph-name="paragraph" unicode="&#xb6;" horiz-adv-x="829" 
d="M438 565h-53q-102 0 -176 38t-113 110t-39 168q0 110 42 186t118 100q49 16 88.5 20.5t145.5 4.5h446v-41h-106v-1278h114v-41h-602v41h135v692zM713 1151h-197v-1278h197v1278zM438 1151v-549q-10 0 -19 -2l-9 -2q-70 0 -108.5 32.5t-52.5 83t-16.5 113.5t-3.5 119
q0 115 44 158.5t165 46.5z" />
    <glyph glyph-name="cedilla" unicode="&#xb8;" horiz-adv-x="870" 
d="M778 70q-115 -79 -229 -90h-53q-116 0 -208.5 45t-135.5 139q-46 103 -46 233q0 81 20 152t62 123q54 66 143.5 110.5t172.5 44.5q90 0 167.5 -38.5t119.5 -112.5q36 -74 36 -148v-20q0 -22 -44 -48.5t-78 -37.5q-50 -8 -74 -8q-7 0 -21 2t-20 2h-324q3 -125 47.5 -210
t149.5 -122q66 -16 106 -16q127 0 222 69l16 -8q-25 -42 -29 -61zM471 766q-197 0 -205 -283h410v25q0 119 -44 188.5t-161 69.5zM594 1020q-23 0 -47 15.5t-39.5 39.5t-15.5 47q0 25 15.5 50.5t39 41t47.5 15.5q40 0 73 -33t33 -74q0 -38 -33 -70t-73 -32zM324 1020
q-25 0 -50.5 15.5t-41 39t-15.5 47.5q0 26 15.5 51t40.5 40.5t51 15.5q38 0 70 -33t32 -74q0 -38 -32 -70t-70 -32z" />
    <glyph glyph-name="onesuperior" unicode="&#xb9;" horiz-adv-x="1399" 
d="M311 328q0 -8 -2 -29t-2 -33q0 -120 21 -176q5 -29 90 -29h45v-61q-124 8 -193 8q-66 0 -196 -8v66q9 0 24 -2.5t25 -2.5q57 0 82 29q12 22 17.5 78.5t7.5 133.5t3 104l5 688q-29 38 -54 45.5t-98 15.5v53q24 0 73 -2t74 -2q26 0 75 2t73 2q34 -49 96.5 -134
t117.5 -154.5t114 -141.5l483 -585v765q0 105 -16 160q-10 29 -95 29h-45v61q36 0 105 -4t100 -4q32 0 95 4t94 4v-61h-54q-63 0 -78 -25q-28 -43 -28 -250v-65l-4 -655q0 -115 4 -172l-13 -5l-127 29q-53 68 -159 200t-160 197l-500 615v-688z" />
    <glyph glyph-name="ordmasculine" unicode="&#xba;" horiz-adv-x="813" 
d="M258 373q8 -50 16 -82q33 -109 111 -168q76 -53 168 -53t197 49l12 -13l-37 -65q-58 -30 -121.5 -45.5t-128.5 -15.5q-120 0 -209 53q-82 48 -125 144.5t-43 207.5q0 140 62 246q35 55 123.5 109t162.5 75q49 12 107 12q97 0 209 -49q-19 -118 -25 -221h-45
q-6 55 -9.5 76t-11.5 36.5t-28.5 29.5t-60.5 26q-66 16 -103 16q-77 0 -137.5 -43.5t-79.5 -124.5q-12 -48 -12 -110v-17q0 -12 1.5 -25.5t2.5 -19.5q50 -16 65 -16q34 0 103 45q121 62 168 66q27 -7 51.5 -32t63.5 -71v-45q-25 23 -43 36t-35 13h-4q-22 -1 -41.5 -11.5
t-49 -29.5t-49.5 -28q-77 -33 -94 -33q-5 0 -10.5 2t-12 5.5t-10.5 4.5q-18 11 -29 18.5t-28 19.5t-41 28z" />
    <glyph glyph-name="guillemotright" unicode="&#xbb;" horiz-adv-x="793" 
d="M451 98l-41 29q122 159 204 279q-84 121 -204 278l45 29q75 -82 136 -141.5t163 -153.5v-21q-68 -66 -101.5 -99.5t-92.5 -92t-109 -107.5zM102 98l-41 29q151 206 201 279q-122 176 -201 278l41 29q201 -201 304 -295v-21q-50 -48 -76 -73.5t-69.5 -69l-75 -75
t-83.5 -81.5z" />
    <glyph glyph-name="onequarter" unicode="&#xbc;" horiz-adv-x="887" 
d="M147 250l-53 94q45 35 74.5 61t66 60.5t78 76l76.5 76.5q-62 64 -107 111t-93 91t-95 77q30 41 53 94h41q36 -47 77 -91t106 -108.5t96 -95.5q43 41 72 69t80 77.5t81.5 85t49.5 67.5l28 4q11 -35 15.5 -44t33.5 -66q-70 -49 -127.5 -106t-158.5 -165q94 -94 156.5 -152
t142.5 -118l-58 -102l-41 4q-49 68 -106 126.5t-172 168.5q-72 -70 -150 -147.5t-129 -143.5z" />
    <glyph glyph-name="onehalf" unicode="&#xbd;" horiz-adv-x="1321" 
d="M479 934q-6 0 -19 -2t-18 -2h-94q-98 0 -143 -4q-44 -12 -53 -45q-8 -22 -10.5 -34.5t-5 -37t-5.5 -39.5h-49v78q0 102 -4 168q73 -12 160 -12q13 0 42 2t44 2h151q0 66 -55 110.5t-109 44.5l17 49q32 -7 70.5 -15.5t81.5 -14.5t81 -6q31 0 64 3.5t92 14t90 14.5l8 -49
h-4l-168 -151h152q14 0 42 -2t40 -2q89 0 163 12q0 -28 -2 -72t-2 -63q0 -16 2 -53t2 -58h-49q-12 74 -24 111q-4 31 -54 45q-114 8 -172 8h-98v-852q61 -12 127 -12q95 0 169 29.5t118.5 96.5t44.5 173q0 147 -91.5 210.5t-232.5 63.5h-41l21 66q413 0 495 -181
q29 -55 29 -131q0 -157 -115 -266q-84 -76 -178.5 -103.5t-214.5 -27.5q-27 0 -91 4t-97 4h-25q-27 0 -81 -4t-79 -4v41q46 22 58 41q11 16 15.5 59.5t4.5 87.5v705z" />
    <glyph glyph-name="threequarters" unicode="&#xbe;" horiz-adv-x="1153" 
d="M602 61q74 -16 107 -16q96 0 156.5 55.5t60.5 153.5t-68 129t-194 31h-99v-279q0 -36 14 -53t23 -21zM565 659v-184h66q93 0 198 -13.5t187 -57.5t82 -125q0 -141 -109 -212t-272 -71q-30 0 -95 4t-102 4h-241v45q5 2 55.5 9.5t58.5 15.5q17 16 17 90v491q0 82 -41 82
h-148q-33 -8 -42.5 -12.5t-14.5 -24.5q-6 -19 -11 -62.5t-10 -64.5h-49v33q0 102 -12 201q14 0 59 -2t72 -2q38 0 109 2t92 2v225q0 30 -7.5 54t-22.5 59.5t-24 62.5l62 25q34 -62 65 -135q50 98 70 135l66 -25q-62 -113 -62 -180v-229h115q115 0 213 8q-3 -49 -7.5 -101.5
t-4.5 -99.5q0 -6 2 -16t2 -17h-54q-2 28 -3.5 47.5t-5 39.5t-11.5 40q-3 20 -12.5 24t-40.5 13h-148q-41 0 -41 -78z" />
    <glyph glyph-name="questiondown" unicode="&#xbf;" horiz-adv-x="604" 
d="M123 49q72 0 101.5 16.5t29.5 77.5v447q0 57 -10 78.5t-34 27t-91 9.5v49q147 20 262 69l25 -8v-655q0 -52 11 -75t38.5 -29.5t85.5 -6.5v-49q-140 8 -222 8q-66 0 -196 -8v49zM455 1020q-25 0 -50.5 15.5t-41 39t-15.5 47.5q0 26 15.5 51t40.5 40.5t51 15.5q38 0 70 -33
t32 -74q0 -38 -32 -70t-70 -32zM180 1020q-40 0 -71 32t-31 70q0 41 31 74t71 33t71.5 -32.5t31.5 -74.5q0 -23 -15.5 -47.5t-39 -39.5t-48.5 -15z" />
    <glyph glyph-name="Agrave" unicode="&#xc0;" horiz-adv-x="1284" 
d="M0 0h49v53q61 7 86 33q16 20 26.5 39.5t19 39t23.5 57l21 52.5l393 951q5 8 25 8q25 0 25 -8l417 -1028q1 -2 19 -47t30.5 -60t33.5 -22.5t65 -14.5v-53q-140 8 -213 8t-213 -8v53q80 4 105.5 11t25.5 38q0 29 -16 78l-111 303h-410l-114 -295q-21 -58 -21 -82
q0 -32 27 -41t100 -12v-53q-122 8 -188 8q-20 0 -79.5 -2.5t-125.5 -5.5zM430 561h348l-172 434z" />
    <glyph glyph-name="Agrave" unicode="&#x410;" horiz-adv-x="1284" 
d="M0 0h49v53q61 7 86 33q16 20 26.5 39.5t19 39t23.5 57l21 52.5l393 951q5 8 25 8q25 0 25 -8l417 -1028q1 -2 19 -47t30.5 -60t33.5 -22.5t65 -14.5v-53q-140 8 -213 8t-213 -8v53q80 4 105.5 11t25.5 38q0 29 -16 78l-111 303h-410l-114 -295q-21 -58 -21 -82
q0 -32 27 -41t100 -12v-53q-122 8 -188 8q-20 0 -79.5 -2.5t-125.5 -5.5zM430 561h348l-172 434z" />
    <glyph glyph-name="Aacute" unicode="&#xc1;" horiz-adv-x="1075" 
d="M373 1208q295 0 409 4h95q41 0 41 -57v-25q-4 -58 -5.5 -109t-3.5 -83h-45q-5 70 -9.5 102.5t-23.5 65.5q-95 33 -262 33q-88 0 -176 -9v-1048q67 -12 127 -12q148 0 240 68t92 222q0 100 -45 164t-118.5 91.5t-160.5 27.5h-41l21 66q94 0 185.5 -9.5t182.5 -50
t128 -121.5q28 -56 28 -131q0 -71 -28 -141t-86 -125q-84 -76 -178 -103.5t-212 -27.5q-30 0 -92 4t-96 4h-29q-27 0 -80 -4t-79 -4v41q44 17 57 41q20 24 20 147v770q0 78 -8 107.5t-38 38t-105 10.5v57q119 -4 295 -4z" />
    <glyph glyph-name="Aacute" unicode="&#x411;" horiz-adv-x="1075" 
d="M373 1208q295 0 409 4h95q41 0 41 -57v-25q-4 -58 -5.5 -109t-3.5 -83h-45q-5 70 -9.5 102.5t-23.5 65.5q-95 33 -262 33q-88 0 -176 -9v-1048q67 -12 127 -12q148 0 240 68t92 222q0 100 -45 164t-118.5 91.5t-160.5 27.5h-41l21 66q94 0 185.5 -9.5t182.5 -50
t128 -121.5q28 -56 28 -131q0 -71 -28 -141t-86 -125q-84 -76 -178 -103.5t-212 -27.5q-30 0 -92 4t-96 4h-29q-27 0 -80 -4t-79 -4v41q44 17 57 41q20 24 20 147v770q0 78 -8 107.5t-38 38t-105 10.5v57q119 -4 295 -4z" />
    <glyph glyph-name="Acircumflex" unicode="&#xc2;" horiz-adv-x="1075" 
d="M393 709h78q68 0 123 8.5t103 34t75 71t27 119.5q0 110 -75 155.5t-192 45.5q-49 0 -131 -8q-8 -90 -8 -131v-295zM209 82q20 24 20 147v770q0 78 -8 107.5t-38 38t-105 10.5v57q148 -8 221 -8q99 0 287 8h41q103 0 180.5 -21.5t122.5 -88.5q41 -63 41 -135
q0 -80 -49 -152q-73 -88 -226 -127q121 -15 191 -44.5t117 -115.5q28 -50 28 -131q0 -49 -14.5 -98.5t-40.5 -92.5t-59 -75q-85 -76 -175 -103.5t-202 -27.5q-33 0 -100 4t-101 4h-29q-27 0 -80 -4t-79 -4v41q44 17 57 41zM393 209v-127q67 -12 135 -12q324 0 324 299
q0 120 -55.5 180.5t-140 77t-205.5 16.5h-58v-434z" />
    <glyph glyph-name="Acircumflex" unicode="&#x412;" horiz-adv-x="1075" 
d="M393 709h78q68 0 123 8.5t103 34t75 71t27 119.5q0 110 -75 155.5t-192 45.5q-49 0 -131 -8q-8 -90 -8 -131v-295zM209 82q20 24 20 147v770q0 78 -8 107.5t-38 38t-105 10.5v57q148 -8 221 -8q99 0 287 8h41q103 0 180.5 -21.5t122.5 -88.5q41 -63 41 -135
q0 -80 -49 -152q-73 -88 -226 -127q121 -15 191 -44.5t117 -115.5q28 -50 28 -131q0 -49 -14.5 -98.5t-40.5 -92.5t-59 -75q-85 -76 -175 -103.5t-202 -27.5q-33 0 -100 4t-101 4h-29q-27 0 -80 -4t-79 -4v41q44 17 57 41zM393 209v-127q67 -12 135 -12q324 0 324 299
q0 120 -55.5 180.5t-140 77t-205.5 16.5h-58v-434z" />
    <glyph glyph-name="Atilde" unicode="&#xc3;" horiz-adv-x="965" 
d="M451 1208q225 0 323 4h98q41 0 41 -57v-25q-8 -61 -8 -192h-45q-5 70 -9.5 102.5t-23.5 65.5q-95 33 -270 33q-26 0 -73 -2t-66 -2q-3 -38 -7.5 -78t-4.5 -70v-758q0 -67 5.5 -99.5t22 -48t49 -20.5t95.5 -8v-53q-164 8 -254 8q-82 0 -254 -8v53q82 2 117 13.5t45 43.5
t10 115v807q0 62 -12 86t-35.5 29.5t-100.5 11.5v53q119 -4 357 -4z" />
    <glyph glyph-name="Atilde" unicode="&#x413;" horiz-adv-x="965" 
d="M451 1208q225 0 323 4h98q41 0 41 -57v-25q-8 -61 -8 -192h-45q-5 70 -9.5 102.5t-23.5 65.5q-95 33 -270 33q-26 0 -73 -2t-66 -2q-3 -38 -7.5 -78t-4.5 -70v-758q0 -67 5.5 -99.5t22 -48t49 -20.5t95.5 -8v-53q-164 8 -254 8q-82 0 -254 -8v53q82 2 117 13.5t45 43.5
t10 115v807q0 62 -12 86t-35.5 29.5t-100.5 11.5v53q119 -4 357 -4z" />
    <glyph glyph-name="Adieresis" unicode="&#xc4;" horiz-adv-x="1264" 
d="M315 -8q-81 0 -118.5 -8.5t-50.5 -29.5t-15.5 -60.5t-7.5 -114.5h-62v61q0 53 -4 131t-4 115h4q20 0 44.5 10t41.5 27q20 25 31.5 45.5t22 43t28.5 62.5l393 951q0 8 25 8q21 0 25 -8l413 -1028q22 -49 41.5 -74t38 -33t43.5 -8h13v-12q0 -51 -6.5 -123.5t-6.5 -110.5
q0 -41 4 -57h-69q-4 76 -6 119t-13 62t-44.5 25.5t-117.5 6.5l-294 4zM287 188q-25 -69 -25 -82q0 -32 66 -32h540q70 0 70 41q0 17 -16 65l-320 815z" />
    <glyph glyph-name="Adieresis" unicode="&#x414;" horiz-adv-x="1264" 
d="M315 -8q-81 0 -118.5 -8.5t-50.5 -29.5t-15.5 -60.5t-7.5 -114.5h-62v61q0 53 -4 131t-4 115h4q20 0 44.5 10t41.5 27q20 25 31.5 45.5t22 43t28.5 62.5l393 951q0 8 25 8q21 0 25 -8l413 -1028q22 -49 41.5 -74t38 -33t43.5 -8h13v-12q0 -51 -6.5 -123.5t-6.5 -110.5
q0 -41 4 -57h-69q-4 76 -6 119t-13 62t-44.5 25.5t-117.5 6.5l-294 4zM287 188q-25 -69 -25 -82q0 -32 66 -32h540q70 0 70 41q0 17 -16 65l-320 815z" />
    <glyph glyph-name="Aring" unicode="&#xc5;" horiz-adv-x="1059" 
d="M152 0v49q54 18 72 49t18 86v856q0 56 -12.5 80t-41 30.5t-94.5 8.5v53q230 -8 348 -8q151 0 455 8q74 0 74 -36q0 -37 -8 -95v-143h-50q-5 70 -9.5 102t-22.5 66q-49 17 -123 25t-164 8q-92 0 -180 -9q-8 -90 -8 -143v-291q0 -45 49 -45q71 0 153.5 4.5t132.5 16.5
q45 8 55.5 33t10.5 73v17q0 2 2 8t2 8h53q-4 -61 -4 -193q0 -131 4 -196h-53q-2 72 -5.5 97t-27 42t-82.5 21q-65 4 -192 4h-62q-20 0 -28 -6.5t-8 -30.5v-467h327q109 0 148.5 13t50.5 48.5t26 155.5h54q-2 -43 -9.5 -123.5t-7.5 -134.5q0 -6 2 -18t2 -15q-146 -8 -217 -8
q-36 0 -110 2t-111 2q-23 0 -72 2t-71 2q-94 0 -266 -8z" />
    <glyph glyph-name="Aring" unicode="&#x415;" horiz-adv-x="1059" 
d="M152 0v49q54 18 72 49t18 86v856q0 56 -12.5 80t-41 30.5t-94.5 8.5v53q230 -8 348 -8q151 0 455 8q74 0 74 -36q0 -37 -8 -95v-143h-50q-5 70 -9.5 102t-22.5 66q-49 17 -123 25t-164 8q-92 0 -180 -9q-8 -90 -8 -143v-291q0 -45 49 -45q71 0 153.5 4.5t132.5 16.5
q45 8 55.5 33t10.5 73v17q0 2 2 8t2 8h53q-4 -61 -4 -193q0 -131 4 -196h-53q-2 72 -5.5 97t-27 42t-82.5 21q-65 4 -192 4h-62q-20 0 -28 -6.5t-8 -30.5v-467h327q109 0 148.5 13t50.5 48.5t26 155.5h54q-2 -43 -9.5 -123.5t-7.5 -134.5q0 -6 2 -18t2 -15q-146 -8 -217 -8
q-36 0 -110 2t-111 2q-23 0 -72 2t-71 2q-94 0 -266 -8z" />
    <glyph glyph-name="AE" unicode="&#xc6;" horiz-adv-x="1661" 
d="M1044 1208v-53q-46 -2 -70.5 -12.5t-34 -43t-9.5 -100.5v-372q34 26 102 102l242 303q13 17 30 37.5t28.5 38.5t19.5 42.5t8 49.5v8q17 0 52 -2t50 -2q18 0 57 2t58 2l4 -53q-78 -5 -120.5 -39t-121.5 -125l-278 -323l446 -537q19 -26 33.5 -41.5t33.5 -25.5t44 -11v-53
q-25 4 -78 4q-23 0 -69 -4t-66 -4l-459 582l-16 -5v-364q0 -48 5.5 -79.5t19 -47t33 -20.5t61.5 -9v-53q-148 8 -193 8q-41 0 -102.5 -3t-106.5 -5v53q56 5 77.5 14.5t31.5 41t10 100.5v364l-16 5l-459 -582q-20 0 -68 4t-71 4q-50 0 -74 -4v53q26 1 43.5 11t30 23.5
t36.5 43.5l447 537l-279 323q-79 91 -121 125t-120 39v53q19 0 58 -2t56 -2q19 0 55 2t52 2v-8q0 -35 12.5 -62.5t33 -54t40.5 -51.5l242 -303q62 -72 102 -102v372q0 69 -10 101.5t-34 42.5t-71 12v53q35 0 96 -2t89 -2q31 0 101 2t107 2z" />
    <glyph glyph-name="AE" unicode="&#x416;" horiz-adv-x="1661" 
d="M1044 1208v-53q-46 -2 -70.5 -12.5t-34 -43t-9.5 -100.5v-372q34 26 102 102l242 303q13 17 30 37.5t28.5 38.5t19.5 42.5t8 49.5v8q17 0 52 -2t50 -2q18 0 57 2t58 2l4 -53q-78 -5 -120.5 -39t-121.5 -125l-278 -323l446 -537q19 -26 33.5 -41.5t33.5 -25.5t44 -11v-53
q-25 4 -78 4q-23 0 -69 -4t-66 -4l-459 582l-16 -5v-364q0 -48 5.5 -79.5t19 -47t33 -20.5t61.5 -9v-53q-148 8 -193 8q-41 0 -102.5 -3t-106.5 -5v53q56 5 77.5 14.5t31.5 41t10 100.5v364l-16 5l-459 -582q-20 0 -68 4t-71 4q-50 0 -74 -4v53q26 1 43.5 11t30 23.5
t36.5 43.5l447 537l-279 323q-79 91 -121 125t-120 39v53q19 0 58 -2t56 -2q19 0 55 2t52 2v-8q0 -35 12.5 -62.5t33 -54t40.5 -51.5l242 -303q62 -72 102 -102v372q0 69 -10 101.5t-34 42.5t-71 12v53q35 0 96 -2t89 -2q31 0 101 2t107 2z" />
    <glyph glyph-name="Ccedilla" unicode="&#xc7;" horiz-adv-x="1075" 
d="M684 688q122 -15 193 -44.5t114 -115.5q33 -64 33 -135q0 -75 -29.5 -145.5t-81.5 -116.5q-89 -83 -175.5 -117t-192.5 -34h-49q-194 0 -353 86l-49 90l21 8q149 -94 323 -94q97 0 191 37t152.5 106.5t58.5 159.5q0 108 -49 167.5t-129 81t-183 21.5v66q145 0 236.5 48.5
t91.5 184.5q0 82 -44.5 138t-111.5 75q-56 8 -90 8q-187 0 -348 -123q-8 -90 -12 -139h-45q-6 130 -41 262q76 25 148.5 42t149 26.5t144.5 9.5q45 0 119 -8q80 -10 152.5 -43t109.5 -88t37 -135q0 -86 -45 -152q-70 -84 -246 -127z" />
    <glyph glyph-name="Ccedilla" unicode="&#x417;" horiz-adv-x="1075" 
d="M684 688q122 -15 193 -44.5t114 -115.5q33 -64 33 -135q0 -75 -29.5 -145.5t-81.5 -116.5q-89 -83 -175.5 -117t-192.5 -34h-49q-194 0 -353 86l-49 90l21 8q149 -94 323 -94q97 0 191 37t152.5 106.5t58.5 159.5q0 108 -49 167.5t-129 81t-183 21.5v66q145 0 236.5 48.5
t91.5 184.5q0 82 -44.5 138t-111.5 75q-56 8 -90 8q-187 0 -348 -123q-8 -90 -12 -139h-45q-6 130 -41 262q76 25 148.5 42t149 26.5t144.5 9.5q45 0 119 -8q80 -10 152.5 -43t109.5 -88t37 -135q0 -86 -45 -152q-70 -84 -246 -127z" />
    <glyph glyph-name="Egrave" unicode="&#xc8;" horiz-adv-x="1473" 
d="M938 53q74 2 108.5 11.5t45 37.5t10.5 95v901q-197 -317 -311.5 -499t-230 -363.5t-154.5 -239.5q-28 0 -126 2t-141 2h-57v53q82 5 112 16t39 43t9 113v783q0 70 -10.5 98t-40.5 36t-113 13v53q40 0 117 -2t116 -2q40 0 127 2t131 2v-53q-76 0 -109 -9t-43.5 -37.5
t-10.5 -92.5v-905q91 142 179.5 283.5t191.5 304.5t192 302.5t133 202.5q29 0 68 -2t51 -2q24 0 86 4t123 4v-53q-78 -2 -112 -12t-43 -41.5t-9 -114.5v-758q0 -71 11.5 -106t44.5 -50t108 -20v-53q-164 8 -234 8t-258 -8v53z" />
    <glyph glyph-name="Egrave" unicode="&#x418;" horiz-adv-x="1473" 
d="M938 53q74 2 108.5 11.5t45 37.5t10.5 95v901q-197 -317 -311.5 -499t-230 -363.5t-154.5 -239.5q-28 0 -126 2t-141 2h-57v53q82 5 112 16t39 43t9 113v783q0 70 -10.5 98t-40.5 36t-113 13v53q40 0 117 -2t116 -2q40 0 127 2t131 2v-53q-76 0 -109 -9t-43.5 -37.5
t-10.5 -92.5v-905q91 142 179.5 283.5t191.5 304.5t192 302.5t133 202.5q29 0 68 -2t51 -2q24 0 86 4t123 4v-53q-78 -2 -112 -12t-43 -41.5t-9 -114.5v-758q0 -71 11.5 -106t44.5 -50t108 -20v-53q-164 8 -234 8t-258 -8v53z" />
    <glyph glyph-name="Eacute" unicode="&#xc9;" horiz-adv-x="1473" 
d="M938 53q74 2 108.5 11.5t45 37.5t10.5 95v901q-197 -317 -311.5 -499t-230 -363.5t-154.5 -239.5q-50 8 -164 8q-119 0 -160 -4v53q82 5 112 16t39 43t9 113v783q0 70 -10.5 98t-40.5 36t-113 13v53q44 0 94 -2t66 -2q15 0 68 2t100 2v-1097q91 142 179.5 283.5
t191.5 304.5t192 302.5t133 202.5q29 0 68 -2t51 -2q24 0 86 4t123 4v-53q-78 -2 -112 -12t-43 -41.5t-9 -114.5v-758q0 -71 11.5 -106t44.5 -50t108 -20v-53q-164 8 -234 8t-258 -8v53zM610 1356l45 -13q0 -3 -1.5 -6.5t-2.5 -5.5q0 -25 37.5 -45t85.5 -20q53 0 102 30.5
t74 92.5l41 -17q-34 -109 -105.5 -159t-152.5 -50q-49 0 -92.5 15.5t-79.5 42.5z" />
    <glyph glyph-name="Eacute" unicode="&#x419;" horiz-adv-x="1473" 
d="M938 53q74 2 108.5 11.5t45 37.5t10.5 95v901q-197 -317 -311.5 -499t-230 -363.5t-154.5 -239.5q-50 8 -164 8q-119 0 -160 -4v53q82 5 112 16t39 43t9 113v783q0 70 -10.5 98t-40.5 36t-113 13v53q44 0 94 -2t66 -2q15 0 68 2t100 2v-1097q91 142 179.5 283.5
t191.5 304.5t192 302.5t133 202.5q29 0 68 -2t51 -2q24 0 86 4t123 4v-53q-78 -2 -112 -12t-43 -41.5t-9 -114.5v-758q0 -71 11.5 -106t44.5 -50t108 -20v-53q-164 8 -234 8t-258 -8v53zM610 1356l45 -13q0 -3 -1.5 -6.5t-2.5 -5.5q0 -25 37.5 -45t85.5 -20q53 0 102 30.5
t74 92.5l41 -17q-34 -109 -105.5 -159t-152.5 -50q-49 0 -92.5 15.5t-79.5 42.5z" />
    <glyph glyph-name="Ecircumflex" unicode="&#xca;" horiz-adv-x="1321" 
d="M406 627q58 36 131 102l303 303q60 60 83 89t23 79v8q23 0 67 -2t64 -2q25 0 76 2t72 2l4 -53q-69 -4 -117 -23.5t-82 -46.5t-108 -94l-349 -323l562 -537q28 -28 45 -42.5t39.5 -24.5t54.5 -11v-53q-45 4 -123 4q-82 0 -123 -4l-598 582l-24 -9v-372q0 -52 6.5 -79
t22 -41t46 -19.5t92.5 -8.5v-53q-172 8 -245 8q-90 0 -246 -8v53q82 5 112 16t39 43t9 113v783q0 70 -10.5 98t-40.5 36t-113 13v53q40 0 117 -2t116 -2q40 0 127 2t131 2v-53q-76 0 -109 -9t-43.5 -37.5t-10.5 -92.5v-389z" />
    <glyph glyph-name="Ecircumflex" unicode="&#x41a;" horiz-adv-x="1321" 
d="M406 627q58 36 131 102l303 303q60 60 83 89t23 79v8q23 0 67 -2t64 -2q25 0 76 2t72 2l4 -53q-69 -4 -117 -23.5t-82 -46.5t-108 -94l-349 -323l562 -537q28 -28 45 -42.5t39.5 -24.5t54.5 -11v-53q-45 4 -123 4q-82 0 -123 -4l-598 582l-24 -9v-372q0 -52 6.5 -79
t22 -41t46 -19.5t92.5 -8.5v-53q-172 8 -245 8q-90 0 -246 -8v53q82 5 112 16t39 43t9 113v783q0 70 -10.5 98t-40.5 36t-113 13v53q40 0 117 -2t116 -2q40 0 127 2t131 2v-53q-76 0 -109 -9t-43.5 -37.5t-10.5 -92.5v-389z" />
    <glyph glyph-name="Edieresis" unicode="&#xcb;" horiz-adv-x="1284" 
d="M0 0h49v53q61 7 86 33q16 20 26.5 39.5t19 39t23.5 57l21 52.5l393 951q5 8 25 8q25 0 25 -8l417 -1028q1 -2 19 -47t30.5 -60t33.5 -22.5t65 -14.5v-53q-140 8 -213 8t-213 -8v53q80 4 105.5 11t25.5 38q0 29 -16 78l-316 815l-319 -807q-21 -58 -21 -82q0 -32 27 -41
t100 -12v-53q-122 8 -188 8q-20 0 -79.5 -2.5t-125.5 -5.5z" />
    <glyph glyph-name="Edieresis" unicode="&#x41b;" horiz-adv-x="1284" 
d="M0 0h49v53q61 7 86 33q16 20 26.5 39.5t19 39t23.5 57l21 52.5l393 951q5 8 25 8q25 0 25 -8l417 -1028q1 -2 19 -47t30.5 -60t33.5 -22.5t65 -14.5v-53q-140 8 -213 8t-213 -8v53q80 4 105.5 11t25.5 38q0 29 -16 78l-316 815l-319 -807q-21 -58 -21 -82q0 -32 27 -41
t100 -12v-53q-122 8 -188 8q-20 0 -79.5 -2.5t-125.5 -5.5z" />
    <glyph glyph-name="Igrave" unicode="&#xcc;" horiz-adv-x="1661" 
d="M0 0h70v61q1 0 10 -2t14 -2q78 0 107 33q24 35 24 205v49l13 631v24q0 71 -10.5 100.5t-45 39.5t-112.5 12v57q29 0 83 -2t80 -2q28 0 81 2t79 2q58 -131 84.5 -188t75.5 -156l295 -606l291 606q47 101 151 344q24 0 76 -2t76 -2q28 0 88 2t88 2v-53q-70 -4 -93 -6.5
t-39 -15t-22 -39.5t-6 -86v-762q0 -105 27 -141.5t133 -43.5v-61q-156 8 -234 8q-77 0 -233 -8v61q79 0 107.5 9.5t36.5 40.5t8 110v799l-361 -762q-82 -180 -115 -270h-36q-24 54 -36.5 81.5t-32.5 72t-38 83.5l-373 779l4 -705q0 -24 -2 -62t-2 -53q0 -40 5.5 -62.5
t23 -36t52.5 -19t87 -5.5v-61q-122 8 -196 8q-26 0 -107 -2.5t-176 -5.5z" />
    <glyph glyph-name="Igrave" unicode="&#x41c;" horiz-adv-x="1661" 
d="M0 0h70v61q1 0 10 -2t14 -2q78 0 107 33q24 35 24 205v49l13 631v24q0 71 -10.5 100.5t-45 39.5t-112.5 12v57q29 0 83 -2t80 -2q28 0 81 2t79 2q58 -131 84.5 -188t75.5 -156l295 -606l291 606q47 101 151 344q24 0 76 -2t76 -2q28 0 88 2t88 2v-53q-70 -4 -93 -6.5
t-39 -15t-22 -39.5t-6 -86v-762q0 -105 27 -141.5t133 -43.5v-61q-156 8 -234 8q-77 0 -233 -8v61q79 0 107.5 9.5t36.5 40.5t8 110v799l-361 -762q-82 -180 -115 -270h-36q-24 54 -36.5 81.5t-32.5 72t-38 83.5l-373 779l4 -705q0 -24 -2 -62t-2 -53q0 -40 5.5 -62.5
t23 -36t52.5 -19t87 -5.5v-61q-122 8 -196 8q-26 0 -107 -2.5t-176 -5.5z" />
    <glyph glyph-name="Iacute" unicode="&#xcd;" horiz-adv-x="1473" 
d="M406 201q0 -52 6.5 -79t22 -41t46 -19.5t92.5 -8.5v-53q-172 8 -245 8q-90 0 -246 -8v53q82 5 112 16t39 43t9 113v783q0 70 -10.5 98t-40.5 36t-113 13v53q40 0 117 -2t116 -2q40 0 127 2t131 2v-53q-76 0 -109 -9t-43.5 -37.5t-10.5 -92.5v-328q118 -4 348 -4
q229 0 348 4v320q0 70 -10.5 98t-40.5 36t-113 13v53q37 0 115 -2t114 -2q42 0 129 2t134 2v-53q-78 -2 -112 -12t-43 -41.5t-9 -114.5v-758q0 -71 11.5 -106t44.5 -50t108 -20v-53q-164 8 -234 8t-258 -8v53q74 2 108.5 11.5t45 37.5t10.5 95v405q-119 4 -348 4
q-230 0 -348 -4v-401z" />
    <glyph glyph-name="Iacute" unicode="&#x41d;" horiz-adv-x="1473" 
d="M406 201q0 -52 6.5 -79t22 -41t46 -19.5t92.5 -8.5v-53q-172 8 -245 8q-90 0 -246 -8v53q82 5 112 16t39 43t9 113v783q0 70 -10.5 98t-40.5 36t-113 13v53q40 0 117 -2t116 -2q40 0 127 2t131 2v-53q-76 0 -109 -9t-43.5 -37.5t-10.5 -92.5v-328q118 -4 348 -4
q229 0 348 4v320q0 70 -10.5 98t-40.5 36t-113 13v53q37 0 115 -2t114 -2q42 0 129 2t134 2v-53q-78 -2 -112 -12t-43 -41.5t-9 -114.5v-758q0 -71 11.5 -106t44.5 -50t108 -20v-53q-164 8 -234 8t-258 -8v53q74 2 108.5 11.5t45 37.5t10.5 95v405q-119 4 -348 4
q-230 0 -348 -4v-401z" />
    <glyph glyph-name="Icircumflex" unicode="&#xce;" horiz-adv-x="1456" 
d="M123 602q0 142 49 257.5t139 200.5t209.5 129t257.5 44h58q128 -7 232 -52.5t177.5 -122.5t113.5 -183t42 -236q0 -155 -57 -280t-156 -212.5t-219 -131.5t-244 -44q-160 0 -297.5 70.5t-221 214t-83.5 346.5zM307 528q46 -284 221 -401q118 -78 254 -78q65 0 131 21
q161 49 234.5 189t73.5 323q0 84 -13 155q-21 129 -82 226t-156.5 150.5t-211.5 53.5q-63 0 -131 -12q-117 -29 -190 -102.5t-105.5 -174t-32.5 -219.5q0 -41 8 -131z" />
    <glyph glyph-name="Icircumflex" unicode="&#x41e;" horiz-adv-x="1456" 
d="M123 602q0 142 49 257.5t139 200.5t209.5 129t257.5 44h58q128 -7 232 -52.5t177.5 -122.5t113.5 -183t42 -236q0 -155 -57 -280t-156 -212.5t-219 -131.5t-244 -44q-160 0 -297.5 70.5t-221 214t-83.5 346.5zM307 528q46 -284 221 -401q118 -78 254 -78q65 0 131 21
q161 49 234.5 189t73.5 323q0 84 -13 155q-21 129 -82 226t-156.5 150.5t-211.5 53.5q-63 0 -131 -12q-117 -29 -190 -102.5t-105.5 -174t-32.5 -219.5q0 -41 8 -131z" />
    <glyph glyph-name="Idieresis" unicode="&#xcf;" horiz-adv-x="1473" 
d="M406 229q0 -53 6.5 -83.5t23 -50t50.5 -29.5t87 -13v-53q-172 8 -245 8q-90 0 -246 -8v53q82 5 112 16t39 43t9 113v783q0 70 -10.5 98t-40.5 36t-113 13v53q26 0 107 -2t130 -2q218 0 422 8q188 -8 410 -8q57 0 155 2t128 2v-53q-78 -2 -112 -12t-43 -41.5t-9 -114.5
v-758q0 -71 11.5 -106t44.5 -50t108 -20v-53q-164 8 -234 8t-258 -8v53q74 2 108.5 11.5t45 37.5t10.5 95v811q0 70 -10.5 98t-40.5 36t-113 13h-369q-76 0 -109 -9t-43.5 -37.5t-10.5 -92.5v-787z" />
    <glyph glyph-name="Idieresis" unicode="&#x41f;" horiz-adv-x="1473" 
d="M406 229q0 -53 6.5 -83.5t23 -50t50.5 -29.5t87 -13v-53q-172 8 -245 8q-90 0 -246 -8v53q82 5 112 16t39 43t9 113v783q0 70 -10.5 98t-40.5 36t-113 13v53q26 0 107 -2t130 -2q218 0 422 8q188 -8 410 -8q57 0 155 2t128 2v-53q-78 -2 -112 -12t-43 -41.5t-9 -114.5
v-758q0 -71 11.5 -106t44.5 -50t108 -20v-53q-164 8 -234 8t-258 -8v53q74 2 108.5 11.5t45 37.5t10.5 95v811q0 70 -10.5 98t-40.5 36t-113 13h-369q-76 0 -109 -9t-43.5 -37.5t-10.5 -92.5v-787z" />
    <glyph glyph-name="Eth" unicode="&#xd0;" 
d="M0 0h94v61q77 0 109.5 6.5t43.5 32t11 88.5v766q0 24 2 59t2 48q0 42 -11 60t-42 25.5t-107 12.5v49q35 0 107 -2t106 -2q30 0 87 2t85 2q21 0 76 2t84 2q304 0 377 -151q29 -67 29 -123q0 -83 -44 -161.5t-112 -125.5q-102 -73 -242 -73q-25 0 -55 4.5t-59 7.5l-21 61
q28 -6 57.5 -13t53.5 -7q124 0 185 87t61 179q0 12 -2.5 29.5t-2.5 27.5q-17 100 -91.5 144.5t-182.5 44.5q-96 0 -168 -25q-8 -66 -8 -98v-803q0 -85 7 -113.5t32.5 -37.5t95.5 -9q2 0 13 2t12 2v-61q-172 8 -267 8q-24 0 -112.5 -2.5t-202.5 -5.5z" />
    <glyph glyph-name="Eth" unicode="&#x420;" 
d="M0 0h94v61q77 0 109.5 6.5t43.5 32t11 88.5v766q0 24 2 59t2 48q0 42 -11 60t-42 25.5t-107 12.5v49q35 0 107 -2t106 -2q30 0 87 2t85 2q21 0 76 2t84 2q304 0 377 -151q29 -67 29 -123q0 -83 -44 -161.5t-112 -125.5q-102 -73 -242 -73q-25 0 -55 4.5t-59 7.5l-21 61
q28 -6 57.5 -13t53.5 -7q124 0 185 87t61 179q0 12 -2.5 29.5t-2.5 27.5q-17 100 -91.5 144.5t-182.5 44.5q-96 0 -168 -25q-8 -66 -8 -98v-803q0 -85 7 -113.5t32.5 -37.5t95.5 -9q2 0 13 2t12 2v-61q-172 8 -267 8q-24 0 -112.5 -2.5t-202.5 -5.5z" />
    <glyph glyph-name="Ntilde" unicode="&#xd1;" horiz-adv-x="1247" 
d="M1171 164l21 -8l-49 -90q-180 -91 -369 -91q-11 0 -34.5 2.5t-43.5 2.5q-174 13 -308 96.5t-205.5 222t-71.5 315.5q0 166 66.5 297t189 214t288.5 104q45 4 131 4q198 0 402 -70q-35 -126 -41 -262h-45q-4 49 -12 139q-77 59 -167 91t-182 32q-32 0 -90 -8
q-122 -17 -204 -89.5t-121 -179t-39 -231.5q0 -144 54.5 -270t158.5 -208t250 -103q13 0 42 -2t44 -2q186 0 335 94z" />
    <glyph glyph-name="Ntilde" unicode="&#x421;" horiz-adv-x="1247" 
d="M1171 164l21 -8l-49 -90q-180 -91 -369 -91q-11 0 -34.5 2.5t-43.5 2.5q-174 13 -308 96.5t-205.5 222t-71.5 315.5q0 166 66.5 297t189 214t288.5 104q45 4 131 4q198 0 402 -70q-35 -126 -41 -262h-45q-4 49 -12 139q-77 59 -167 91t-182 32q-32 0 -90 -8
q-122 -17 -204 -89.5t-121 -179t-39 -231.5q0 -144 54.5 -270t158.5 -208t250 -103q13 0 42 -2t44 -2q186 0 335 94z" />
    <glyph glyph-name="Ograve" unicode="&#xd2;" 
d="M315 0v61q5 0 13 -2t12 -2q68 0 96 7.5t37.5 33t9.5 86.5v942h-131q-53 0 -143 -8q-46 -6 -57 -45q-7 -24 -17 -147h-49v114q0 30 -2 86t-2 82q73 -12 160 -12q13 0 42 2t44 2h471q14 0 42 -2t40 -2q89 0 163 12q-4 -61 -4 -188v-94h-49q-8 104 -20 147q-11 39 -53 45
q-50 8 -148 8h-127v-901q0 -61 8 -94.5t31.5 -51.5t71.5 -18h57v-61q-172 8 -270 8q-152 0 -226 -8z" />
    <glyph glyph-name="Ograve" unicode="&#x422;" 
d="M315 0v61q5 0 13 -2t12 -2q68 0 96 7.5t37.5 33t9.5 86.5v942h-131q-53 0 -143 -8q-46 -6 -57 -45q-7 -24 -17 -147h-49v114q0 30 -2 86t-2 82q73 -12 160 -12q13 0 42 2t44 2h471q14 0 42 -2t40 -2q89 0 163 12q-4 -61 -4 -188v-94h-49q-8 104 -20 147q-11 39 -53 45
q-50 8 -148 8h-127v-901q0 -61 8 -94.5t31.5 -51.5t71.5 -18h57v-61q-172 8 -270 8q-152 0 -226 -8z" />
    <glyph glyph-name="Oacute" unicode="&#xd3;" horiz-adv-x="1210" 
d="M717 438q73 135 117 229t78 180.5t63.5 177.5t52.5 159q16 24 33 24q7 0 25 2t28 2q13 0 41 -2t41 -2q-31 -36 -80.5 -127t-148.5 -292.5t-165.5 -336.5t-150.5 -292q-70 -121 -151 -152q-83 -37 -140 -37q-49 0 -49 41q0 111 58 111q5 0 34 -2t48 -2q71 12 101 37
t71 106l-304 701q-19 53 -51.5 97t-70.5 58q-17 8 -62 8h-37v54l172 28q9 0 25 2t24 2q35 0 58 -16q31 -26 60.5 -76t62.5 -137z" />
    <glyph glyph-name="Oacute" unicode="&#x423;" horiz-adv-x="1210" 
d="M717 438q73 135 117 229t78 180.5t63.5 177.5t52.5 159q16 24 33 24q7 0 25 2t28 2q13 0 41 -2t41 -2q-31 -36 -80.5 -127t-148.5 -292.5t-165.5 -336.5t-150.5 -292q-70 -121 -151 -152q-83 -37 -140 -37q-49 0 -49 41q0 111 58 111q5 0 34 -2t48 -2q71 12 101 37
t71 106l-304 701q-19 53 -51.5 97t-70.5 58q-17 8 -62 8h-37v54l172 28q9 0 25 2t24 2q35 0 58 -16q31 -26 60.5 -76t62.5 -137z" />
    <glyph glyph-name="Ocircumflex" unicode="&#xd4;" horiz-adv-x="1415" 
d="M717 1208q124 0 241 9v-54q-63 0 -98.5 -13t-50 -45.5t-14.5 -92.5q38 17 139 37q98 0 177 -30t135.5 -85.5t87 -135.5t30.5 -175q0 -120 -46.5 -217.5t-135.5 -153t-211 -55.5q-80 0 -176 32q0 -78 12.5 -112t45.5 -45t105 -11v-53q-40 0 -124 4t-125 4t-123 -4t-123 -4
v53q72 0 105 11t46 45t13 112q-100 -32 -176 -32q-121 0 -211 55.5t-136.5 153t-46.5 217.5q0 95 30 173.5t87.5 135.5t136.5 87t176 30q103 -21 140 -37q0 89 -34 120t-130 31v54q84 -5 139.5 -7t114.5 -2zM795 930v-635q15 -12 64.5 -28.5t90.5 -16.5q61 0 114 45
t86.5 140t33.5 233q0 72 -17.5 133t-46.5 101.5t-64.5 62.5t-72.5 22h-25q-108 0 -163 -57zM627 930q-57 57 -168 57h-21q-48 0 -94.5 -38t-76 -111.5t-29.5 -169.5q0 -138 33 -232.5t86 -140t114 -45.5q41 0 90.5 16t65.5 29v635z" />
    <glyph glyph-name="Ocircumflex" unicode="&#x424;" horiz-adv-x="1415" 
d="M717 1208q124 0 241 9v-54q-63 0 -98.5 -13t-50 -45.5t-14.5 -92.5q38 17 139 37q98 0 177 -30t135.5 -85.5t87 -135.5t30.5 -175q0 -120 -46.5 -217.5t-135.5 -153t-211 -55.5q-80 0 -176 32q0 -78 12.5 -112t45.5 -45t105 -11v-53q-40 0 -124 4t-125 4t-123 -4t-123 -4
v53q72 0 105 11t46 45t13 112q-100 -32 -176 -32q-121 0 -211 55.5t-136.5 153t-46.5 217.5q0 95 30 173.5t87.5 135.5t136.5 87t176 30q103 -21 140 -37q0 89 -34 120t-130 31v54q84 -5 139.5 -7t114.5 -2zM795 930v-635q15 -12 64.5 -28.5t90.5 -16.5q61 0 114 45
t86.5 140t33.5 233q0 72 -17.5 133t-46.5 101.5t-64.5 62.5t-72.5 22h-25q-108 0 -163 -57zM627 930q-57 57 -168 57h-21q-48 0 -94.5 -38t-76 -111.5t-29.5 -169.5q0 -138 33 -232.5t86 -140t114 -45.5q41 0 90.5 16t65.5 29v635z" />
    <glyph glyph-name="Otilde" unicode="&#xd5;" horiz-adv-x="1190" 
d="M0 0h70v53q45 4 70 15.5t40 29t53 70.5l316 438l-217 352q-81 140 -135 160q-21 8 -66 8h-37v54l176 28q7 0 23 2t22 2q35 0 58 -16q27 -21 59 -76.5t72 -132.5l143 -250l320 471q12 0 39 -2t38 -2q14 0 45 2t46 2v-45q-38 -4 -68.5 -19t-51.5 -36t-55 -68.5t-38 -52.5
l-234 -311l303 -500q29 -46 45.5 -68.5t42.5 -34.5t68 -16v-57q-37 4 -107 4q-98 0 -147 -4q-39 82 -115 205l-188 327l-164 -233q-52 -77 -83.5 -130.5t-96.5 -168.5q-29 4 -86 4q-62 0 -160 -4z" />
    <glyph glyph-name="Otilde" unicode="&#x425;" horiz-adv-x="1190" 
d="M0 0h70v53q45 4 70 15.5t40 29t53 70.5l316 438l-217 352q-81 140 -135 160q-21 8 -66 8h-37v54l176 28q7 0 23 2t22 2q35 0 58 -16q27 -21 59 -76.5t72 -132.5l143 -250l320 471q12 0 39 -2t38 -2q14 0 45 2t46 2v-45q-38 -4 -68.5 -19t-51.5 -36t-55 -68.5t-38 -52.5
l-234 -311l303 -500q29 -46 45.5 -68.5t42.5 -34.5t68 -16v-57q-37 4 -107 4q-98 0 -147 -4q-39 82 -115 205l-188 327l-164 -233q-52 -77 -83.5 -130.5t-96.5 -168.5q-29 4 -86 4q-62 0 -160 -4z" />
    <glyph glyph-name="Odieresis" unicode="&#xd6;" horiz-adv-x="1509" 
d="M1188 8q-26 0 -97 -4t-153 -4h-365q-172 8 -245 8q-90 0 -246 -8v53q82 5 112 16t39 43t9 113v783q0 70 -10.5 98t-40.5 36t-113 13v53q40 0 117 -2t116 -2q40 0 127 2t131 2v-53q-76 0 -109 -9t-43.5 -37.5t-10.5 -92.5v-787q0 -100 26 -125.5t88 -25.5h418q79 0 111 9
t42.5 38t10.5 100v783q0 70 -10.5 98t-40.5 36t-113 13v53q37 0 115 -2t114 -2q42 0 129 2t134 2v-53q-78 -2 -112 -12t-43 -41.5t-9 -114.5v-758q0 -73 20.5 -111.5t51.5 -51.5t71 -13q6 0 21 2t20 2v-20q0 -43 4 -93t7 -78.5t9 -86.5h-53q-13 94 -40.5 143t-69.5 65
t-119 21z" />
    <glyph glyph-name="Odieresis" unicode="&#x426;" horiz-adv-x="1509" 
d="M1188 8q-26 0 -97 -4t-153 -4h-365q-172 8 -245 8q-90 0 -246 -8v53q82 5 112 16t39 43t9 113v783q0 70 -10.5 98t-40.5 36t-113 13v53q40 0 117 -2t116 -2q40 0 127 2t131 2v-53q-76 0 -109 -9t-43.5 -37.5t-10.5 -92.5v-787q0 -100 26 -125.5t88 -25.5h418q79 0 111 9
t42.5 38t10.5 100v783q0 70 -10.5 98t-40.5 36t-113 13v53q37 0 115 -2t114 -2q42 0 129 2t134 2v-53q-78 -2 -112 -12t-43 -41.5t-9 -114.5v-758q0 -73 20.5 -111.5t51.5 -51.5t71 -13q6 0 21 2t20 2v-20q0 -43 4 -93t7 -78.5t9 -86.5h-53q-13 94 -40.5 143t-69.5 65
t-119 21z" />
    <glyph glyph-name="multiply" unicode="&#xd7;" horiz-adv-x="1378" 
d="M999 688v320q0 70 -10.5 98t-40 36t-112.5 13v53q36 0 114 -2t115 -2q43 0 131 2t131 2v-53q-78 -2 -112 -12t-43 -41.5t-9 -114.5v-782q0 -54 6 -81t22.5 -42t46 -20.5t89.5 -8.5v-53q-164 8 -233 8q-74 0 -254 -8v53q73 2 106 11.5t43 38t10 94.5v417
q-74 -42 -137.5 -70t-127 -42.5t-136.5 -14.5q-74 0 -158 37t-141 100t-57 142v242q0 70 -10.5 98t-40.5 36t-113 13v53q40 0 117 -2t116 -2q40 0 127 2t131 2v-53q-76 0 -109 -9t-43.5 -37.5t-10.5 -92.5v-242q0 -97 85 -155t181 -58q76 0 166.5 32.5t160.5 94.5z" />
    <glyph glyph-name="multiply" unicode="&#x427;" horiz-adv-x="1378" 
d="M999 688v320q0 70 -10.5 98t-40 36t-112.5 13v53q36 0 114 -2t115 -2q43 0 131 2t131 2v-53q-78 -2 -112 -12t-43 -41.5t-9 -114.5v-782q0 -54 6 -81t22.5 -42t46 -20.5t89.5 -8.5v-53q-164 8 -233 8q-74 0 -254 -8v53q73 2 106 11.5t43 38t10 94.5v417
q-74 -42 -137.5 -70t-127 -42.5t-136.5 -14.5q-74 0 -158 37t-141 100t-57 142v242q0 70 -10.5 98t-40.5 36t-113 13v53q40 0 117 -2t116 -2q40 0 127 2t131 2v-53q-76 0 -109 -9t-43.5 -37.5t-10.5 -92.5v-242q0 -97 85 -155t181 -58q76 0 166.5 32.5t160.5 94.5z" />
    <glyph glyph-name="Oslash" unicode="&#xd8;" horiz-adv-x="1796" 
d="M549 53h106q69 0 102.5 10t47.5 42.5t14 99.5v782q0 67 -4 96.5t-18.5 44.5t-44 20t-97.5 7v53q43 0 129 -2t129 -2q39 0 118 2t116 2v-53q-74 -5 -107.5 -19t-45 -47.5t-11.5 -105.5v-758q0 -82 9 -115.5t41.5 -45t113.5 -11.5h106q77 0 110 10t43.5 40t10.5 102v782
q0 83 -9 114.5t-43 41.5t-112 12v53q43 0 129 -2t129 -2q36 0 115 2t119 2v-53q-76 -5 -109.5 -19t-44 -47.5t-10.5 -105.5v-758q0 -85 8 -115t38.5 -41t113.5 -16v-53q-164 8 -246 8q-86 0 -242 -8h-106q-172 8 -250 8t-242 -8h-106q-164 8 -242 8q-86 0 -250 -8v53
q86 5 117 16t39 41t8 115v783q0 70 -11 97.5t-40.5 36t-112.5 13.5v53q37 0 115 -2t115 -2q43 0 131 2t131 2v-53q-68 -2 -97 -7t-44.5 -21t-19 -44.5t-3.5 -95.5v-782q0 -66 15 -99t49 -43t100 -10z" />
    <glyph glyph-name="Oslash" unicode="&#x428;" horiz-adv-x="1796" 
d="M549 53h106q69 0 102.5 10t47.5 42.5t14 99.5v782q0 67 -4 96.5t-18.5 44.5t-44 20t-97.5 7v53q43 0 129 -2t129 -2q39 0 118 2t116 2v-53q-74 -5 -107.5 -19t-45 -47.5t-11.5 -105.5v-758q0 -82 9 -115.5t41.5 -45t113.5 -11.5h106q77 0 110 10t43.5 40t10.5 102v782
q0 83 -9 114.5t-43 41.5t-112 12v53q43 0 129 -2t129 -2q36 0 115 2t119 2v-53q-76 -5 -109.5 -19t-44 -47.5t-10.5 -105.5v-758q0 -85 8 -115t38.5 -41t113.5 -16v-53q-164 8 -246 8q-86 0 -242 -8h-106q-172 8 -250 8t-242 -8h-106q-164 8 -242 8q-86 0 -250 -8v53
q86 5 117 16t39 41t8 115v783q0 70 -11 97.5t-40.5 36t-112.5 13.5v53q37 0 115 -2t115 -2q43 0 131 2t131 2v-53q-68 -2 -97 -7t-44.5 -21t-19 -44.5t-3.5 -95.5v-782q0 -66 15 -99t49 -43t100 -10z" />
    <glyph glyph-name="Ugrave" unicode="&#xd9;" horiz-adv-x="1796" 
d="M1741 53v-12q0 -33 3.5 -75.5t9.5 -88t11 -98.5h-53q-12 95 -36.5 143.5t-64.5 64.5t-116 21q-86 0 -242 -8h-106q-172 8 -250 8q-38 0 -117 -4t-125 -4h-106q-39 0 -121 4t-121 4q-86 0 -250 -8v53q86 5 117 16t39 41t8 115v783q0 70 -11 97.5t-40.5 36t-112.5 13.5v53
q37 0 115 -2t115 -2q43 0 131 2t131 2v-53q-68 -2 -97 -7t-44.5 -21t-19 -44.5t-3.5 -95.5v-782q0 -91 34 -121.5t97 -30.5h139q78 0 121 30t43 122v782q0 67 -4 96.5t-18.5 44.5t-44 20t-97.5 7v53q43 0 129 -2t129 -2q39 0 118 2t116 2v-53q-83 -5 -112.5 -13t-40.5 -36
t-11 -98v-783q0 -61 6.5 -93t22 -49t47 -23.5t88.5 -6.5h106q75 0 108 10t44.5 40t11.5 102v782q0 83 -9 114.5t-43 41.5t-112 12v53q43 0 129 -2t129 -2q36 0 115 2t119 2v-53q-85 -5 -115.5 -13.5t-41.5 -36t-11 -97.5q0 -5 2 -13t2 -12v-758q0 -85 8 -115t38.5 -41
t113.5 -16z" />
    <glyph glyph-name="Ugrave" unicode="&#x429;" horiz-adv-x="1796" 
d="M1741 53v-12q0 -33 3.5 -75.5t9.5 -88t11 -98.5h-53q-12 95 -36.5 143.5t-64.5 64.5t-116 21q-86 0 -242 -8h-106q-172 8 -250 8q-38 0 -117 -4t-125 -4h-106q-39 0 -121 4t-121 4q-86 0 -250 -8v53q86 5 117 16t39 41t8 115v783q0 70 -11 97.5t-40.5 36t-112.5 13.5v53
q37 0 115 -2t115 -2q43 0 131 2t131 2v-53q-68 -2 -97 -7t-44.5 -21t-19 -44.5t-3.5 -95.5v-782q0 -91 34 -121.5t97 -30.5h139q78 0 121 30t43 122v782q0 67 -4 96.5t-18.5 44.5t-44 20t-97.5 7v53q43 0 129 -2t129 -2q39 0 118 2t116 2v-53q-83 -5 -112.5 -13t-40.5 -36
t-11 -98v-783q0 -61 6.5 -93t22 -49t47 -23.5t88.5 -6.5h106q75 0 108 10t44.5 40t11.5 102v782q0 83 -9 114.5t-43 41.5t-112 12v53q43 0 129 -2t129 -2q36 0 115 2t119 2v-53q-85 -5 -115.5 -13.5t-41.5 -36t-11 -97.5q0 -5 2 -13t2 -12v-758q0 -85 8 -115t38.5 -41
t113.5 -16z" />
    <glyph glyph-name="Uacute" unicode="&#xda;" horiz-adv-x="1341" 
d="M483 1126h-147q-86 0 -127 -8q-25 -4 -37.5 -12.5t-15.5 -32.5q-6 -15 -11 -42.5t-7 -56.5t-3 -44h-49v90q0 33 -2 98t-2 94q73 -12 160 -12h86l491 8v-53q-67 -2 -94.5 -7t-43 -21t-19 -44.5t-3.5 -95.5v-778q0 -21 -2 -64t-2 -63q67 -12 127 -12q332 0 332 290
q0 100 -44.5 164t-117 91.5t-157.5 27.5h-45l20 66q95 0 186 -9.5t182 -50t128 -121.5q28 -45 28 -131q0 -70 -27.5 -140t-86.5 -126q-85 -76 -177.5 -103.5t-211.5 -27.5q-31 0 -93 4t-96 4h-29q-27 0 -80 -4t-79 -4v41q49 20 57 41q21 24 21 147v770q0 26 -9 127z" />
    <glyph glyph-name="Uacute" unicode="&#x42a;" horiz-adv-x="1341" 
d="M483 1126h-147q-86 0 -127 -8q-25 -4 -37.5 -12.5t-15.5 -32.5q-6 -15 -11 -42.5t-7 -56.5t-3 -44h-49v90q0 33 -2 98t-2 94q73 -12 160 -12h86l491 8v-53q-67 -2 -94.5 -7t-43 -21t-19 -44.5t-3.5 -95.5v-778q0 -21 -2 -64t-2 -63q67 -12 127 -12q332 0 332 290
q0 100 -44.5 164t-117 91.5t-157.5 27.5h-45l20 66q95 0 186 -9.5t182 -50t128 -121.5q28 -45 28 -131q0 -70 -27.5 -140t-86.5 -126q-85 -76 -177.5 -103.5t-211.5 -27.5q-31 0 -93 4t-96 4h-29q-27 0 -80 -4t-79 -4v41q49 20 57 41q21 24 21 147v770q0 26 -9 127z" />
    <glyph glyph-name="Ucircumflex" unicode="&#xdb;" horiz-adv-x="1645" 
d="M393 987v-905q67 -12 127 -12q148 0 240 68t92 222q0 100 -45 164t-118.5 91.5t-160.5 27.5h-41l21 66q94 0 185.5 -9.5t182.5 -50t128 -121.5q28 -56 28 -131q0 -71 -28 -141t-86 -125q-84 -76 -178 -103.5t-212 -27.5q-30 0 -92 4t-96 4h-29q-27 0 -80 -4t-79 -4v41
q44 17 57 41q20 24 20 147v770q0 78 -8 107.5t-38 38t-105 10.5v57q49 -4 201 -4h278v-53q-78 -2 -112 -12t-43 -41.5t-9 -114.5zM1106 1155v53q39 0 117 -2t116 -2q43 0 129 2t129 2v-53q-67 -2 -94.5 -7t-42 -20.5t-18.5 -44.5t-4 -96v-758q0 -71 10.5 -106t43.5 -50
t110 -20v-53q-164 8 -246 8t-246 -8v53q83 5 114.5 16t40.5 43t9 113v783q0 70 -11.5 98t-41.5 36t-115 13z" />
    <glyph glyph-name="Ucircumflex" unicode="&#x42b;" horiz-adv-x="1645" 
d="M393 987v-905q67 -12 127 -12q148 0 240 68t92 222q0 100 -45 164t-118.5 91.5t-160.5 27.5h-41l21 66q94 0 185.5 -9.5t182.5 -50t128 -121.5q28 -56 28 -131q0 -71 -28 -141t-86 -125q-84 -76 -178 -103.5t-212 -27.5q-30 0 -92 4t-96 4h-29q-27 0 -80 -4t-79 -4v41
q44 17 57 41q20 24 20 147v770q0 78 -8 107.5t-38 38t-105 10.5v57q49 -4 201 -4h278v-53q-78 -2 -112 -12t-43 -41.5t-9 -114.5zM1106 1155v53q39 0 117 -2t116 -2q43 0 129 2t129 2v-53q-67 -2 -94.5 -7t-42 -20.5t-18.5 -44.5t-4 -96v-758q0 -71 10.5 -106t43.5 -50
t110 -20v-53q-164 8 -246 8t-246 -8v53q83 5 114.5 16t40.5 43t9 113v783q0 70 -11.5 98t-41.5 36t-115 13z" />
    <glyph glyph-name="Udieresis" unicode="&#xdc;" horiz-adv-x="1075" 
d="M393 987v-905q67 -12 127 -12q148 0 240 68t92 222q0 100 -45 164t-118.5 91.5t-160.5 27.5h-41l21 66q94 0 185.5 -9.5t182.5 -50t128 -121.5q28 -56 28 -131q0 -71 -28 -141t-86 -125q-84 -76 -178 -103.5t-212 -27.5q-30 0 -92 4t-96 4h-29q-27 0 -80 -4t-79 -4v41
q44 17 57 41q20 24 20 147v770q0 78 -8 107.5t-38 38t-105 10.5v57q49 -4 201 -4h278v-53q-78 -2 -112 -12t-43 -41.5t-9 -114.5z" />
    <glyph glyph-name="Udieresis" unicode="&#x42c;" horiz-adv-x="1075" 
d="M393 987v-905q67 -12 127 -12q148 0 240 68t92 222q0 100 -45 164t-118.5 91.5t-160.5 27.5h-41l21 66q94 0 185.5 -9.5t182.5 -50t128 -121.5q28 -56 28 -131q0 -71 -28 -141t-86 -125q-84 -76 -178 -103.5t-212 -27.5q-30 0 -92 4t-96 4h-29q-27 0 -80 -4t-79 -4v41
q44 17 57 41q20 24 20 147v770q0 78 -8 107.5t-38 38t-105 10.5v57q49 -4 201 -4h278v-53q-78 -2 -112 -12t-43 -41.5t-9 -114.5z" />
    <glyph glyph-name="Yacute" unicode="&#xdd;" horiz-adv-x="1227" 
d="M975 467q16 82 20 127q-33 -6 -65 -27t-78 -59h-8q-47 0 -104.5 16.5t-157.5 48.5q-31 11 -68.5 23.5t-69.5 22.5t-69 19.5t-68 12.5h-12q-25 0 -50.5 -11t-48.5 -26.5t-49 -31.5v61q1 1 52.5 45t83.5 64t69 30q30 -4 94 -21.5t137.5 -43t100.5 -37.5q139 -49 229 -49
q58 0 86 4v20q0 14 -2 46t-2 49q-14 102 -57.5 188.5t-119 143.5t-179.5 73q-66 8 -90 8q-191 0 -352 -123q-2 -22 -4 -68t-5 -71h-45q-5 107 -41 262q198 70 398 70q90 0 131 -4q165 -21 288 -103.5t190 -214t67 -297.5q0 -133 -40.5 -243.5t-117 -195t-185 -135
t-239.5 -60.5q-21 0 -44 -2.5t-38 -2.5q-189 0 -369 91l-45 90l17 8q155 -94 336 -94q13 0 44 2t46 2q168 23 279 128.5t155 264.5z" />
    <glyph glyph-name="Yacute" unicode="&#x42d;" horiz-adv-x="1227" 
d="M975 467q16 82 20 127q-33 -6 -65 -27t-78 -59h-8q-47 0 -104.5 16.5t-157.5 48.5q-31 11 -68.5 23.5t-69.5 22.5t-69 19.5t-68 12.5h-12q-25 0 -50.5 -11t-48.5 -26.5t-49 -31.5v61q1 1 52.5 45t83.5 64t69 30q30 -4 94 -21.5t137.5 -43t100.5 -37.5q139 -49 229 -49
q58 0 86 4v20q0 14 -2 46t-2 49q-14 102 -57.5 188.5t-119 143.5t-179.5 73q-66 8 -90 8q-191 0 -352 -123q-2 -22 -4 -68t-5 -71h-45q-5 107 -41 262q198 70 398 70q90 0 131 -4q165 -21 288 -103.5t190 -214t67 -297.5q0 -133 -40.5 -243.5t-117 -195t-185 -135
t-239.5 -60.5q-21 0 -44 -2.5t-38 -2.5q-189 0 -369 91l-45 90l17 8q155 -94 336 -94q13 0 44 2t46 2q168 23 279 128.5t155 264.5z" />
    <glyph glyph-name="Thorn" unicode="&#xde;" horiz-adv-x="1776" 
d="M504 684q18 165 105.5 290.5t226 192t303.5 66.5h53q124 -7 224 -52.5t171.5 -122.5t110 -184.5t39.5 -234.5q0 -155 -56 -281t-150.5 -212.5t-210 -130.5t-235.5 -44q-147 0 -276.5 65t-212 197t-92.5 324q0 8 -2 25t-2 24h-115v-377q0 -72 11.5 -106.5t44.5 -49.5
t108 -20v-53q-156 8 -242 8q-79 0 -241 -8v53q83 5 113 16t38 41t8 115v783q0 70 -10.5 97.5t-39.5 36t-109 13.5v53q36 0 112 -2t113 -2q41 0 127 2t127 2v-53q-77 -2 -110 -12t-41.5 -41.5t-8.5 -114.5v-303h119zM1266 70q155 49 227 187t72 321q0 36 -5.5 85.5t-7.5 73.5
q-15 98 -53.5 177t-94 135t-131 87t-159.5 31q-59 0 -127 -12q-81 -21 -142.5 -69.5t-99 -114.5t-55.5 -146t-18 -161q0 -68 12 -136q12 -85 37 -158t69 -136t107 -107q55 -38 116.5 -58t125.5 -20q61 0 127 21z" />
    <glyph glyph-name="Thorn" unicode="&#x42e;" horiz-adv-x="1776" 
d="M504 684q18 165 105.5 290.5t226 192t303.5 66.5h53q124 -7 224 -52.5t171.5 -122.5t110 -184.5t39.5 -234.5q0 -155 -56 -281t-150.5 -212.5t-210 -130.5t-235.5 -44q-147 0 -276.5 65t-212 197t-92.5 324q0 8 -2 25t-2 24h-115v-377q0 -72 11.5 -106.5t44.5 -49.5
t108 -20v-53q-156 8 -242 8q-79 0 -241 -8v53q83 5 113 16t38 41t8 115v783q0 70 -10.5 97.5t-39.5 36t-109 13.5v53q36 0 112 -2t113 -2q41 0 127 2t127 2v-53q-77 -2 -110 -12t-41.5 -41.5t-8.5 -114.5v-303h119zM1266 70q155 49 227 187t72 321q0 36 -5.5 85.5t-7.5 73.5
q-15 98 -53.5 177t-94 135t-131 87t-159.5 31q-59 0 -127 -12q-81 -21 -142.5 -69.5t-99 -114.5t-55.5 -146t-18 -161q0 -68 12 -136q12 -85 37 -158t69 -136t107 -107q55 -38 116.5 -58t125.5 -20q61 0 127 21z" />
    <glyph glyph-name="germandbls" unicode="&#xdf;" horiz-adv-x="1169" 
d="M1130 0q-77 4 -237 4q-156 0 -234 -4v57q86 0 115.5 10t37 41.5t7.5 120.5v717q0 119 -4 176q-73 21 -151 21q-67 0 -125.5 -26t-95.5 -78.5t-37 -129.5q0 -91 46 -148.5t122.5 -83.5t170.5 -26v-28q-28 -21 -47.5 -43.5t-48 -60.5t-43.5 -56l-188 -258
q-81 -101 -148 -205q-74 8 -114 8q-37 0 -111 -8v53q44 0 76 25.5t56 60.5t56 82l299 397q-200 67 -270 213q-24 74 -24 123q0 56 19 106t58 83q80 69 299 69q102 0 226 -8h65q37 0 111 2t110 2v-53q-81 -6 -104.5 -11t-33 -23t-9.5 -64q0 -7 2 -30t2 -40v-762
q0 -88 6.5 -116t34 -37t106.5 -15v-57z" />
    <glyph glyph-name="germandbls" unicode="&#x42f;" horiz-adv-x="1169" 
d="M1130 0q-77 4 -237 4q-156 0 -234 -4v57q86 0 115.5 10t37 41.5t7.5 120.5v717q0 119 -4 176q-73 21 -151 21q-67 0 -125.5 -26t-95.5 -78.5t-37 -129.5q0 -91 46 -148.5t122.5 -83.5t170.5 -26v-28q-28 -21 -47.5 -43.5t-48 -60.5t-43.5 -56l-188 -258
q-81 -101 -148 -205q-74 8 -114 8q-37 0 -111 -8v53q44 0 76 25.5t56 60.5t56 82l299 397q-200 67 -270 213q-24 74 -24 123q0 56 19 106t58 83q80 69 299 69q102 0 226 -8h65q37 0 111 2t110 2v-53q-81 -6 -104.5 -11t-33 -23t-9.5 -64q0 -7 2 -30t2 -40v-762
q0 -88 6.5 -116t34 -37t106.5 -15v-57z" />
    <glyph glyph-name="agrave" unicode="&#xe0;" horiz-adv-x="907" 
d="M737 197q0 -75 21.5 -108t93.5 -36v-53q-41 4 -127 4t-127 -4v143l-152 -114q-62 -45 -147 -45q-60 0 -110.5 30t-69.5 84q-17 43 -17 95q0 64 28.5 121.5t82.5 91.5q73 48 153.5 65.5t227.5 36.5q0 106 -49 167.5t-152 61.5q-88 0 -121.5 -31t-54.5 -116l-49 8l4 119
q81 51 147.5 80.5t139.5 29.5q152 0 215 -72t63 -223v-335zM594 455q-145 -18 -250.5 -65.5t-105.5 -160.5q0 -61 42 -102t97 -41t114.5 40.5t102.5 94.5v234z" />
    <glyph glyph-name="agrave" unicode="&#x430;" horiz-adv-x="907" 
d="M737 197q0 -75 21.5 -108t93.5 -36v-53q-41 4 -127 4t-127 -4v143l-152 -114q-62 -45 -147 -45q-60 0 -110.5 30t-69.5 84q-17 43 -17 95q0 64 28.5 121.5t82.5 91.5q73 48 153.5 65.5t227.5 36.5q0 106 -49 167.5t-152 61.5q-88 0 -121.5 -31t-54.5 -116l-49 8l4 119
q81 51 147.5 80.5t139.5 29.5q152 0 215 -72t63 -223v-335zM594 455q-145 -18 -250.5 -65.5t-105.5 -160.5q0 -61 42 -102t97 -41t114.5 40.5t102.5 94.5v234z" />
    <glyph glyph-name="aacute" unicode="&#xe1;" horiz-adv-x="944" 
d="M442 762q-100 -19 -146 -114.5t-46 -217.5q0 -42 8 -106q15 -69 40 -121t60 -89t75.5 -57t82.5 -20q67 0 116.5 53.5t75 133t25.5 153.5v82q-25 153 -78.5 232t-150.5 79q-20 0 -62 -8zM422 1130q16 13 98 13h103q96 0 122 33q11 -7 23 -12t27 -5q-22 -52 -30.5 -75
t-14.5 -40q-13 -36 -107 -36q-20 0 -160 8h-49q-42 0 -67 -10.5t-60 -42.5q-28 -23 -47 -48.5t-31 -77.5t-12 -137q0 -5 2 -12t2 -8q64 68 121.5 102.5t128.5 40.5q8 0 25 2t24 2q84 0 155 -33t119.5 -88.5t75.5 -130t27 -157.5q0 -94 -32.5 -175.5t-89.5 -140t-132 -90.5
t-160 -32q-86 0 -163.5 43t-132.5 119.5t-76 176.5q-17 102 -17 189q0 179 66 336q28 57 116 157.5t146 128.5z" />
    <glyph glyph-name="aacute" unicode="&#x431;" horiz-adv-x="944" 
d="M442 762q-100 -19 -146 -114.5t-46 -217.5q0 -42 8 -106q15 -69 40 -121t60 -89t75.5 -57t82.5 -20q67 0 116.5 53.5t75 133t25.5 153.5v82q-25 153 -78.5 232t-150.5 79q-20 0 -62 -8zM422 1130q16 13 98 13h103q96 0 122 33q11 -7 23 -12t27 -5q-22 -52 -30.5 -75
t-14.5 -40q-13 -36 -107 -36q-20 0 -160 8h-49q-42 0 -67 -10.5t-60 -42.5q-28 -23 -47 -48.5t-31 -77.5t-12 -137q0 -5 2 -12t2 -8q64 68 121.5 102.5t128.5 40.5q8 0 25 2t24 2q84 0 155 -33t119.5 -88.5t75.5 -130t27 -157.5q0 -94 -32.5 -175.5t-89.5 -140t-132 -90.5
t-160 -32q-86 0 -163.5 43t-132.5 119.5t-76 176.5q-17 102 -17 189q0 179 66 336q28 57 116 157.5t146 128.5z" />
    <glyph glyph-name="acircumflex" unicode="&#xe2;" horiz-adv-x="965" 
d="M676 459q54 -6 109 -32t89.5 -69t34.5 -100q0 -74 -42 -132.5t-123 -92t-195 -33.5q-21 0 -110 4t-136 4q-29 0 -107 -4t-102 -4v33q27 0 60 12t43 25q20 16 20 69v512q0 52 -7.5 72t-31 25.5t-92.5 5.5v49q26 0 82 -2t82 -2q47 0 142 4t140 4q79 0 148 -14.5t116.5 -54
t47.5 -107.5q0 -77 -52 -114.5t-116 -57.5zM373 164q0 -111 82 -111q92 0 153.5 17.5t93 57t31.5 101.5q0 102 -65.5 145.5t-184.5 43.5h-110v-254zM692 602q0 91 -55.5 119.5t-185.5 28.5q-78 0 -78 -95v-172q20 0 54 -2t48 -2q119 0 168 28.5t49 94.5z" />
    <glyph glyph-name="acircumflex" unicode="&#x432;" horiz-adv-x="965" 
d="M676 459q54 -6 109 -32t89.5 -69t34.5 -100q0 -74 -42 -132.5t-123 -92t-195 -33.5q-21 0 -110 4t-136 4q-29 0 -107 -4t-102 -4v33q27 0 60 12t43 25q20 16 20 69v512q0 52 -7.5 72t-31 25.5t-92.5 5.5v49q26 0 82 -2t82 -2q47 0 142 4t140 4q79 0 148 -14.5t116.5 -54
t47.5 -107.5q0 -77 -52 -114.5t-116 -57.5zM373 164q0 -111 82 -111q92 0 153.5 17.5t93 57t31.5 101.5q0 102 -65.5 145.5t-184.5 43.5h-110v-254zM692 602q0 91 -55.5 119.5t-185.5 28.5q-78 0 -78 -95v-172q20 0 54 -2t48 -2q119 0 168 28.5t49 94.5z" />
    <glyph glyph-name="atilde" unicode="&#xe3;" horiz-adv-x="813" 
d="M487 799q47 0 150 2t121 2q0 -13 -2 -37t-2 -37q0 -26 2 -78t2 -82h-49q-1 21 -3 43t-7 44.5t-11 35.5q-3 20 -16 29t-37 12q-36 2 -110 7t-99 5h-20q-30 -3 -40 -22t-10 -51v-533q0 -42 13 -61t37.5 -24t80.5 -5v-49q-46 0 -129 4t-125 4q-71 0 -163 -12v53q17 1 46.5 2
t48.5 9t29.5 27.5t10.5 59.5v508q-3 52 -29 74t-110 25v49z" />
    <glyph glyph-name="atilde" unicode="&#x433;" horiz-adv-x="813" 
d="M487 799q47 0 150 2t121 2q0 -13 -2 -37t-2 -37q0 -26 2 -78t2 -82h-49q-1 21 -3 43t-7 44.5t-11 35.5q-3 20 -16 29t-37 12q-36 2 -110 7t-99 5h-20q-30 -3 -40 -22t-10 -51v-533q0 -42 13 -61t37.5 -24t80.5 -5v-49q-46 0 -129 4t-125 4q-71 0 -163 -12v53q17 1 46.5 2
t48.5 9t29.5 27.5t10.5 59.5v508q-3 52 -29 74t-110 25v49z" />
    <glyph glyph-name="adieresis" unicode="&#xe4;" horiz-adv-x="1001" 
d="M168 -37q-27 -13 -43 -58t-31 -110h-49q11 82 21 254q47 0 85.5 33t71 86.5t62 118.5t56.5 146t44 153q8 20 8 61q0 62 -86 62h-37v49q151 19 258 65l25 -4q69 -185 98 -254l176 -389q35 -75 58.5 -99.5t60.5 -27.5q3 -59 12 -137.5t13 -116.5h-49q-16 74 -28.5 113.5
t-41.5 54.5q-73 37 -246 37q-78 0 -123 -4q-14 0 -41 2t-36 2q-166 0 -238 -37zM463 684q-21 -95 -45 -175.5t-53 -159t-61.5 -149t-70.5 -134.5h406q45 0 45 24q0 17 -29 94z" />
    <glyph glyph-name="adieresis" unicode="&#x434;" horiz-adv-x="1001" 
d="M168 -37q-27 -13 -43 -58t-31 -110h-49q11 82 21 254q47 0 85.5 33t71 86.5t62 118.5t56.5 146t44 153q8 20 8 61q0 62 -86 62h-37v49q151 19 258 65l25 -4q69 -185 98 -254l176 -389q35 -75 58.5 -99.5t60.5 -27.5q3 -59 12 -137.5t13 -116.5h-49q-16 74 -28.5 113.5
t-41.5 54.5q-73 37 -246 37q-78 0 -123 -4q-14 0 -41 2t-36 2q-166 0 -238 -37zM463 684q-21 -95 -45 -175.5t-53 -159t-61.5 -149t-70.5 -134.5h406q45 0 45 24q0 17 -29 94z" />
    <glyph glyph-name="aring" unicode="&#xe5;" horiz-adv-x="870" 
d="M778 70q-115 -79 -229 -90h-53q-116 0 -208.5 45t-135.5 139q-46 103 -46 233q0 81 20 152t62 123q54 66 143.5 110.5t172.5 44.5q90 0 167.5 -38.5t119.5 -112.5q36 -74 36 -148v-20q0 -22 -44 -48.5t-78 -37.5q-50 -8 -74 -8q-7 0 -21 2t-20 2h-324q3 -125 47.5 -210
t149.5 -122q66 -16 106 -16q127 0 222 69l16 -8q-25 -42 -29 -61zM471 766q-197 0 -205 -283h410v25q0 119 -44 188.5t-161 69.5z" />
    <glyph glyph-name="aring" unicode="&#x435;" horiz-adv-x="870" 
d="M778 70q-115 -79 -229 -90h-53q-116 0 -208.5 45t-135.5 139q-46 103 -46 233q0 81 20 152t62 123q54 66 143.5 110.5t172.5 44.5q90 0 167.5 -38.5t119.5 -112.5q36 -74 36 -148v-20q0 -22 -44 -48.5t-78 -37.5q-50 -8 -74 -8q-7 0 -21 2t-20 2h-324q3 -125 47.5 -210
t149.5 -122q66 -16 106 -16q127 0 222 69l16 -8q-25 -42 -29 -61zM471 766q-197 0 -205 -283h410v25q0 119 -44 188.5t-161 69.5z" />
    <glyph glyph-name="ae" unicode="&#xe6;" horiz-adv-x="1436" 
d="M655 635q-3 77 -22.5 98.5t-79.5 24.5v49q130 -8 164 -8q36 0 192 8v-49q-56 -3 -77.5 -25t-24.5 -98v-164q38 17 72 47t75 76l201 221q62 -9 152 -16v-45q-60 -5 -104 -33t-122 -94l-147 -131l172 -193q62 -74 106 -120t95 -89q23 -15 86 -24l4 -45q-103 -15 -189 -41
l-401 450v-262q0 -49 7.5 -74t27.5 -34.5t67 -14.5v-49q-156 8 -192 8q-34 0 -164 -8v49q47 5 67 14.5t27.5 34.5t7.5 74v262l-401 -450q-85 26 -188 41l4 45q63 9 90 24q78 70 200 209l168 193l-147 131q-68 61 -115.5 91.5t-109.5 35.5v45q46 3 79 6.5t72 9.5l201 -221
q55 -57 80.5 -80.5t66.5 -42.5v164z" />
    <glyph glyph-name="ae" unicode="&#x436;" horiz-adv-x="1436" 
d="M655 635q-3 77 -22.5 98.5t-79.5 24.5v49q130 -8 164 -8q36 0 192 8v-49q-56 -3 -77.5 -25t-24.5 -98v-164q38 17 72 47t75 76l201 221q62 -9 152 -16v-45q-60 -5 -104 -33t-122 -94l-147 -131l172 -193q62 -74 106 -120t95 -89q23 -15 86 -24l4 -45q-103 -15 -189 -41
l-401 450v-262q0 -49 7.5 -74t27.5 -34.5t67 -14.5v-49q-156 8 -192 8q-34 0 -164 -8v49q47 5 67 14.5t27.5 34.5t7.5 74v262l-401 -450q-85 26 -188 41l4 45q63 9 90 24q78 70 200 209l168 193l-147 131q-68 61 -115.5 91.5t-109.5 35.5v45q46 3 79 6.5t72 9.5l201 -221
q55 -57 80.5 -80.5t66.5 -42.5v164z" />
    <glyph glyph-name="ccedilla" unicode="&#xe7;" horiz-adv-x="776" 
d="M344 61q62 0 113 33t79.5 85t28.5 104q0 68 -32 101.5t-119 33.5h-45v49q95 0 145.5 41t50.5 98q0 52 -30 85t-70 48t-72 15q-109 0 -154.5 -53.5t-54.5 -143.5h-45q-6 112 -24 221q50 24 126 38.5t144 14.5q66 0 123.5 -12t103 -38.5t69.5 -65.5t24 -92
q0 -39 -24.5 -71.5t-62 -54.5t-73.5 -30q88 -10 140 -55.5t52 -128.5q0 -67 -38.5 -137.5t-124 -118t-214.5 -47.5q-103 0 -229 90q-17 43 -29 61l13 8q120 -78 229 -78z" />
    <glyph glyph-name="ccedilla" unicode="&#x437;" horiz-adv-x="776" 
d="M344 61q62 0 113 33t79.5 85t28.5 104q0 68 -32 101.5t-119 33.5h-45v49q95 0 145.5 41t50.5 98q0 52 -30 85t-70 48t-72 15q-109 0 -154.5 -53.5t-54.5 -143.5h-45q-6 112 -24 221q50 24 126 38.5t144 14.5q66 0 123.5 -12t103 -38.5t69.5 -65.5t24 -92
q0 -39 -24.5 -71.5t-62 -54.5t-73.5 -30q88 -10 140 -55.5t52 -128.5q0 -67 -38.5 -137.5t-124 -118t-214.5 -47.5q-103 0 -229 90q-17 43 -29 61l13 8q120 -78 229 -78z" />
    <glyph glyph-name="egrave" unicode="&#xe8;" 
d="M373 123l401 676h45q8 0 238 8v-49q-67 0 -91 -5t-32 -28t-8 -86v-467q0 -63 8 -86t32 -28t91 -5v-49q-74 4 -230 4q-122 0 -188 -4v49q66 2 91.5 7.5t34.5 29t9 82.5v516l-405 -684q-70 4 -144 4q-69 0 -139 -8v49q74 6 93.5 10.5t28.5 28t9 84.5v463q0 60 -9 84.5
t-33.5 30.5t-88.5 8v49q122 -8 184 -8q78 0 234 8v-49q-65 -2 -90 -7t-33 -27.5t-8 -84.5v-516z" />
    <glyph glyph-name="egrave" unicode="&#x438;" 
d="M373 123l401 676h45q8 0 238 8v-49q-67 0 -91 -5t-32 -28t-8 -86v-467q0 -63 8 -86t32 -28t91 -5v-49q-74 4 -230 4q-122 0 -188 -4v49q66 2 91.5 7.5t34.5 29t9 82.5v516l-405 -684q-70 4 -144 4q-69 0 -139 -8v49q74 6 93.5 10.5t28.5 28t9 84.5v463q0 60 -9 84.5
t-33.5 30.5t-88.5 8v49q122 -8 184 -8q78 0 234 8v-49q-65 -2 -90 -7t-33 -27.5t-8 -84.5v-516z" />
    <glyph glyph-name="eacute" unicode="&#xe9;" 
d="M373 123l401 676h45q8 0 238 8v-49q-67 0 -91 -5t-32 -28t-8 -86v-467q0 -63 8 -86t32 -28t91 -5v-49q-74 4 -230 4q-122 0 -188 -4v49q66 2 91.5 7.5t34.5 29t9 82.5v516l-405 -684q-70 4 -144 4q-69 0 -139 -8v49q74 6 93.5 10.5t28.5 28t9 84.5v463q0 60 -9 84.5
t-33.5 30.5t-88.5 8v49l164 -8q65 0 123 4v-680zM430 1069l45 -16l-4 -9q0 -24 37 -44.5t86 -20.5q52 0 101.5 30t74.5 93l41 -17q-34 -108 -104.5 -158t-153.5 -50q-49 0 -91.5 14t-76.5 39z" />
    <glyph glyph-name="eacute" unicode="&#x439;" 
d="M373 123l401 676h45q8 0 238 8v-49q-67 0 -91 -5t-32 -28t-8 -86v-467q0 -63 8 -86t32 -28t91 -5v-49q-74 4 -230 4q-122 0 -188 -4v49q66 2 91.5 7.5t34.5 29t9 82.5v516l-405 -684q-70 4 -144 4q-69 0 -139 -8v49q74 6 93.5 10.5t28.5 28t9 84.5v463q0 60 -9 84.5
t-33.5 30.5t-88.5 8v49l164 -8q65 0 123 4v-680zM430 1069l45 -16l-4 -9q0 -24 37 -44.5t86 -20.5q52 0 101.5 30t74.5 93l41 -17q-34 -108 -104.5 -158t-153.5 -50q-49 0 -91.5 14t-76.5 39z" />
    <glyph glyph-name="ecircumflex" unicode="&#xea;" horiz-adv-x="1075" 
d="M360 631v-160q43 18 73 42.5t91 80.5l226 221q58 -8 172 -16v-45q-68 -5 -119.5 -34t-134.5 -93l-168 -131l192 -193q127 -134 226 -209q33 -17 102 -24l4 -45q-111 -14 -213 -41l-451 450v-262q0 -66 8 -88t33.5 -27.5t90.5 -7.5v-49q-148 8 -230 8q-66 0 -188 -8v49
q65 4 82 7t29 12.5t16 33t4 70.5v455q0 49 -4 71.5t-15.5 32t-29 12.5t-82.5 7v49q122 -8 188 -8q82 0 230 8v-49q-74 -4 -95 -8.5t-29 -26t-8 -84.5z" />
    <glyph glyph-name="ecircumflex" unicode="&#x43a;" horiz-adv-x="1075" 
d="M360 631v-160q43 18 73 42.5t91 80.5l226 221q58 -8 172 -16v-45q-68 -5 -119.5 -34t-134.5 -93l-168 -131l192 -193q127 -134 226 -209q33 -17 102 -24l4 -45q-111 -14 -213 -41l-451 450v-262q0 -66 8 -88t33.5 -27.5t90.5 -7.5v-49q-148 8 -230 8q-66 0 -188 -8v49
q65 4 82 7t29 12.5t16 33t4 70.5v455q0 49 -4 71.5t-15.5 32t-29 12.5t-82.5 7v49q122 -8 188 -8q82 0 230 8v-49q-74 -4 -95 -8.5t-29 -26t-8 -84.5z" />
    <glyph glyph-name="edieresis" unicode="&#xeb;" horiz-adv-x="1059" 
d="M0 0h78q9 29 13.5 85t6.5 67q31 -9 58 -9q49 0 82 25q56 53 110 172t78 246q12 36 12 61q0 62 -90 62h-33v49q84 10 134.5 22t123.5 43l29 -4q29 -80 53.5 -147.5t40.5 -106.5l176 -389q10 -21 23 -52t23 -43.5t31 -20.5t59 -11v-53q-132 8 -193 8q-73 0 -205 -8v53
q70 0 94.5 7t24.5 34q0 17 -29 94l-196 500q-45 -193 -89 -335.5t-114.5 -251.5t-161.5 -109q8 0 -139 12z" />
    <glyph glyph-name="edieresis" unicode="&#x43b;" horiz-adv-x="1059" 
d="M0 0h78q9 29 13.5 85t6.5 67q31 -9 58 -9q49 0 82 25q56 53 110 172t78 246q12 36 12 61q0 62 -90 62h-33v49q84 10 134.5 22t123.5 43l29 -4q29 -80 53.5 -147.5t40.5 -106.5l176 -389q10 -21 23 -52t23 -43.5t31 -20.5t59 -11v-53q-132 8 -193 8q-73 0 -205 -8v53
q70 0 94.5 7t24.5 34q0 17 -29 94l-196 500q-45 -193 -89 -335.5t-114.5 -251.5t-161.5 -109q8 0 -139 12z" />
    <glyph glyph-name="igrave" unicode="&#xec;" horiz-adv-x="1305" 
d="M270 688v-516q0 -66 8 -88t33 -27.5t90 -7.5v-49q-146 8 -184 8q-25 0 -147 -8v49q74 6 93.5 10.5t28.5 27.5t9 85v479q0 48 -30 65t-65 17h-12v58h45q23 0 69 2t92 5.5t69 4.5l278 -643l303 643q132 -8 144 -8q13 0 151 8v-49q-65 -2 -88.5 -7t-31 -28t-7.5 -88v-459
q0 -47 4 -71t17 -34.5t37 -13t73 -4.5v-49q-156 8 -233 8q-61 0 -185 -8v49q75 6 94.5 10.5t28.5 27.5t9 85v516l-218 -467q-63 -146 -94 -229h-90q-50 140 -98 241z" />
    <glyph glyph-name="igrave" unicode="&#x43c;" horiz-adv-x="1305" 
d="M270 688v-516q0 -66 8 -88t33 -27.5t90 -7.5v-49q-146 8 -184 8q-25 0 -147 -8v49q74 6 93.5 10.5t28.5 27.5t9 85v479q0 48 -30 65t-65 17h-12v58h45q23 0 69 2t92 5.5t69 4.5l278 -643l303 643q132 -8 144 -8q13 0 151 8v-49q-65 -2 -88.5 -7t-31 -28t-7.5 -88v-459
q0 -47 4 -71t17 -34.5t37 -13t73 -4.5v-49q-156 8 -233 8q-61 0 -185 -8v49q75 6 94.5 10.5t28.5 27.5t9 85v516l-218 -467q-63 -146 -94 -229h-90q-50 140 -98 241z" />
    <glyph glyph-name="iacute" unicode="&#xed;" 
d="M774 442v201q0 61 -9.5 82t-27.5 24t-98 5v49q61 -4 188 -4q152 0 230 4v-49q-67 0 -91 -5t-32 -28t-8 -86v-463q0 -46 4.5 -70t16.5 -34t36.5 -13.5t73.5 -5.5v-49q-148 8 -230 8q-56 0 -188 -8v49q77 6 97 10.5t29 28t9 84.5v213h-405v-213q0 -62 9 -86t34.5 -29.5
t91.5 -7.5v-49q-156 8 -234 8q-62 0 -184 -8v49q74 6 93.5 10.5t28.5 28t9 84.5v471q0 61 -8.5 82.5t-26.5 24t-100 4.5v49q65 -4 188 -4q156 0 230 4v-49q-67 0 -91 -5t-32 -28t-8 -86v-193h405z" />
    <glyph glyph-name="iacute" unicode="&#x43d;" 
d="M774 442v201q0 61 -9.5 82t-27.5 24t-98 5v49q61 -4 188 -4q152 0 230 4v-49q-67 0 -91 -5t-32 -28t-8 -86v-463q0 -46 4.5 -70t16.5 -34t36.5 -13.5t73.5 -5.5v-49q-148 8 -230 8q-56 0 -188 -8v49q77 6 97 10.5t29 28t9 84.5v213h-405v-213q0 -62 9 -86t34.5 -29.5
t91.5 -7.5v-49q-156 8 -234 8q-62 0 -184 -8v49q74 6 93.5 10.5t28.5 28t9 84.5v471q0 61 -8.5 82.5t-26.5 24t-100 4.5v49q65 -4 188 -4q156 0 230 4v-49q-67 0 -91 -5t-32 -28t-8 -86v-193h405z" />
    <glyph glyph-name="icircumflex" unicode="&#xee;" horiz-adv-x="965" 
d="M106 397q0 127 52.5 224.5t149.5 151.5t224 54q118 -1 208 -52t138 -142t48 -211q0 -93 -31.5 -176t-89 -143.5t-138 -94t-175.5 -33.5q-120 0 -208 54.5t-133 151t-45 216.5zM262 434q0 -150 68 -273.5t215 -123.5q113 0 169 97t56 231q0 156 -61 278.5t-205 122.5
q-97 0 -150.5 -45.5t-72.5 -118t-19 -168.5z" />
    <glyph glyph-name="icircumflex" unicode="&#x43e;" horiz-adv-x="965" 
d="M106 397q0 127 52.5 224.5t149.5 151.5t224 54q118 -1 208 -52t138 -142t48 -211q0 -93 -31.5 -176t-89 -143.5t-138 -94t-175.5 -33.5q-120 0 -208 54.5t-133 151t-45 216.5zM262 434q0 -150 68 -273.5t215 -123.5q113 0 169 97t56 231q0 156 -61 278.5t-205 122.5
q-97 0 -150.5 -45.5t-72.5 -118t-19 -168.5z" />
    <glyph glyph-name="idieresis" unicode="&#xef;" 
d="M774 172v471q0 61 -9.5 82t-27.5 24t-98 5h-139q-67 0 -91 -5t-32 -28t-8 -86v-483q0 -47 4.5 -68t18 -28t46.5 -7h66v-49q-156 8 -234 8q-62 0 -184 -8v49q74 6 93.5 10.5t28.5 28t9 84.5v471q0 61 -8.5 82.5t-26.5 24t-100 4.5v49q65 -4 188 -4q156 0 230 4h139
q61 -4 188 -4q152 0 230 4v-49q-67 0 -91 -5t-32 -28t-8 -86v-463q0 -46 4.5 -70t16.5 -34t36.5 -13.5t73.5 -5.5v-49q-148 8 -230 8q-56 0 -188 -8v49q77 6 97 10.5t29 28t9 84.5z" />
    <glyph glyph-name="idieresis" unicode="&#x43f;" 
d="M774 172v471q0 61 -9.5 82t-27.5 24t-98 5h-139q-67 0 -91 -5t-32 -28t-8 -86v-483q0 -47 4.5 -68t18 -28t46.5 -7h66v-49q-156 8 -234 8q-62 0 -184 -8v49q74 6 93.5 10.5t28.5 28t9 84.5v471q0 61 -8.5 82.5t-26.5 24t-100 4.5v49q65 -4 188 -4q156 0 230 4h139
q61 -4 188 -4q152 0 230 4v-49q-67 0 -91 -5t-32 -28t-8 -86v-463q0 -46 4.5 -70t16.5 -34t36.5 -13.5t73.5 -5.5v-49q-148 8 -230 8q-56 0 -188 -8v49q77 6 97 10.5t29 28t9 84.5z" />
    <glyph glyph-name="eth" unicode="&#xf0;" horiz-adv-x="1059" 
d="M217 -319v909q0 74 -20.5 94.5t-85.5 20.5h-29v49q129 11 262 65h25l-4 -168q44 41 76.5 71.5t64 52t70 33t92.5 11.5q79 0 144.5 -26t110.5 -72t69 -107t24 -135q0 -20 -8 -78q-23 -132 -110 -222t-226 -154q-64 -33 -131 -33q-77 0 -172 45v-361l-4 -4
q0 -47 15.5 -66.5t36.5 -22.5t91 -5v-49q-148 8 -238 8q-66 0 -188 -8v49h29q57 0 81.5 19.5t24.5 83.5zM369 508v-246q0 -71 22.5 -101t95.5 -55q61 -24 111 -24q74 0 132.5 39t92 108.5t37.5 155.5v33q0 140 -78.5 215.5t-183.5 75.5q-95 0 -162 -55t-67 -146z" />
    <glyph glyph-name="eth" unicode="&#x440;" horiz-adv-x="1059" 
d="M217 -319v909q0 74 -20.5 94.5t-85.5 20.5h-29v49q129 11 262 65h25l-4 -168q44 41 76.5 71.5t64 52t70 33t92.5 11.5q79 0 144.5 -26t110.5 -72t69 -107t24 -135q0 -20 -8 -78q-23 -132 -110 -222t-226 -154q-64 -33 -131 -33q-77 0 -172 45v-361l-4 -4
q0 -47 15.5 -66.5t36.5 -22.5t91 -5v-49q-148 8 -238 8q-66 0 -188 -8v49h29q57 0 81.5 19.5t24.5 83.5zM369 508v-246q0 -71 22.5 -101t95.5 -55q61 -24 111 -24q74 0 132.5 39t92 108.5t37.5 155.5v33q0 140 -78.5 215.5t-183.5 75.5q-95 0 -162 -55t-67 -146z" />
    <glyph glyph-name="ntilde" unicode="&#xf1;" horiz-adv-x="813" 
d="M762 106l-37 -65q-62 -30 -124 -45.5t-126 -15.5q-118 0 -213 53q-80 48 -124 145t-44 207q0 133 66 246q32 54 120.5 108.5t161.5 75.5q55 12 107 12q104 0 209 -49q-10 -59 -14.5 -112t-10.5 -109h-45q-7 89 -22 117.5t-88 50.5q-58 16 -99 16q-80 0 -141 -43t-80 -125
q-12 -48 -12 -118q0 -101 35.5 -191t103.5 -141q39 -28 80.5 -40.5t83.5 -12.5q93 0 196 49z" />
    <glyph glyph-name="ntilde" unicode="&#x441;" horiz-adv-x="813" 
d="M762 106l-37 -65q-62 -30 -124 -45.5t-126 -15.5q-118 0 -213 53q-80 48 -124 145t-44 207q0 133 66 246q32 54 120.5 108.5t161.5 75.5q55 12 107 12q104 0 209 -49q-10 -59 -14.5 -112t-10.5 -109h-45q-7 89 -22 117.5t-88 50.5q-58 16 -99 16q-80 0 -141 -43t-80 -125
q-12 -48 -12 -118q0 -101 35.5 -191t103.5 -141q39 -28 80.5 -40.5t83.5 -12.5q93 0 196 49z" />
    <glyph glyph-name="ograve" unicode="&#xf2;" horiz-adv-x="928" 
d="M696 0q-138 8 -217 8q-70 0 -200 -8v49q74 0 102.5 16t28.5 78v504q0 31 -15.5 60t-46.5 34h-74q-36 0 -57 -4q-43 -6 -53 -41q-13 -40 -21 -123h-49v41q0 61 -8 193q58 -8 156 -8q52 0 141 2t109 2q16 0 102 -2t139 -2q98 0 156 8q-8 -132 -8 -193v-41h-50
q-2 32 -6.5 67t-13.5 56q-3 21 -16 29.5t-37 11.5q-17 4 -58 4h-73q-31 -6 -46.5 -34.5t-15.5 -59.5v-491q0 -64 30 -85.5t101 -21.5v-49z" />
    <glyph glyph-name="ograve" unicode="&#x442;" horiz-adv-x="928" 
d="M696 0q-138 8 -217 8q-70 0 -200 -8v49q74 0 102.5 16t28.5 78v504q0 31 -15.5 60t-46.5 34h-74q-36 0 -57 -4q-43 -6 -53 -41q-13 -40 -21 -123h-49v41q0 61 -8 193q58 -8 156 -8q52 0 141 2t109 2q16 0 102 -2t139 -2q98 0 156 8q-8 -132 -8 -193v-41h-50
q-2 32 -6.5 67t-13.5 56q-3 21 -16 29.5t-37 11.5q-17 4 -58 4h-73q-31 -6 -46.5 -34.5t-15.5 -59.5v-491q0 -64 30 -85.5t101 -21.5v-49z" />
    <glyph glyph-name="oacute" unicode="&#xf3;" horiz-adv-x="1022" 
d="M475 -33l-266 651q-27 67 -35.5 84.5t-32.5 32t-71 19.5v49q114 -8 184 -8q69 0 209 8v-49q-115 0 -115 -54q0 -31 33 -102l180 -442l189 467q24 54 24 82q0 26 -24 36t-86 13v49q98 -8 155 -8q62 0 160 8v-49q-40 -9 -62.5 -20.5t-36.5 -29.5t-30.5 -57t-26.5 -61
l-286 -656q-26 -57 -63 -137t-75.5 -138t-92 -94t-122.5 -36q-48 0 -110 24q22 68 37 144q78 -37 122 -37q16 0 50 8q70 25 111.5 106t80.5 197z" />
    <glyph glyph-name="oacute" unicode="&#x443;" horiz-adv-x="1022" 
d="M475 -33l-266 651q-27 67 -35.5 84.5t-32.5 32t-71 19.5v49q114 -8 184 -8q69 0 209 8v-49q-115 0 -115 -54q0 -31 33 -102l180 -442l189 467q24 54 24 82q0 26 -24 36t-86 13v49q98 -8 155 -8q62 0 160 8v-49q-40 -9 -62.5 -20.5t-36.5 -29.5t-30.5 -57t-26.5 -61
l-286 -656q-26 -57 -63 -137t-75.5 -138t-92 -94t-122.5 -36q-48 0 -110 24q22 68 37 144q78 -37 122 -37q16 0 50 8q70 25 111.5 106t80.5 197z" />
    <glyph glyph-name="ocircumflex" unicode="&#xf4;" horiz-adv-x="1399" 
d="M266 365q23 -164 89 -236t145 -72q59 0 109 32t50 58v525q-12 8 -35.5 24t-40.5 25.5t-42 16.5t-54 7q-6 0 -20 -2t-21 -2q-90 -17 -137 -113.5t-47 -209.5q0 -37 4 -53zM365 -8q-81 17 -138.5 75t-86.5 139t-29 171q0 64 20 139q26 94 100.5 163t169.5 112
q100 16 127 16q67 0 131 -33v262q0 61 -10 84.5t-35.5 29t-93.5 5.5v49q118 10 271 66l16 -13q0 -38 2 -114t2 -115v-287l41 33q27 24 75 36.5t97 12.5q40 0 82 -8q80 -16 137 -74t85 -140t28 -171q0 -50 -17 -135q-28 -95 -103 -166t-167 -109q-88 -20 -131 -20
q-57 0 -131 41v-369q0 -47 15.5 -66.5t36.5 -22.5t91 -5v-49q-156 8 -237 8q-61 0 -193 -8v49h29q61 0 85.5 19.5t24.5 83.5v389l-45 -37q-28 -24 -75 -36.5t-97 -12.5q-37 0 -77 8zM807 664v-525q11 -8 38.5 -27.5t39 -26.5t38.5 -15.5t56 -8.5q9 0 45 9q61 11 101.5 68
t59.5 130.5t19 137.5v40q-12 85 -37.5 144.5t-59 93t-70 47.5t-74.5 14q-41 0 -76.5 -13.5t-57.5 -32.5t-22 -35z" />
    <glyph glyph-name="ocircumflex" unicode="&#x444;" horiz-adv-x="1399" 
d="M266 365q23 -164 89 -236t145 -72q59 0 109 32t50 58v525q-12 8 -35.5 24t-40.5 25.5t-42 16.5t-54 7q-6 0 -20 -2t-21 -2q-90 -17 -137 -113.5t-47 -209.5q0 -37 4 -53zM365 -8q-81 17 -138.5 75t-86.5 139t-29 171q0 64 20 139q26 94 100.5 163t169.5 112
q100 16 127 16q67 0 131 -33v262q0 61 -10 84.5t-35.5 29t-93.5 5.5v49q118 10 271 66l16 -13q0 -38 2 -114t2 -115v-287l41 33q27 24 75 36.5t97 12.5q40 0 82 -8q80 -16 137 -74t85 -140t28 -171q0 -50 -17 -135q-28 -95 -103 -166t-167 -109q-88 -20 -131 -20
q-57 0 -131 41v-369q0 -47 15.5 -66.5t36.5 -22.5t91 -5v-49q-156 8 -237 8q-61 0 -193 -8v49h29q61 0 85.5 19.5t24.5 83.5v389l-45 -37q-28 -24 -75 -36.5t-97 -12.5q-37 0 -77 8zM807 664v-525q11 -8 38.5 -27.5t39 -26.5t38.5 -15.5t56 -8.5q9 0 45 9q61 11 101.5 68
t59.5 130.5t19 137.5v40q-12 85 -37.5 144.5t-59 93t-70 47.5t-74.5 14q-41 0 -76.5 -13.5t-57.5 -32.5t-22 -35z" />
    <glyph glyph-name="otilde" unicode="&#xf5;" horiz-adv-x="928" 
d="M0 0h61v49q43 4 70.5 22.5t61 64t45.5 61.5l159 188q-34 50 -71 103t-74 103.5t-68 88.5q-26 36 -49.5 48.5t-68.5 12.5l-5 45l189 33q42 -26 86.5 -82.5t81 -117t74.5 -123.5l221 311q20 -4 61 -4q45 0 66 4v-45q-35 -8 -63 -30t-58 -58t-47 -56l-144 -176l181 -258
q23 -32 46.5 -64t51.5 -53.5t65 -21.5v-45q-36 4 -114 4q-66 0 -99 -4q-22 20 -42.5 48t-39.5 59t-45 73l-94 148q-114 -144 -233 -328q-25 4 -78 4q-45 0 -127 -4z" />
    <glyph glyph-name="otilde" unicode="&#x445;" horiz-adv-x="928" 
d="M0 0h61v49q43 4 70.5 22.5t61 64t45.5 61.5l159 188q-34 50 -71 103t-74 103.5t-68 88.5q-26 36 -49.5 48.5t-68.5 12.5l-5 45l189 33q42 -26 86.5 -82.5t81 -117t74.5 -123.5l221 311q20 -4 61 -4q45 0 66 4v-45q-35 -8 -63 -30t-58 -58t-47 -56l-144 -176l181 -258
q23 -32 46.5 -64t51.5 -53.5t65 -21.5v-45q-36 4 -114 4q-66 0 -99 -4q-22 20 -42.5 48t-39.5 59t-45 73l-94 148q-114 -144 -233 -328q-25 4 -78 4q-45 0 -127 -4z" />
    <glyph glyph-name="odieresis" unicode="&#xf6;" horiz-adv-x="1116" 
d="M1057 49q4 -80 28 -254h-49q-4 19 -10.5 51t-13 54t-22.5 43t-40 28q-38 15 -130.5 22t-192.5 7h-123q-72 0 -184 2t-144 2q-23 0 -53 -2t-37 -2v49q74 6 93.5 10.5t28.5 28t9 84.5v471q0 61 -8.5 82.5t-26.5 24t-100 4.5v49h20q16 0 108 -2t150 -2q25 0 74 2t66 2v-49
q-67 0 -91 -5t-32 -28t-8 -86v-463q0 -63 9.5 -87t34.5 -30t91 -6h135q62 0 87 6t36.5 31t11.5 86v471q0 56 -9.5 77.5t-35.5 26.5t-90 7v49q25 -1 84.5 -2.5t136.5 -1.5q29 0 96 2t101 2v-49q-67 0 -91 -5t-32 -28t-8 -86v-463q0 -46 4.5 -70t16.5 -34t36.5 -13.5
t73.5 -5.5z" />
    <glyph glyph-name="odieresis" unicode="&#x446;" horiz-adv-x="1116" 
d="M1057 49q4 -80 28 -254h-49q-4 19 -10.5 51t-13 54t-22.5 43t-40 28q-38 15 -130.5 22t-192.5 7h-123q-72 0 -184 2t-144 2q-23 0 -53 -2t-37 -2v49q74 6 93.5 10.5t28.5 28t9 84.5v471q0 61 -8.5 82.5t-26.5 24t-100 4.5v49h20q16 0 108 -2t150 -2q25 0 74 2t66 2v-49
q-67 0 -91 -5t-32 -28t-8 -86v-463q0 -63 9.5 -87t34.5 -30t91 -6h135q62 0 87 6t36.5 31t11.5 86v471q0 56 -9.5 77.5t-35.5 26.5t-90 7v49q25 -1 84.5 -2.5t136.5 -1.5q29 0 96 2t101 2v-49q-67 0 -91 -5t-32 -28t-8 -86v-463q0 -46 4.5 -70t16.5 -34t36.5 -13.5
t73.5 -5.5z" />
    <glyph glyph-name="divide" unicode="&#xf7;" horiz-adv-x="1038" 
d="M705 406q-60 -41 -123.5 -64t-122.5 -23q-117 0 -197 87q-12 14 -30.5 47t-18.5 71v119q0 61 -9.5 82t-27.5 24t-98 5v49q61 -4 184 -4q156 0 234 4v-49q-70 0 -94.5 -5.5t-33 -28t-8.5 -85.5v-103q0 -34 13.5 -67t27.5 -47q48 -41 103 -41q74 0 201 82v184
q0 62 -9.5 82.5t-28 23.5t-98.5 5v49q62 -4 189 -4q151 0 229 4v-49q-67 0 -91 -5t-32 -28t-8 -86v-463q0 -46 4.5 -70t16.5 -34t36.5 -13.5t73.5 -5.5v-49q-148 8 -229 8q-61 0 -185 -8v49q75 6 94.5 10.5t28.5 27.5t9 85v234z" />
    <glyph glyph-name="divide" unicode="&#x447;" horiz-adv-x="1038" 
d="M705 406q-60 -41 -123.5 -64t-122.5 -23q-117 0 -197 87q-12 14 -30.5 47t-18.5 71v119q0 61 -9.5 82t-27.5 24t-98 5v49q61 -4 184 -4q156 0 234 4v-49q-70 0 -94.5 -5.5t-33 -28t-8.5 -85.5v-103q0 -34 13.5 -67t27.5 -47q48 -41 103 -41q74 0 201 82v184
q0 62 -9.5 82.5t-28 23.5t-98.5 5v49q62 -4 189 -4q151 0 229 4v-49q-67 0 -91 -5t-32 -28t-8 -86v-463q0 -46 4.5 -70t16.5 -34t36.5 -13.5t73.5 -5.5v-49q-148 8 -229 8q-61 0 -185 -8v49q75 6 94.5 10.5t28.5 27.5t9 85v234z" />
    <glyph glyph-name="oslash" unicode="&#xf8;" horiz-adv-x="1587" 
d="M467 49h131q71 0 103 23t32 80v495q0 45 -9 66.5t-37.5 30.5t-88.5 10v49q0 -8 123 -8q139 0 295 8v-49q-64 0 -90.5 -7.5t-35.5 -32.5t-9 -83v-459q0 -56 11 -81.5t38 -33.5t86 -8h102q64 0 88 6t33.5 31t9.5 86v471q0 66 -22.5 85t-108.5 22v53q43 -2 131 -5t164 -3
q123 0 123 8v-49q-66 -2 -91.5 -7.5t-34.5 -29t-9 -82.5v-459q0 -68 20 -97.5t90 -29.5h13v-49q-58 8 -156 8q-43 0 -125 -4t-125 -4h-1032v49q67 5 89.5 12t30 29.5t7.5 81.5v471q0 73 -20.5 90.5t-110.5 20.5v53q0 -8 123 -8q143 0 299 8v-53q-63 0 -92 -9.5t-40.5 -35.5
t-11.5 -78v-459q0 -58 22 -90.5t85 -32.5z" />
    <glyph glyph-name="oslash" unicode="&#x448;" horiz-adv-x="1587" 
d="M467 49h131q71 0 103 23t32 80v495q0 45 -9 66.5t-37.5 30.5t-88.5 10v49q0 -8 123 -8q139 0 295 8v-49q-64 0 -90.5 -7.5t-35.5 -32.5t-9 -83v-459q0 -56 11 -81.5t38 -33.5t86 -8h102q64 0 88 6t33.5 31t9.5 86v471q0 66 -22.5 85t-108.5 22v53q43 -2 131 -5t164 -3
q123 0 123 8v-49q-66 -2 -91.5 -7.5t-34.5 -29t-9 -82.5v-459q0 -68 20 -97.5t90 -29.5h13v-49q-58 8 -156 8q-43 0 -125 -4t-125 -4h-1032v49q67 5 89.5 12t30 29.5t7.5 81.5v471q0 73 -20.5 90.5t-110.5 20.5v53q0 -8 123 -8q143 0 299 8v-53q-63 0 -92 -9.5t-40.5 -35.5
t-11.5 -78v-459q0 -58 22 -90.5t85 -32.5z" />
    <glyph glyph-name="ugrave" unicode="&#xf9;" horiz-adv-x="1587" 
d="M1319 0h-1233v49q67 5 89.5 12t30 29.5t7.5 81.5v471q0 73 -20.5 90.5t-110.5 20.5v53q0 -8 123 -8q143 0 299 8v-53q-62 0 -91.5 -8.5t-41 -34t-11.5 -76.5v-463q0 -58 22 -90.5t85 -32.5h131q77 0 106 22t29 81v495q0 45 -9 66.5t-37.5 30.5t-88.5 10v49q0 -8 123 -8
q139 0 295 8v-49q-64 0 -90.5 -7.5t-35.5 -32.5t-9 -83v-459q0 -55 12.5 -81t40 -34t82.5 -8h102q60 0 84.5 6t35.5 32t11 85v471q0 66 -22.5 85t-108.5 22v53q43 -2 131 -5t164 -3q123 0 123 8v-49q-66 -2 -91.5 -7.5t-34.5 -29t-9 -82.5v-459q0 -49 6 -73.5t29.5 -39
t74.5 -14.5h13q4 -83 8 -139.5t12 -114.5h-49q-19 88 -51 146.5t-125 58.5z" />
    <glyph glyph-name="ugrave" unicode="&#x449;" horiz-adv-x="1587" 
d="M1319 0h-1233v49q67 5 89.5 12t30 29.5t7.5 81.5v471q0 73 -20.5 90.5t-110.5 20.5v53q0 -8 123 -8q143 0 299 8v-53q-62 0 -91.5 -8.5t-41 -34t-11.5 -76.5v-463q0 -58 22 -90.5t85 -32.5h131q77 0 106 22t29 81v495q0 45 -9 66.5t-37.5 30.5t-88.5 10v49q0 -8 123 -8
q139 0 295 8v-49q-64 0 -90.5 -7.5t-35.5 -32.5t-9 -83v-459q0 -55 12.5 -81t40 -34t82.5 -8h102q60 0 84.5 6t35.5 32t11 85v471q0 66 -22.5 85t-108.5 22v53q43 -2 131 -5t164 -3q123 0 123 8v-49q-66 -2 -91.5 -7.5t-34.5 -29t-9 -82.5v-459q0 -49 6 -73.5t29.5 -39
t74.5 -14.5h13q4 -83 8 -139.5t12 -114.5h-49q-19 88 -51 146.5t-125 58.5z" />
    <glyph glyph-name="uacute" unicode="&#xfa;" horiz-adv-x="1153" 
d="M602 61q74 -16 107 -16q97 0 157 54.5t60 154.5q0 79 -57 119.5t-164 40.5h-140v-279q0 -36 14 -53t23 -21zM696 803v-49q-80 -6 -105.5 -22t-25.5 -73v-184h168q70 0 134.5 -13t115.5 -37t83 -62.5t32 -83.5q0 -99 -47 -162t-133 -92t-201 -29q-30 0 -95 4t-102 4h-241
v45q5 2 55.5 9.5t58.5 15.5q17 16 17 90v491q0 82 -41 82h-148q-33 -8 -42.5 -12.5t-14.5 -24.5q-6 -19 -11 -62.5t-10 -64.5h-49v33q0 102 -12 201q74 -8 127 -8q28 0 78 2t69 2h340z" />
    <glyph glyph-name="uacute" unicode="&#x44a;" horiz-adv-x="1153" 
d="M602 61q74 -16 107 -16q97 0 157 54.5t60 154.5q0 79 -57 119.5t-164 40.5h-140v-279q0 -36 14 -53t23 -21zM696 803v-49q-80 -6 -105.5 -22t-25.5 -73v-184h168q70 0 134.5 -13t115.5 -37t83 -62.5t32 -83.5q0 -99 -47 -162t-133 -92t-201 -29q-30 0 -95 4t-102 4h-241
v45q5 2 55.5 9.5t58.5 15.5q17 16 17 90v491q0 82 -41 82h-148q-33 -8 -42.5 -12.5t-14.5 -24.5q-6 -19 -11 -62.5t-10 -64.5h-49v33q0 102 -12 201q74 -8 127 -8q28 0 78 2t69 2h340z" />
    <glyph glyph-name="ucircumflex" unicode="&#xfb;" horiz-adv-x="1378" 
d="M909 0v49q74 0 102.5 16t28.5 78v512q0 65 -28.5 82t-102.5 17v49q132 -8 197 -8q81 0 221 8v-49q-52 0 -80 -13t-39.5 -43t-11.5 -80v-434q0 -79 26 -107t105 -28v-49q-140 8 -221 8q-65 0 -197 -8zM504 754q-84 0 -111.5 -24t-27.5 -79v-176h167q88 0 173.5 -23
t138.5 -68t53 -105q0 -99 -47 -162t-133 -92t-201 -29q-29 0 -95 4t-102 4h-40q-34 0 -105 -2t-88 -2v49q27 0 63.5 7t43.5 14q20 12 20 94v479q0 47 -8.5 69.5t-36.5 32t-86 9.5v49q11 0 57 -2t78 -2q181 0 287 8v-53zM401 61q74 -16 107 -16q97 0 157 54.5t60 154.5
q0 79 -57 119.5t-164 40.5h-139v-279q0 -36 13.5 -53t22.5 -21z" />
    <glyph glyph-name="ucircumflex" unicode="&#x44b;" horiz-adv-x="1378" 
d="M909 0v49q74 0 102.5 16t28.5 78v512q0 65 -28.5 82t-102.5 17v49q132 -8 197 -8q81 0 221 8v-49q-52 0 -80 -13t-39.5 -43t-11.5 -80v-434q0 -79 26 -107t105 -28v-49q-140 8 -221 8q-65 0 -197 -8zM504 754q-84 0 -111.5 -24t-27.5 -79v-176h167q88 0 173.5 -23
t138.5 -68t53 -105q0 -99 -47 -162t-133 -92t-201 -29q-29 0 -95 4t-102 4h-40q-34 0 -105 -2t-88 -2v49q27 0 63.5 7t43.5 14q20 12 20 94v479q0 47 -8.5 69.5t-36.5 32t-86 9.5v49q11 0 57 -2t78 -2q181 0 287 8v-53zM401 61q74 -16 107 -16q97 0 157 54.5t60 154.5
q0 79 -57 119.5t-164 40.5h-139v-279q0 -36 13.5 -53t22.5 -21z" />
    <glyph glyph-name="udieresis" unicode="&#xfc;" horiz-adv-x="944" 
d="M504 754q-84 0 -111.5 -24t-27.5 -79v-176h167q88 0 173.5 -23t138.5 -68t53 -105q0 -99 -47 -162t-133 -92t-201 -29q-29 0 -95 4t-102 4h-40q-34 0 -105 -2t-88 -2v49q27 0 63.5 7t43.5 14q20 12 20 94v479q0 47 -8.5 69.5t-36.5 32t-86 9.5v49q11 0 57 -2t78 -2
q181 0 287 8v-53zM401 61q74 -16 107 -16q97 0 157 54.5t60 154.5q0 79 -57 119.5t-164 40.5h-139v-279q0 -36 13.5 -53t22.5 -21z" />
    <glyph glyph-name="udieresis" unicode="&#x44c;" horiz-adv-x="944" 
d="M504 754q-84 0 -111.5 -24t-27.5 -79v-176h167q88 0 173.5 -23t138.5 -68t53 -105q0 -99 -47 -162t-133 -92t-201 -29q-29 0 -95 4t-102 4h-40q-34 0 -105 -2t-88 -2v49q27 0 63.5 7t43.5 14q20 12 20 94v479q0 47 -8.5 69.5t-36.5 32t-86 9.5v49q11 0 57 -2t78 -2
q181 0 287 8v-53zM401 61q74 -16 107 -16q97 0 157 54.5t60 154.5q0 79 -57 119.5t-164 40.5h-139v-279q0 -36 13.5 -53t22.5 -21z" />
    <glyph glyph-name="yacute" unicode="&#xfd;" horiz-adv-x="829" 
d="M627 373q-89 -60 -99 -66q-4 -1 -10.5 -4t-12.5 -5.5t-9 -2.5q-19 0 -90 33q-12 5 -63 37t-81 32q-12 0 -26.5 -8.5t-31 -21.5t-24.5 -19v45q21 27 37.5 48t36.5 38t41 17q52 0 168 -66q48 -30 62.5 -37.5t39.5 -7.5q16 0 66 16q4 0 4 45v17q0 46 -8 110
q-20 81 -81.5 124.5t-139.5 43.5q-41 0 -99 -16q-41 -13 -61.5 -26.5t-30 -30.5t-13 -36.5t-9.5 -74.5h-41q-8 74 -13.5 129.5t-11.5 91.5q103 49 205 49q58 0 106 -12q77 -21 165.5 -75.5t121.5 -108.5q61 -104 61 -246q0 -114 -42 -209t-126 -143q-87 -53 -212 -53
q-65 0 -126 15t-120 46l-37 65l16 13q98 -49 193 -49q98 0 168 53q79 60 110 168q17 34 17 82z" />
    <glyph glyph-name="yacute" unicode="&#x44d;" horiz-adv-x="829" 
d="M627 373q-89 -60 -99 -66q-4 -1 -10.5 -4t-12.5 -5.5t-9 -2.5q-19 0 -90 33q-12 5 -63 37t-81 32q-12 0 -26.5 -8.5t-31 -21.5t-24.5 -19v45q21 27 37.5 48t36.5 38t41 17q52 0 168 -66q48 -30 62.5 -37.5t39.5 -7.5q16 0 66 16q4 0 4 45v17q0 46 -8 110
q-20 81 -81.5 124.5t-139.5 43.5q-41 0 -99 -16q-41 -13 -61.5 -26.5t-30 -30.5t-13 -36.5t-9.5 -74.5h-41q-8 74 -13.5 129.5t-11.5 91.5q103 49 205 49q58 0 106 -12q77 -21 165.5 -75.5t121.5 -108.5q61 -104 61 -246q0 -114 -42 -209t-126 -143q-87 -53 -212 -53
q-65 0 -126 15t-120 46l-37 65l16 13q98 -49 193 -49q98 0 168 53q79 60 110 168q17 34 17 82z" />
    <glyph glyph-name="thorn" unicode="&#xfe;" horiz-adv-x="1378" 
d="M983 41q188 36 188 311q0 74 -4 103q-14 129 -77 220t-177 91h-41q-109 -17 -158.5 -102.5t-49.5 -204.5q0 -17 4 -52t4 -51q21 -132 85.5 -225.5t176.5 -93.5q5 0 23 2t26 2zM373 385v-225q0 -33 5 -55.5t19.5 -34t40.5 -14.5t66 -3v-49q-70 4 -217 4q-135 0 -201 -4v49
q53 0 78 4.5t39 24.5t14 65v512q0 62 -28.5 78.5t-102.5 16.5v49q132 -8 201 -8q77 0 217 8v-49q-83 0 -107 -18.5t-24 -92.5v-201h135q0 14 4.5 30.5t7.5 31.5q32 149 143 236t275 87q118 -1 208 -52t137.5 -142t47.5 -211q0 -93 -31.5 -176t-89 -143.5t-138 -94
t-175.5 -33.5q-158 0 -256.5 90t-124.5 242q-4 21 -4 78h-139z" />
    <glyph glyph-name="thorn" unicode="&#x44e;" horiz-adv-x="1378" 
d="M983 41q188 36 188 311q0 74 -4 103q-14 129 -77 220t-177 91h-41q-109 -17 -158.5 -102.5t-49.5 -204.5q0 -17 4 -52t4 -51q21 -132 85.5 -225.5t176.5 -93.5q5 0 23 2t26 2zM373 385v-225q0 -33 5 -55.5t19.5 -34t40.5 -14.5t66 -3v-49q-70 4 -217 4q-135 0 -201 -4v49
q53 0 78 4.5t39 24.5t14 65v512q0 62 -28.5 78.5t-102.5 16.5v49q132 -8 201 -8q77 0 217 8v-49q-83 0 -107 -18.5t-24 -92.5v-201h135q0 14 4.5 30.5t7.5 31.5q32 149 143 236t275 87q118 -1 208 -52t137.5 -142t47.5 -211q0 -93 -31.5 -176t-89 -143.5t-138 -94
t-175.5 -33.5q-158 0 -256.5 90t-124.5 242q-4 21 -4 78h-139z" />
    <glyph glyph-name="ydieresis" unicode="&#xff;" horiz-adv-x="1059" 
d="M1008 0q-164 8 -230 8q-50 0 -188 -8v49q59 2 86 8.5t36 29t9 77.5v467q0 22 -2 53t-2 49q-104 17 -148 17q-176 0 -176 -132q0 -87 71 -127t191 -40v-41q-29 -15 -68 -59.5t-46 -51.5l-156 -176q-23 -23 -62.5 -61.5t-60.5 -61.5q-33 4 -106 4q-74 0 -103 -4v49
q34 0 62.5 15t54.5 40.5t47 47.5l246 258q-59 16 -110.5 39.5t-89.5 68.5t-38 113q0 33 18 69.5t48 57.5q69 45 258 45q37 0 102 -2t86 -2h271v-45h-25q-41 0 -76 -20t-35 -70v-508q0 -50 8 -70.5t35.5 -27.5t92.5 -9v-49z" />
    <glyph glyph-name="ydieresis" unicode="&#x44f;" horiz-adv-x="1059" 
d="M1008 0q-164 8 -230 8q-50 0 -188 -8v49q59 2 86 8.5t36 29t9 77.5v467q0 22 -2 53t-2 49q-104 17 -148 17q-176 0 -176 -132q0 -87 71 -127t191 -40v-41q-29 -15 -68 -59.5t-46 -51.5l-156 -176q-23 -23 -62.5 -61.5t-60.5 -61.5q-33 4 -106 4q-74 0 -103 -4v49
q34 0 62.5 15t54.5 40.5t47 47.5l246 258q-59 16 -110.5 39.5t-89.5 68.5t-38 113q0 33 18 69.5t48 57.5q69 45 258 45q37 0 102 -2t86 -2h271v-45h-25q-41 0 -76 -20t-35 -70v-508q0 -50 8 -70.5t35.5 -27.5t92.5 -9v-49z" />
    <glyph glyph-name="OE" unicode="&#x152;" horiz-adv-x="721" 
 />
    <glyph glyph-name="oe" unicode="&#x153;" horiz-adv-x="721" 
 />
    <glyph glyph-name="Scaron" unicode="&#x160;" horiz-adv-x="721" 
 />
    <glyph glyph-name="scaron" unicode="&#x161;" horiz-adv-x="721" 
 />
    <glyph glyph-name="Ydieresis" unicode="&#x178;" horiz-adv-x="1059" 
d="M1008 0q-164 8 -230 8q-50 0 -188 -8v49q59 2 86 8.5t36 29t9 77.5v467q0 22 -2 53t-2 49q-104 17 -148 17q-171 0 -176 -132l-4 -12q0 -60 34 -94t92 -47.5t140 -13.5v-41q-29 -15 -68 -59.5t-46 -51.5l-156 -176q-23 -23 -62.5 -61.5t-60.5 -61.5q-33 4 -106 4
q-74 0 -103 -4v49q34 0 62.5 15t54.5 40.5t47 47.5l246 258q-160 43 -213 143q-25 29 -25 78q0 35 18 70.5t48 56.5q69 45 258 45q37 0 102 -2t86 -2h271v-45h-25q-41 0 -76 -20t-35 -70v-508q0 -50 8 -70.5t35.5 -27.5t92.5 -9v-49z" />
    <glyph glyph-name="florin" unicode="&#x192;" horiz-adv-x="721" 
 />
    <glyph glyph-name="emdash" unicode="&#x2013;" horiz-adv-x="907" 
d="M868 475l-45 -135h-757l45 135h757z" />
    <glyph glyph-name="endash" unicode="&#x2014;" horiz-adv-x="1624" 
d="M1585 475l-45 -135h-1462l49 135h1458z" />
    <glyph glyph-name="quoteleft" unicode="&#x2018;" horiz-adv-x="436" 
d="M328 1212l82 50l28 -21q-63 -98 -98 -190t-41 -191l-45.5 -13t-42 -12.5t-37.5 -11.5t-43 -12l-25 20q51 112 103 203t119 178z" />
    <glyph glyph-name="quoteright" unicode="&#x2019;" horiz-adv-x="436" 
d="M221 856l-82 -45l-24 20q59 96 94 187t41 194q81 18 168 50l24 -21q-90 -219 -221 -385z" />
    <glyph glyph-name="quotesinglbase" unicode="&#x201a;" horiz-adv-x="721" 
 />
    <glyph glyph-name="quotedblleft" unicode="&#x201c;" horiz-adv-x="698" 
d="M598 1212l82 50l25 -21q-61 -101 -95 -191t-41 -190q-56 -16 -90 -26.5t-78 -22.5l-24 20q19 41 46 97.5t52 101t59 95.5t64 87zM258 1212l82 50l25 -21q-61 -101 -95 -191t-41 -190q-50 -14 -168 -49l-24 20q85 203 221 381z" />
    <glyph glyph-name="quotedblright" unicode="&#x201d;" horiz-adv-x="735" 
d="M180 856l-82 -45l-28 20q130 201 135 381q92 21 172 50l24 -21q-47 -109 -100 -202t-121 -183zM520 856l-82 -45l-24 20q59 96 94 187t41 194q81 18 168 50l24 -21q-26 -63 -60.5 -130.5t-74 -129.5t-86.5 -125z" />
    <glyph glyph-name="quotedblbase" unicode="&#x201e;" horiz-adv-x="721" 
 />
    <glyph glyph-name="dagger" unicode="&#x2020;" horiz-adv-x="721" 
 />
    <glyph glyph-name="daggerdbl" unicode="&#x2021;" horiz-adv-x="721" 
 />
    <glyph glyph-name="ellipsis" unicode="&#x2026;" horiz-adv-x="721" 
 />
    <glyph glyph-name="perthousand" unicode="&#x2030;" horiz-adv-x="721" 
 />
    <glyph glyph-name="guilsinglleft" unicode="&#x2039;" horiz-adv-x="1305" 
d="M1262 967v-107l-844 -344l844 -344v-106l-996 409v86z" />
    <glyph glyph-name="guilsinglright" unicode="&#x203a;" horiz-adv-x="1305" 
d="M266 967l996 -406v-86l-996 -409v106l844 344l-844 344v107z" />
    <glyph glyph-name="trademark" unicode="&#x2122;" horiz-adv-x="721" 
 />
    <glyph glyph-name="periodcentered" unicode="&#x2219;" horiz-adv-x="395" 
d="M246 504q41 0 69.5 -27.5t28.5 -70.5q0 -41 -29 -70t-69 -29t-69.5 29.5t-29.5 69.5q0 42 29 70t70 28z" />
  </font>
</defs>
</svg>
